<ttFont>
    <TTGlyph name=".notdef" xMin="32" yMin="0" xMax="440" yMax="780">
      <contour>
        <pt x="32" y="0" on="1"/>
        <pt x="32" y="780" on="1"/>
        <pt x="440" y="780" on="1"/>
        <pt x="440" y="0" on="1"/>
      </contour>
      <contour>
        <pt x="120" y="88" on="1"/>
        <pt x="352" y="88" on="1"/>
        <pt x="352" y="692" on="1"/>
        <pt x="120" y="692" on="1"/>
      </contour>
    </TTGlyph>
    <TTGlyph name="A" xMin="-32" yMin="0" xMax="576" yMax="698">
      <contour>
        <pt x="448" y="0" on="1"/>
        <pt x="429" y="180" on="1"/>
        <pt x="192" y="180" on="1"/>
        <pt x="103" y="0" on="1"/>
        <pt x="-32" y="0" on="1"/>
        <pt x="331" y="698" on="1"/>
        <pt x="493" y="698" on="1"/>
        <pt x="576" y="0" on="1"/>
      </contour>
      <contour>
        <pt x="392" y="583" on="1"/>
        <pt x="385" y="583" on="1"/>
        <pt x="243" y="287" on="1"/>
        <pt x="420" y="287" on="1"/>
      </contour>
    </TTGlyph>
    <TTGlyph name="AE" xMin="-52" yMin="0" xMax="941" yMax="698">
      <contour>
        <pt x="399" y="179" on="1"/>
        <pt x="197" y="179" on="1"/>
        <pt x="85" y="0" on="1"/>
        <pt x="-52" y="0" on="1"/>
        <pt x="403" y="698" on="1"/>
        <pt x="941" y="698" on="1"/>
        <pt x="918" y="586" on="1"/>
        <pt x="607" y="586" on="1"/>
        <pt x="571" y="407" on="1"/>
        <pt x="847" y="407" on="1"/>
        <pt x="825" y="295" on="1"/>
        <pt x="548" y="295" on="1"/>
        <pt x="512" y="112" on="1"/>
        <pt x="835" y="112" on="1"/>
        <pt x="813" y="0" on="1"/>
        <pt x="363" y="0" on="1"/>
      </contour>
      <contour>
        <pt x="457" y="588" on="1"/>
        <pt x="267" y="287" on="1"/>
        <pt x="420" y="287" on="1"/>
        <pt x="481" y="588" on="1"/>
      </contour>
    </TTGlyph>
    <TTGlyph name="AEacute" xMin="-52" yMin="0" xMax="941" yMax="963">
      <component glyphName="AE" x="0" y="0" flags="0x204"/>
      <component glyphName="acute" x="275" y="158" flags="0x4"/>
    </TTGlyph>
    <TTGlyph name="Aacute" xMin="-32" yMin="0" xMax="576" yMax="968">
      <component glyphName="A" x="0" y="0" flags="0x204"/>
      <component glyphName="acute.case" x="114" y="0" flags="0x4"/>
    </TTGlyph>
    <TTGlyph name="Abreve" xMin="-32" yMin="0" xMax="623" yMax="942">
      <component glyphName="A" x="0" y="0" flags="0x204"/>
      <component glyphName="breve.case" x="114" y="0" flags="0x4"/>
    </TTGlyph>
    <TTGlyph name="Acircumflex" xMin="-32" yMin="0" xMax="600" yMax="948">
      <component glyphName="A" x="0" y="0" flags="0x204"/>
      <component glyphName="circumflex.case" x="114" y="0" flags="0x4"/>
    </TTGlyph>
    <TTGlyph name="Adieresis" xMin="-32" yMin="0" xMax="600" yMax="905">
      <component glyphName="A" x="0" y="0" flags="0x204"/>
      <component glyphName="dieresis.case" x="114" y="0" flags="0x4"/>
    </TTGlyph>
    <TTGlyph name="Agrave" xMin="-32" yMin="0" xMax="576" yMax="967">
      <component glyphName="A" x="0" y="0" flags="0x204"/>
      <component glyphName="grave.case" x="114" y="0" flags="0x4"/>
    </TTGlyph>
    <TTGlyph name="Alpha" xMin="-32" yMin="0" xMax="576" yMax="698">
      <component glyphName="A" x="0" y="0" flags="0x204"/>
    </TTGlyph>
    <TTGlyph name="Alphatonos" xMin="-32" yMin="0" xMax="576" yMax="805">
      <component glyphName="A" x="0" y="0" flags="0x204"/>
      <component glyphName="tonos.case" x="-210" y="0" flags="0x4"/>
    </TTGlyph>
    <TTGlyph name="Amacron" xMin="-32" yMin="0" xMax="581" yMax="884">
      <component glyphName="A" x="0" y="0" flags="0x204"/>
      <component glyphName="macron.case" x="114" y="0" flags="0x4"/>
    </TTGlyph>
    <TTGlyph name="Aogonek" xMin="-32" yMin="-210" xMax="594" yMax="698">
      <contour>
        <pt x="331" y="698" on="1"/>
        <pt x="493" y="698" on="1"/>
        <pt x="576" y="0" on="1"/>
        <pt x="535" y="-25" on="0"/>
        <pt x="488" y="-61" on="0"/>
        <pt x="464" y="-88" on="0"/>
        <pt x="458" y="-107" on="0"/>
        <pt x="458" y="-114" on="1"/>
        <pt x="458" y="-128" on="0"/>
        <pt x="474" y="-144" on="0"/>
        <pt x="492" y="-144" on="1"/>
        <pt x="507" y="-144" on="0"/>
        <pt x="535" y="-132" on="0"/>
        <pt x="546" y="-117" on="1"/>
        <pt x="594" y="-165" on="1"/>
        <pt x="577" y="-185" on="0"/>
        <pt x="521" y="-210" on="0"/>
        <pt x="477" y="-210" on="1"/>
        <pt x="431" y="-210" on="0"/>
        <pt x="365" y="-171" on="0"/>
        <pt x="365" y="-130" on="1"/>
        <pt x="365" y="-91" on="0"/>
        <pt x="430" y="-26" on="0"/>
        <pt x="499" y="-5" on="1"/>
        <pt x="498" y="0" on="1"/>
        <pt x="448" y="0" on="1"/>
        <pt x="429" y="180" on="1"/>
        <pt x="192" y="180" on="1"/>
        <pt x="103" y="0" on="1"/>
        <pt x="-32" y="0" on="1"/>
      </contour>
      <contour>
        <pt x="392" y="583" on="1"/>
        <pt x="385" y="583" on="1"/>
        <pt x="243" y="287" on="1"/>
        <pt x="420" y="287" on="1"/>
      </contour>
    </TTGlyph>
    <TTGlyph name="Aring" xMin="-32" yMin="0" xMax="576" yMax="997">
      <component glyphName="A" x="0" y="0" flags="0x204"/>
      <component glyphName="ring.case" x="114" y="0" flags="0x4"/>
    </TTGlyph>
    <TTGlyph name="Aringacute" xMin="-32" yMin="0" xMax="605" yMax="1142">
      <component glyphName="A" x="0" y="0" flags="0x204"/>
      <component glyphName="ringacute.case" x="114" y="0" flags="0x4"/>
    </TTGlyph>
    <TTGlyph name="Atilde" xMin="-32" yMin="0" xMax="610" yMax="906">
      <component glyphName="A" x="0" y="0" flags="0x204"/>
      <component glyphName="tilde.case" x="114" y="0" flags="0x4"/>
    </TTGlyph>
    <TTGlyph name="B" xMin="27" yMin="0" xMax="625" yMax="698">
      <contour>
        <pt x="167" y="698" on="1"/>
        <pt x="453" y="698" on="1"/>
        <pt x="531" y="698" on="0"/>
        <pt x="625" y="625" on="0"/>
        <pt x="625" y="553" on="1"/>
        <pt x="625" y="486" on="0"/>
        <pt x="556" y="382" on="0"/>
        <pt x="487" y="364" on="1"/>
        <pt x="486" y="359" on="1"/>
        <pt x="539" y="345" on="0"/>
        <pt x="589" y="278" on="0"/>
        <pt x="589" y="227" on="1"/>
        <pt x="589" y="177" on="0"/>
        <pt x="557" y="94" on="0"/>
        <pt x="497" y="34" on="0"/>
        <pt x="409" y="0" on="0"/>
        <pt x="352" y="0" on="1"/>
        <pt x="27" y="0" on="1"/>
      </contour>
      <contour>
        <pt x="352" y="109" on="1"/>
        <pt x="391" y="109" on="0"/>
        <pt x="442" y="147" on="0"/>
        <pt x="450" y="187" on="1"/>
        <pt x="455" y="213" on="0"/>
        <pt x="459" y="238" on="0"/>
        <pt x="459" y="245" on="1"/>
        <pt x="459" y="271" on="0"/>
        <pt x="425" y="301" on="0"/>
        <pt x="390" y="301" on="1"/>
        <pt x="213" y="301" on="1"/>
        <pt x="175" y="109" on="1"/>
      </contour>
      <contour>
        <pt x="384" y="405" on="1"/>
        <pt x="425" y="405" on="0"/>
        <pt x="476" y="439" on="0"/>
        <pt x="484" y="479" on="1"/>
        <pt x="489" y="503" on="0"/>
        <pt x="492" y="527" on="0"/>
        <pt x="492" y="534" on="1"/>
        <pt x="492" y="559" on="0"/>
        <pt x="460" y="589" on="0"/>
        <pt x="428" y="589" on="1"/>
        <pt x="271" y="589" on="1"/>
        <pt x="234" y="405" on="1"/>
      </contour>
    </TTGlyph>
    <TTGlyph name="Beta" xMin="27" yMin="0" xMax="625" yMax="698">
      <component glyphName="B" x="0" y="0" flags="0x204"/>
    </TTGlyph>
    <TTGlyph name="C" xMin="56" yMin="-12" xMax="640" yMax="710">
      <contour>
        <pt x="301" y="-12" on="1"/>
        <pt x="247" y="-12" on="0"/>
        <pt x="157" y="24" on="0"/>
        <pt x="92" y="95" on="0"/>
        <pt x="56" y="201" on="0"/>
        <pt x="56" y="270" on="1"/>
        <pt x="56" y="362" on="0"/>
        <pt x="109" y="522" on="0"/>
        <pt x="203" y="641" on="0"/>
        <pt x="332" y="710" on="0"/>
        <pt x="408" y="710" on="1"/>
        <pt x="499" y="710" on="0"/>
        <pt x="615" y="624" on="0"/>
        <pt x="640" y="543" on="1"/>
        <pt x="528" y="495" on="1"/>
        <pt x="514" y="541" on="0"/>
        <pt x="456" y="597" on="0"/>
        <pt x="398" y="597" on="1"/>
        <pt x="325" y="597" on="0"/>
        <pt x="229" y="497" on="0"/>
        <pt x="212" y="412" on="1"/>
        <pt x="189" y="300" on="1"/>
        <pt x="185" y="283" on="0"/>
        <pt x="183" y="257" on="0"/>
        <pt x="183" y="246" on="1"/>
        <pt x="183" y="177" on="0"/>
        <pt x="249" y="101" on="0"/>
        <pt x="312" y="101" on="1"/>
        <pt x="374" y="101" on="0"/>
        <pt x="450" y="162" on="0"/>
        <pt x="477" y="212" on="1"/>
        <pt x="582" y="163" on="1"/>
        <pt x="535" y="73" on="0"/>
        <pt x="393" y="-12" on="0"/>
      </contour>
    </TTGlyph>
    <TTGlyph name="Cacute" xMin="56" yMin="-12" xMax="640" yMax="968">
      <component glyphName="C" x="0" y="0" flags="0x204"/>
      <component glyphName="acute.case" x="119" y="0" flags="0x4"/>
    </TTGlyph>
    <TTGlyph name="Ccaron" xMin="56" yMin="-12" xMax="640" yMax="957">
      <component glyphName="C" x="0" y="0" flags="0x204"/>
      <component glyphName="caron.case" x="119" y="0" flags="0x4"/>
    </TTGlyph>
    <TTGlyph name="Ccedilla" xMin="56" yMin="-210" xMax="640" yMax="710">
      <contour>
        <pt x="398" y="597" on="1"/>
        <pt x="325" y="597" on="0"/>
        <pt x="229" y="497" on="0"/>
        <pt x="212" y="412" on="1"/>
        <pt x="189" y="300" on="1"/>
        <pt x="185" y="283" on="0"/>
        <pt x="183" y="257" on="0"/>
        <pt x="183" y="246" on="1"/>
        <pt x="183" y="177" on="0"/>
        <pt x="249" y="101" on="0"/>
        <pt x="312" y="101" on="1"/>
        <pt x="374" y="101" on="0"/>
        <pt x="450" y="162" on="0"/>
        <pt x="477" y="212" on="1"/>
        <pt x="582" y="163" on="1"/>
        <pt x="537" y="76" on="0"/>
        <pt x="403" y="-9" on="0"/>
        <pt x="315" y="-12" on="1"/>
        <pt x="298" y="-57" on="1"/>
        <pt x="300" y="-61" on="1"/>
        <pt x="321" y="-55" on="0"/>
        <pt x="340" y="-55" on="1"/>
        <pt x="366" y="-55" on="0"/>
        <pt x="401" y="-83" on="0"/>
        <pt x="401" y="-111" on="1"/>
        <pt x="401" y="-135" on="0"/>
        <pt x="381" y="-172" on="0"/>
        <pt x="345" y="-197" on="0"/>
        <pt x="296" y="-210" on="0"/>
        <pt x="268" y="-210" on="1"/>
        <pt x="227" y="-210" on="0"/>
        <pt x="172" y="-184" on="0"/>
        <pt x="160" y="-167" on="1"/>
        <pt x="208" y="-119" on="1"/>
        <pt x="215" y="-128" on="0"/>
        <pt x="245" y="-146" on="0"/>
        <pt x="267" y="-146" on="1"/>
        <pt x="288" y="-146" on="0"/>
        <pt x="316" y="-129" on="0"/>
        <pt x="316" y="-113" on="1"/>
        <pt x="316" y="-100" on="0"/>
        <pt x="288" y="-80" on="0"/>
        <pt x="253" y="-76" on="1"/>
        <pt x="230" y="-74" on="1"/>
        <pt x="255" y="-9" on="1"/>
        <pt x="210" y="-2" on="0"/>
        <pt x="137" y="41" on="0"/>
        <pt x="85" y="111" on="0"/>
        <pt x="56" y="208" on="0"/>
        <pt x="56" y="270" on="1"/>
        <pt x="56" y="362" on="0"/>
        <pt x="109" y="522" on="0"/>
        <pt x="203" y="641" on="0"/>
        <pt x="332" y="710" on="0"/>
        <pt x="408" y="710" on="1"/>
        <pt x="499" y="710" on="0"/>
        <pt x="615" y="624" on="0"/>
        <pt x="640" y="543" on="1"/>
        <pt x="528" y="495" on="1"/>
        <pt x="514" y="541" on="0"/>
        <pt x="456" y="597" on="0"/>
      </contour>
    </TTGlyph>
    <TTGlyph name="Ccircumflex" xMin="56" yMin="-12" xMax="640" yMax="948">
      <component glyphName="C" x="0" y="0" flags="0x204"/>
      <component glyphName="circumflex.case" x="119" y="0" flags="0x4"/>
    </TTGlyph>
    <TTGlyph name="Cdotaccent" xMin="56" yMin="-12" xMax="640" yMax="912">
      <component glyphName="C" x="0" y="0" flags="0x204"/>
      <component glyphName="dotaccent.case" x="119" y="0" flags="0x4"/>
    </TTGlyph>
    <TTGlyph name="Chi" xMin="-35" yMin="0" xMax="691" yMax="698">
      <component glyphName="X" x="0" y="0" flags="0x204"/>
    </TTGlyph>
    <TTGlyph name="D" xMin="27" yMin="0" xMax="645" yMax="698">
      <contour>
        <pt x="167" y="698" on="1"/>
        <pt x="385" y="698" on="1"/>
        <pt x="506" y="698" on="0"/>
        <pt x="645" y="565" on="0"/>
        <pt x="645" y="434" on="1"/>
        <pt x="645" y="345" on="0"/>
        <pt x="597" y="187" on="0"/>
        <pt x="506" y="69" on="0"/>
        <pt x="371" y="0" on="0"/>
        <pt x="284" y="0" on="1"/>
        <pt x="27" y="0" on="1"/>
      </contour>
      <contour>
        <pt x="293" y="112" on="1"/>
        <pt x="368" y="112" on="0"/>
        <pt x="472" y="203" on="0"/>
        <pt x="490" y="294" on="1"/>
        <pt x="510" y="394" on="1"/>
        <pt x="513" y="410" on="0"/>
        <pt x="516" y="442" on="0"/>
        <pt x="516" y="453" on="1"/>
        <pt x="516" y="522" on="0"/>
        <pt x="448" y="586" on="0"/>
        <pt x="391" y="586" on="1"/>
        <pt x="271" y="586" on="1"/>
        <pt x="175" y="112" on="1"/>
      </contour>
    </TTGlyph>
    <TTGlyph name="Dcaron" xMin="27" yMin="0" xMax="645" yMax="957">
      <component glyphName="D" x="0" y="0" flags="0x204"/>
      <component glyphName="caron.case" x="96" y="0" flags="0x4"/>
    </TTGlyph>
    <TTGlyph name="Dcroat" xMin="18" yMin="0" xMax="650" yMax="698">
      <contour>
        <pt x="94" y="309" on="1"/>
        <pt x="18" y="309" on="1"/>
        <pt x="38" y="406" on="1"/>
        <pt x="114" y="406" on="1"/>
        <pt x="172" y="698" on="1"/>
        <pt x="390" y="698" on="1"/>
        <pt x="511" y="698" on="0"/>
        <pt x="650" y="565" on="0"/>
        <pt x="650" y="434" on="1"/>
        <pt x="650" y="345" on="0"/>
        <pt x="602" y="187" on="0"/>
        <pt x="511" y="69" on="0"/>
        <pt x="376" y="0" on="0"/>
        <pt x="289" y="0" on="1"/>
        <pt x="32" y="0" on="1"/>
      </contour>
      <contour>
        <pt x="298" y="112" on="1"/>
        <pt x="373" y="112" on="0"/>
        <pt x="477" y="203" on="0"/>
        <pt x="495" y="294" on="1"/>
        <pt x="515" y="394" on="1"/>
        <pt x="518" y="410" on="0"/>
        <pt x="521" y="442" on="0"/>
        <pt x="521" y="453" on="1"/>
        <pt x="521" y="522" on="0"/>
        <pt x="453" y="586" on="0"/>
        <pt x="396" y="586" on="1"/>
        <pt x="276" y="586" on="1"/>
        <pt x="240" y="406" on="1"/>
        <pt x="358" y="406" on="1"/>
        <pt x="338" y="309" on="1"/>
        <pt x="220" y="309" on="1"/>
        <pt x="180" y="112" on="1"/>
      </contour>
    </TTGlyph>
    <TTGlyph name="Delta" xMin="-7" yMin="0" xMax="582" yMax="698">
      <contour>
        <pt x="14" y="107" on="1"/>
        <pt x="335" y="698" on="1"/>
        <pt x="497" y="698" on="1"/>
        <pt x="582" y="107" on="1"/>
        <pt x="561" y="0" on="1"/>
        <pt x="-7" y="0" on="1"/>
      </contour>
      <contour>
        <pt x="397" y="583" on="1"/>
        <pt x="390" y="583" on="1"/>
        <pt x="149" y="112" on="1"/>
        <pt x="456" y="112" on="1"/>
      </contour>
    </TTGlyph>
    <TTGlyph name="E" xMin="27" yMin="0" xMax="605" yMax="698">
      <contour>
        <pt x="27" y="0" on="1"/>
        <pt x="167" y="698" on="1"/>
        <pt x="605" y="698" on="1"/>
        <pt x="582" y="586" on="1"/>
        <pt x="271" y="586" on="1"/>
        <pt x="235" y="407" on="1"/>
        <pt x="511" y="407" on="1"/>
        <pt x="489" y="295" on="1"/>
        <pt x="212" y="295" on="1"/>
        <pt x="176" y="112" on="1"/>
        <pt x="499" y="112" on="1"/>
        <pt x="477" y="0" on="1"/>
      </contour>
    </TTGlyph>
    <TTGlyph name="Eacute" xMin="27" yMin="0" xMax="605" yMax="968">
      <component glyphName="E" x="0" y="0" flags="0x204"/>
      <component glyphName="acute.case" x="91" y="0" flags="0x4"/>
    </TTGlyph>
    <TTGlyph name="Ebreve" xMin="27" yMin="0" xMax="605" yMax="942">
      <component glyphName="E" x="0" y="0" flags="0x204"/>
      <component glyphName="breve.case" x="91" y="0" flags="0x4"/>
    </TTGlyph>
    <TTGlyph name="Ecaron" xMin="27" yMin="0" xMax="605" yMax="957">
      <component glyphName="E" x="0" y="0" flags="0x204"/>
      <component glyphName="caron.case" x="91" y="0" flags="0x4"/>
    </TTGlyph>
    <TTGlyph name="Ecircumflex" xMin="27" yMin="0" xMax="605" yMax="948">
      <component glyphName="E" x="0" y="0" flags="0x204"/>
      <component glyphName="circumflex.case" x="91" y="0" flags="0x4"/>
    </TTGlyph>
    <TTGlyph name="Edieresis" xMin="27" yMin="0" xMax="605" yMax="905">
      <component glyphName="E" x="0" y="0" flags="0x204"/>
      <component glyphName="dieresis.case" x="91" y="0" flags="0x4"/>
    </TTGlyph>
    <TTGlyph name="Edotaccent" xMin="27" yMin="0" xMax="605" yMax="912">
      <component glyphName="E" x="0" y="0" flags="0x204"/>
      <component glyphName="dotaccent.case" x="91" y="0" flags="0x4"/>
    </TTGlyph>
    <TTGlyph name="Egrave" xMin="27" yMin="0" xMax="605" yMax="967">
      <component glyphName="E" x="0" y="0" flags="0x204"/>
      <component glyphName="grave.case" x="91" y="0" flags="0x4"/>
    </TTGlyph>
    <TTGlyph name="Emacron" xMin="27" yMin="0" xMax="605" yMax="884">
      <component glyphName="E" x="0" y="0" flags="0x204"/>
      <component glyphName="macron.case" x="91" y="0" flags="0x4"/>
    </TTGlyph>
    <TTGlyph name="Eng" xMin="27" yMin="-200" xMax="703" yMax="698">
      <contour>
        <pt x="27" y="0" on="1"/>
        <pt x="167" y="698" on="1"/>
        <pt x="305" y="698" on="1"/>
        <pt x="430" y="337" on="1"/>
        <pt x="476" y="190" on="1"/>
        <pt x="481" y="190" on="1"/>
        <pt x="583" y="698" on="1"/>
        <pt x="703" y="698" on="1"/>
        <pt x="549" y="-68" on="1"/>
        <pt x="535" y="-136" on="0"/>
        <pt x="462" y="-200" on="0"/>
        <pt x="398" y="-200" on="1"/>
        <pt x="321" y="-200" on="1"/>
        <pt x="341" y="-101" on="1"/>
        <pt x="425" y="-101" on="1"/>
        <pt x="445" y="0" on="1"/>
        <pt x="425" y="0" on="1"/>
        <pt x="300" y="361" on="1"/>
        <pt x="254" y="508" on="1"/>
        <pt x="249" y="508" on="1"/>
        <pt x="147" y="0" on="1"/>
      </contour>
    </TTGlyph>
    <TTGlyph name="Eogonek" xMin="27" yMin="-210" xMax="605" yMax="698">
      <contour>
        <pt x="167" y="698" on="1"/>
        <pt x="605" y="698" on="1"/>
        <pt x="582" y="586" on="1"/>
        <pt x="271" y="586" on="1"/>
        <pt x="235" y="407" on="1"/>
        <pt x="511" y="407" on="1"/>
        <pt x="489" y="295" on="1"/>
        <pt x="212" y="295" on="1"/>
        <pt x="176" y="112" on="1"/>
        <pt x="499" y="112" on="1"/>
        <pt x="477" y="0" on="1"/>
        <pt x="436" y="-25" on="0"/>
        <pt x="389" y="-61" on="0"/>
        <pt x="365" y="-88" on="0"/>
        <pt x="358" y="-107" on="0"/>
        <pt x="358" y="-114" on="1"/>
        <pt x="358" y="-128" on="0"/>
        <pt x="375" y="-144" on="0"/>
        <pt x="393" y="-144" on="1"/>
        <pt x="407" y="-144" on="0"/>
        <pt x="436" y="-132" on="0"/>
        <pt x="447" y="-117" on="1"/>
        <pt x="494" y="-165" on="1"/>
        <pt x="477" y="-185" on="0"/>
        <pt x="422" y="-210" on="0"/>
        <pt x="378" y="-210" on="1"/>
        <pt x="332" y="-210" on="0"/>
        <pt x="266" y="-171" on="0"/>
        <pt x="266" y="-130" on="1"/>
        <pt x="266" y="-91" on="0"/>
        <pt x="331" y="-26" on="0"/>
        <pt x="400" y="-5" on="1"/>
        <pt x="399" y="0" on="1"/>
        <pt x="27" y="0" on="1"/>
      </contour>
    </TTGlyph>
    <TTGlyph name="Epsilon" xMin="27" yMin="0" xMax="605" yMax="698">
      <component glyphName="E" x="0" y="0" flags="0x204"/>
    </TTGlyph>
    <TTGlyph name="Epsilontonos" xMin="53" yMin="0" xMax="678" yMax="805">
      <component glyphName="E" x="73" y="0" flags="0x4"/>
      <component glyphName="tonos.case" x="-261" y="0" flags="0x4"/>
    </TTGlyph>
    <TTGlyph name="Eta" xMin="27" yMin="0" xMax="703" yMax="698">
      <component glyphName="H" x="0" y="0" flags="0x204"/>
    </TTGlyph>
    <TTGlyph name="Etatonos" xMin="53" yMin="0" xMax="777" yMax="805">
      <component glyphName="H" x="74" y="0" flags="0x4"/>
      <component glyphName="tonos.case" x="-261" y="0" flags="0x4"/>
    </TTGlyph>
    <TTGlyph name="Eth" xMin="18" yMin="0" xMax="650" yMax="698">
      <component glyphName="Dcroat" x="0" y="0" flags="0x204"/>
    </TTGlyph>
    <TTGlyph name="Euro" xMin="56" yMin="-12" xMax="628" yMax="710">
      <contour>
        <pt x="301" y="-12" on="1"/>
        <pt x="247" y="-12" on="0"/>
        <pt x="157" y="24" on="0"/>
        <pt x="92" y="95" on="0"/>
        <pt x="56" y="201" on="0"/>
        <pt x="56" y="270" on="1"/>
        <pt x="56" y="362" on="0"/>
        <pt x="109" y="522" on="0"/>
        <pt x="203" y="641" on="0"/>
        <pt x="332" y="710" on="0"/>
        <pt x="408" y="710" on="1"/>
        <pt x="492" y="710" on="0"/>
        <pt x="603" y="642" on="0"/>
        <pt x="628" y="578" on="1"/>
        <pt x="528" y="517" on="1"/>
        <pt x="514" y="559" on="0"/>
        <pt x="454" y="605" on="0"/>
        <pt x="399" y="605" on="1"/>
        <pt x="341" y="605" on="0"/>
        <pt x="251" y="534" on="0"/>
        <pt x="227" y="471" on="1"/>
        <pt x="461" y="471" on="1"/>
        <pt x="444" y="389" on="1"/>
        <pt x="207" y="389" on="1"/>
        <pt x="190" y="309" on="1"/>
        <pt x="428" y="309" on="1"/>
        <pt x="411" y="227" on="1"/>
        <pt x="183" y="227" on="1"/>
        <pt x="187" y="163" on="0"/>
        <pt x="254" y="93" on="0"/>
        <pt x="308" y="93" on="1"/>
        <pt x="339" y="93" on="0"/>
        <pt x="388" y="109" on="0"/>
        <pt x="427" y="137" on="0"/>
        <pt x="457" y="173" on="0"/>
        <pt x="469" y="193" on="1"/>
        <pt x="548" y="125" on="1"/>
        <pt x="506" y="63" on="0"/>
        <pt x="389" y="-12" on="0"/>
      </contour>
    </TTGlyph>
    <TTGlyph name="F" xMin="27" yMin="0" xMax="593" yMax="698">
      <contour>
        <pt x="27" y="0" on="1"/>
        <pt x="167" y="698" on="1"/>
        <pt x="593" y="698" on="1"/>
        <pt x="570" y="586" on="1"/>
        <pt x="271" y="586" on="1"/>
        <pt x="235" y="407" on="1"/>
        <pt x="502" y="407" on="1"/>
        <pt x="479" y="295" on="1"/>
        <pt x="212" y="295" on="1"/>
        <pt x="153" y="0" on="1"/>
      </contour>
    </TTGlyph>
    <TTGlyph name="G" xMin="56" yMin="-12" xMax="666" yMax="710">
      <contour>
        <pt x="483" y="108" on="1"/>
        <pt x="476" y="108" on="1"/>
        <pt x="463" y="83" on="0"/>
        <pt x="427" y="40" on="0"/>
        <pt x="379" y="7" on="0"/>
        <pt x="318" y="-12" on="0"/>
        <pt x="282" y="-12" on="1"/>
        <pt x="232" y="-12" on="0"/>
        <pt x="149" y="23" on="0"/>
        <pt x="89" y="94" on="0"/>
        <pt x="56" y="198" on="0"/>
        <pt x="56" y="267" on="1"/>
        <pt x="56" y="360" on="0"/>
        <pt x="107" y="521" on="0"/>
        <pt x="202" y="641" on="0"/>
        <pt x="336" y="710" on="0"/>
        <pt x="419" y="710" on="1"/>
        <pt x="511" y="710" on="0"/>
        <pt x="643" y="625" on="0"/>
        <pt x="666" y="547" on="1"/>
        <pt x="559" y="492" on="1"/>
        <pt x="545" y="543" on="0"/>
        <pt x="468" y="597" on="0"/>
        <pt x="410" y="597" on="1"/>
        <pt x="327" y="597" on="0"/>
        <pt x="228" y="497" on="0"/>
        <pt x="211" y="410" on="1"/>
        <pt x="190" y="303" on="1"/>
        <pt x="184" y="274" on="0"/>
        <pt x="184" y="245" on="1"/>
        <pt x="184" y="172" on="0"/>
        <pt x="257" y="101" on="0"/>
        <pt x="314" y="101" on="1"/>
        <pt x="347" y="101" on="0"/>
        <pt x="407" y="120" on="0"/>
        <pt x="454" y="154" on="0"/>
        <pt x="487" y="202" on="0"/>
        <pt x="493" y="231" on="1"/>
        <pt x="501" y="271" on="1"/>
        <pt x="368" y="271" on="1"/>
        <pt x="389" y="378" on="1"/>
        <pt x="643" y="378" on="1"/>
        <pt x="567" y="0" on="1"/>
        <pt x="461" y="0" on="1"/>
      </contour>
    </TTGlyph>
    <TTGlyph name="Gamma" xMin="27" yMin="0" xMax="554" yMax="698">
      <component glyphName="uni0413" x="0" y="0" flags="0x204"/>
    </TTGlyph>
    <TTGlyph name="Gbreve" xMin="56" yMin="-12" xMax="666" yMax="942">
      <component glyphName="G" x="0" y="0" flags="0x204"/>
      <component glyphName="breve.case" x="132" y="0" flags="0x4"/>
    </TTGlyph>
    <TTGlyph name="Gcircumflex" xMin="56" yMin="-12" xMax="666" yMax="948">
      <component glyphName="G" x="0" y="0" flags="0x204"/>
      <component glyphName="circumflex.case" x="132" y="0" flags="0x4"/>
    </TTGlyph>
    <TTGlyph name="Gcommaaccent" xMin="56" yMin="-266" xMax="666" yMax="710">
      <component glyphName="G" x="0" y="0" flags="0x204"/>
      <component glyphName="uni0326" x="286" y="0" flags="0x4"/>
    </TTGlyph>
    <TTGlyph name="Gdotaccent" xMin="56" yMin="-12" xMax="666" yMax="912">
      <component glyphName="G" x="0" y="0" flags="0x204"/>
      <component glyphName="dotaccent.case" x="132" y="0" flags="0x4"/>
    </TTGlyph>
    <TTGlyph name="H" xMin="27" yMin="0" xMax="703" yMax="698">
      <contour>
        <pt x="496" y="295" on="1"/>
        <pt x="212" y="295" on="1"/>
        <pt x="153" y="0" on="1"/>
        <pt x="27" y="0" on="1"/>
        <pt x="167" y="698" on="1"/>
        <pt x="293" y="698" on="1"/>
        <pt x="235" y="407" on="1"/>
        <pt x="519" y="407" on="1"/>
        <pt x="577" y="698" on="1"/>
        <pt x="703" y="698" on="1"/>
        <pt x="563" y="0" on="1"/>
        <pt x="437" y="0" on="1"/>
      </contour>
    </TTGlyph>
    <TTGlyph name="Hbar" xMin="32" yMin="0" xMax="759" yMax="698">
      <contour>
        <pt x="501" y="295" on="1"/>
        <pt x="217" y="295" on="1"/>
        <pt x="158" y="0" on="1"/>
        <pt x="32" y="0" on="1"/>
        <pt x="135" y="515" on="1"/>
        <pt x="64" y="515" on="1"/>
        <pt x="83" y="609" on="1"/>
        <pt x="154" y="609" on="1"/>
        <pt x="172" y="698" on="1"/>
        <pt x="298" y="698" on="1"/>
        <pt x="280" y="609" on="1"/>
        <pt x="564" y="609" on="1"/>
        <pt x="582" y="698" on="1"/>
        <pt x="708" y="698" on="1"/>
        <pt x="690" y="609" on="1"/>
        <pt x="759" y="609" on="1"/>
        <pt x="741" y="515" on="1"/>
        <pt x="671" y="515" on="1"/>
        <pt x="568" y="0" on="1"/>
        <pt x="442" y="0" on="1"/>
      </contour>
      <contour>
        <pt x="524" y="407" on="1"/>
        <pt x="546" y="515" on="1"/>
        <pt x="262" y="515" on="1"/>
        <pt x="240" y="407" on="1"/>
      </contour>
    </TTGlyph>
    <TTGlyph name="Hcircumflex" xMin="27" yMin="0" xMax="703" yMax="948">
      <component glyphName="H" x="0" y="0" flags="0x204"/>
      <component glyphName="circumflex.case" x="135" y="0" flags="0x4"/>
    </TTGlyph>
    <TTGlyph name="I" xMin="0" yMin="0" xMax="442" yMax="698">
      <contour>
        <pt x="0" y="0" on="1"/>
        <pt x="21" y="104" on="1"/>
        <pt x="109" y="104" on="1"/>
        <pt x="207" y="594" on="1"/>
        <pt x="119" y="594" on="1"/>
        <pt x="140" y="698" on="1"/>
        <pt x="442" y="698" on="1"/>
        <pt x="421" y="594" on="1"/>
        <pt x="333" y="594" on="1"/>
        <pt x="235" y="104" on="1"/>
        <pt x="323" y="104" on="1"/>
        <pt x="302" y="0" on="1"/>
      </contour>
    </TTGlyph>
    <TTGlyph name="IJ" xMin="67" yMin="-12" xMax="650" yMax="698">
      <contour>
        <pt x="650" y="698" on="1"/>
        <pt x="554" y="217" on="1"/>
        <pt x="532" y="110" on="0"/>
        <pt x="392" y="-12" on="0"/>
        <pt x="281" y="-12" on="1"/>
        <pt x="233" y="-12" on="0"/>
        <pt x="155" y="15" on="0"/>
        <pt x="99" y="64" on="0"/>
        <pt x="68" y="132" on="0"/>
        <pt x="67" y="174" on="1"/>
        <pt x="187" y="197" on="1"/>
        <pt x="187" y="149" on="0"/>
        <pt x="240" y="100" on="0"/>
        <pt x="289" y="100" on="1"/>
        <pt x="344" y="100" on="0"/>
        <pt x="416" y="158" on="0"/>
        <pt x="428" y="220" on="1"/>
        <pt x="503" y="593" on="1"/>
        <pt x="394" y="593" on="1"/>
        <pt x="415" y="698" on="1"/>
      </contour>
      <contour>
        <pt x="167" y="698" on="1"/>
        <pt x="293" y="698" on="1"/>
        <pt x="214" y="303" on="1"/>
        <pt x="88" y="303" on="1"/>
      </contour>
    </TTGlyph>
    <TTGlyph name="IJacute" xMin="67" yMin="-12" xMax="702" yMax="968">
      <component glyphName="IJ" x="0" y="0" flags="0x4"/>
      <component glyphName="acute.case" x="-61" y="0" flags="0x4"/>
      <component glyphName="acute.case" x="242" y="0" flags="0x4"/>
    </TTGlyph>
    <TTGlyph name="Iacute" xMin="0" yMin="0" xMax="458" yMax="968">
      <component glyphName="I" x="0" y="0" flags="0x204"/>
      <component glyphName="acute.case" x="-2" y="0" flags="0x4"/>
    </TTGlyph>
    <TTGlyph name="Ibreve" xMin="0" yMin="0" xMax="507" yMax="942">
      <component glyphName="I" x="0" y="0" flags="0x204"/>
      <component glyphName="breve.case" x="-2" y="0" flags="0x4"/>
    </TTGlyph>
    <TTGlyph name="Icircumflex" xMin="0" yMin="0" xMax="484" yMax="948">
      <component glyphName="I" x="0" y="0" flags="0x204"/>
      <component glyphName="circumflex.case" x="-2" y="0" flags="0x4"/>
    </TTGlyph>
    <TTGlyph name="Idieresis" xMin="0" yMin="0" xMax="484" yMax="905">
      <component glyphName="I" x="0" y="0" flags="0x204"/>
      <component glyphName="dieresis.case" x="-2" y="0" flags="0x4"/>
    </TTGlyph>
    <TTGlyph name="Idotaccent" xMin="0" yMin="0" xMax="442" yMax="912">
      <component glyphName="I" x="0" y="0" flags="0x204"/>
      <component glyphName="dotaccent.case" x="-2" y="0" flags="0x4"/>
    </TTGlyph>
    <TTGlyph name="Igrave" xMin="0" yMin="0" xMax="442" yMax="967">
      <component glyphName="I" x="0" y="0" flags="0x204"/>
      <component glyphName="grave.case" x="-2" y="0" flags="0x4"/>
    </TTGlyph>
    <TTGlyph name="Imacron" xMin="0" yMin="0" xMax="465" yMax="884">
      <component glyphName="I" x="0" y="0" flags="0x204"/>
      <component glyphName="macron.case" x="-2" y="0" flags="0x4"/>
    </TTGlyph>
    <TTGlyph name="Iogonek" xMin="0" yMin="-210" xMax="442" yMax="698">
      <contour>
        <pt x="21" y="104" on="1"/>
        <pt x="109" y="104" on="1"/>
        <pt x="207" y="594" on="1"/>
        <pt x="119" y="594" on="1"/>
        <pt x="140" y="698" on="1"/>
        <pt x="442" y="698" on="1"/>
        <pt x="421" y="594" on="1"/>
        <pt x="333" y="594" on="1"/>
        <pt x="235" y="104" on="1"/>
        <pt x="323" y="104" on="1"/>
        <pt x="302" y="0" on="1"/>
        <pt x="261" y="-25" on="0"/>
        <pt x="214" y="-61" on="0"/>
        <pt x="190" y="-88" on="0"/>
        <pt x="184" y="-107" on="0"/>
        <pt x="184" y="-114" on="1"/>
        <pt x="184" y="-128" on="0"/>
        <pt x="200" y="-144" on="0"/>
        <pt x="218" y="-144" on="1"/>
        <pt x="233" y="-144" on="0"/>
        <pt x="261" y="-132" on="0"/>
        <pt x="272" y="-117" on="1"/>
        <pt x="320" y="-165" on="1"/>
        <pt x="303" y="-185" on="0"/>
        <pt x="247" y="-210" on="0"/>
        <pt x="203" y="-210" on="1"/>
        <pt x="157" y="-210" on="0"/>
        <pt x="91" y="-171" on="0"/>
        <pt x="91" y="-130" on="1"/>
        <pt x="91" y="-91" on="0"/>
        <pt x="157" y="-26" on="0"/>
        <pt x="225" y="-5" on="1"/>
        <pt x="224" y="0" on="1"/>
        <pt x="0" y="0" on="1"/>
      </contour>
    </TTGlyph>
    <TTGlyph name="Iota" xMin="0" yMin="0" xMax="442" yMax="698">
      <component glyphName="I" x="0" y="0" flags="0x4"/>
    </TTGlyph>
    <TTGlyph name="Iotadieresis" xMin="0" yMin="0" xMax="485" yMax="905">
      <component glyphName="I" x="0" y="0" flags="0x4"/>
      <component glyphName="dieresis.case" x="-1" y="0" flags="0x4"/>
    </TTGlyph>
    <TTGlyph name="Iotatonos" xMin="53" yMin="0" xMax="544" yMax="805">
      <component glyphName="I" x="102" y="0" flags="0x4"/>
      <component glyphName="tonos.case" x="-261" y="0" flags="0x4"/>
    </TTGlyph>
    <TTGlyph name="Itilde" xMin="0" yMin="0" xMax="494" yMax="906">
      <component glyphName="I" x="0" y="0" flags="0x204"/>
      <component glyphName="tilde.case" x="-2" y="0" flags="0x4"/>
    </TTGlyph>
    <TTGlyph name="J" xMin="4" yMin="-12" xMax="533" yMax="698">
      <contour>
        <pt x="533" y="698" on="1"/>
        <pt x="431" y="188" on="1"/>
        <pt x="412" y="95" on="0"/>
        <pt x="298" y="-12" on="0"/>
        <pt x="202" y="-12" on="1"/>
        <pt x="155" y="-12" on="0"/>
        <pt x="84" y="16" on="0"/>
        <pt x="35" y="65" on="0"/>
        <pt x="7" y="132" on="0"/>
        <pt x="4" y="172" on="1"/>
        <pt x="124" y="196" on="1"/>
        <pt x="127" y="153" on="0"/>
        <pt x="162" y="100" on="0"/>
        <pt x="203" y="100" on="1"/>
        <pt x="244" y="100" on="0"/>
        <pt x="297" y="151" on="0"/>
        <pt x="308" y="204" on="1"/>
        <pt x="386" y="593" on="1"/>
        <pt x="173" y="593" on="1"/>
        <pt x="194" y="698" on="1"/>
      </contour>
    </TTGlyph>
    <TTGlyph name="Jacute" xMin="4" yMin="-12" xMax="533" yMax="968">
      <component glyphName="J" x="0" y="0" flags="0x4"/>
      <component glyphName="acute.case" x="73" y="0" flags="0x4"/>
    </TTGlyph>
    <TTGlyph name="Jcircumflex" xMin="4" yMin="-12" xMax="559" yMax="948">
      <component glyphName="J" x="0" y="0" flags="0x4"/>
      <component glyphName="circumflex.case" x="73" y="0" flags="0x4"/>
    </TTGlyph>
    <TTGlyph name="K" xMin="27" yMin="0" xMax="705" yMax="698">
      <contour>
        <pt x="311" y="312" on="1"/>
        <pt x="192" y="194" on="1"/>
        <pt x="153" y="0" on="1"/>
        <pt x="27" y="0" on="1"/>
        <pt x="167" y="698" on="1"/>
        <pt x="293" y="698" on="1"/>
        <pt x="225" y="357" on="1"/>
        <pt x="232" y="357" on="1"/>
        <pt x="344" y="484" on="1"/>
        <pt x="550" y="698" on="1"/>
        <pt x="705" y="698" on="1"/>
        <pt x="409" y="397" on="1"/>
        <pt x="582" y="0" on="1"/>
        <pt x="443" y="0" on="1"/>
      </contour>
    </TTGlyph>
    <TTGlyph name="Kappa" xMin="27" yMin="0" xMax="705" yMax="698">
      <component glyphName="K" x="0" y="0" flags="0x204"/>
    </TTGlyph>
    <TTGlyph name="Kcommaaccent" xMin="27" yMin="-266" xMax="705" yMax="698">
      <component glyphName="K" x="0" y="0" flags="0x204"/>
      <component glyphName="uni0326" x="286" y="0" flags="0x4"/>
    </TTGlyph>
    <TTGlyph name="L" xMin="27" yMin="0" xMax="441" yMax="698">
      <contour>
        <pt x="27" y="0" on="1"/>
        <pt x="167" y="698" on="1"/>
        <pt x="293" y="698" on="1"/>
        <pt x="176" y="112" on="1"/>
        <pt x="441" y="112" on="1"/>
        <pt x="419" y="0" on="1"/>
      </contour>
    </TTGlyph>
    <TTGlyph name="Lacute" xMin="27" yMin="0" xMax="441" yMax="968">
      <component glyphName="L" x="0" y="0" flags="0x204"/>
      <component glyphName="acute.case" x="-61" y="0" flags="0x4"/>
    </TTGlyph>
    <TTGlyph name="Lambda" xMin="-33" yMin="0" xMax="560" yMax="698">
      <contour>
        <pt x="476" y="698" on="1"/>
        <pt x="560" y="0" on="1"/>
        <pt x="433" y="0" on="1"/>
        <pt x="403" y="293" on="1"/>
        <pt x="381" y="567" on="1"/>
        <pt x="375" y="567" on="1"/>
        <pt x="255" y="310" on="1"/>
        <pt x="101" y="0" on="1"/>
        <pt x="-33" y="0" on="1"/>
        <pt x="330" y="698" on="1"/>
      </contour>
    </TTGlyph>
    <TTGlyph name="Lcaron" xMin="27" yMin="0" xMax="514" yMax="740">
      <component glyphName="L" x="0" y="0" flags="0x204"/>
      <component glyphName="uni02BC" x="77" y="0" flags="0x4"/>
    </TTGlyph>
    <TTGlyph name="Lcommaaccent" xMin="27" yMin="-266" xMax="441" yMax="698">
      <component glyphName="L" x="0" y="0" flags="0x204"/>
      <component glyphName="uni0326" x="223" y="0" flags="0x4"/>
    </TTGlyph>
    <TTGlyph name="Ldot" xMin="27" yMin="0" xMax="493" yMax="698">
      <component glyphName="L" x="0" y="0" flags="0x204"/>
      <component glyphName="dotaccent" x="97" y="-294" flags="0x4"/>
    </TTGlyph>
    <TTGlyph name="Lslash" xMin="-4" yMin="0" xMax="447" yMax="698">
      <contour>
        <pt x="425" y="0" on="1"/>
        <pt x="33" y="0" on="1"/>
        <pt x="84" y="254" on="1"/>
        <pt x="-4" y="228" on="1"/>
        <pt x="16" y="326" on="1"/>
        <pt x="104" y="353" on="1"/>
        <pt x="173" y="698" on="1"/>
        <pt x="299" y="698" on="1"/>
        <pt x="238" y="393" on="1"/>
        <pt x="413" y="447" on="1"/>
        <pt x="393" y="346" on="1"/>
        <pt x="218" y="293" on="1"/>
        <pt x="182" y="112" on="1"/>
        <pt x="447" y="112" on="1"/>
      </contour>
    </TTGlyph>
    <TTGlyph name="M" xMin="27" yMin="0" xMax="804" yMax="698">
      <contour>
        <pt x="643" y="498" on="1"/>
        <pt x="637" y="498" on="1"/>
        <pt x="546" y="369" on="1"/>
        <pt x="373" y="130" on="1"/>
        <pt x="291" y="379" on="1"/>
        <pt x="253" y="499" on="1"/>
        <pt x="248" y="499" on="1"/>
        <pt x="148" y="0" on="1"/>
        <pt x="27" y="0" on="1"/>
        <pt x="167" y="698" on="1"/>
        <pt x="305" y="698" on="1"/>
        <pt x="411" y="352" on="1"/>
        <pt x="415" y="352" on="1"/>
        <pt x="657" y="698" on="1"/>
        <pt x="804" y="698" on="1"/>
        <pt x="664" y="0" on="1"/>
        <pt x="543" y="0" on="1"/>
      </contour>
    </TTGlyph>
    <TTGlyph name="Mu" xMin="27" yMin="0" xMax="804" yMax="698">
      <component glyphName="M" x="0" y="0" flags="0x204"/>
    </TTGlyph>
    <TTGlyph name="N" xMin="27" yMin="0" xMax="703" yMax="698">
      <contour>
        <pt x="300" y="361" on="1"/>
        <pt x="254" y="508" on="1"/>
        <pt x="249" y="508" on="1"/>
        <pt x="147" y="0" on="1"/>
        <pt x="27" y="0" on="1"/>
        <pt x="167" y="698" on="1"/>
        <pt x="305" y="698" on="1"/>
        <pt x="430" y="337" on="1"/>
        <pt x="476" y="190" on="1"/>
        <pt x="481" y="190" on="1"/>
        <pt x="583" y="698" on="1"/>
        <pt x="703" y="698" on="1"/>
        <pt x="563" y="0" on="1"/>
        <pt x="425" y="0" on="1"/>
      </contour>
    </TTGlyph>
    <TTGlyph name="Nacute" xMin="27" yMin="0" xMax="703" yMax="968">
      <component glyphName="N" x="0" y="0" flags="0x204"/>
      <component glyphName="acute.case" x="142" y="0" flags="0x4"/>
    </TTGlyph>
    <TTGlyph name="Ncaron" xMin="27" yMin="0" xMax="703" yMax="957">
      <component glyphName="N" x="0" y="0" flags="0x204"/>
      <component glyphName="caron.case" x="142" y="0" flags="0x4"/>
    </TTGlyph>
    <TTGlyph name="Ncommaaccent" xMin="27" yMin="-266" xMax="703" yMax="698">
      <component glyphName="N" x="0" y="0" flags="0x204"/>
      <component glyphName="uni0326" x="295" y="0" flags="0x4"/>
    </TTGlyph>
    <TTGlyph name="Ntilde" xMin="27" yMin="0" xMax="703" yMax="906">
      <component glyphName="N" x="0" y="0" flags="0x204"/>
      <component glyphName="tilde.case" x="142" y="0" flags="0x4"/>
    </TTGlyph>
    <TTGlyph name="Nu" xMin="27" yMin="0" xMax="703" yMax="698">
      <component glyphName="N" x="0" y="0" flags="0x204"/>
    </TTGlyph>
    <TTGlyph name="O" xMin="56" yMin="-12" xMax="664" yMax="710">
      <contour>
        <pt x="306" y="-12" on="1"/>
        <pt x="255" y="-12" on="0"/>
        <pt x="165" y="21" on="0"/>
        <pt x="96" y="90" on="0"/>
        <pt x="56" y="196" on="0"/>
        <pt x="56" y="268" on="1"/>
        <pt x="56" y="357" on="0"/>
        <pt x="108" y="518" on="0"/>
        <pt x="203" y="639" on="0"/>
        <pt x="335" y="710" on="0"/>
        <pt x="415" y="710" on="1"/>
        <pt x="466" y="710" on="0"/>
        <pt x="556" y="676" on="0"/>
        <pt x="624" y="607" on="0"/>
        <pt x="664" y="502" on="0"/>
        <pt x="664" y="430" on="1"/>
        <pt x="664" y="341" on="0"/>
        <pt x="612" y="180" on="0"/>
        <pt x="518" y="59" on="0"/>
        <pt x="386" y="-12" on="0"/>
      </contour>
      <contour>
        <pt x="315" y="101" on="1"/>
        <pt x="391" y="101" on="0"/>
        <pt x="491" y="202" on="0"/>
        <pt x="509" y="294" on="1"/>
        <pt x="530" y="398" on="1"/>
        <pt x="534" y="415" on="0"/>
        <pt x="536" y="444" on="0"/>
        <pt x="536" y="456" on="1"/>
        <pt x="536" y="524" on="0"/>
        <pt x="469" y="597" on="0"/>
        <pt x="405" y="597" on="1"/>
        <pt x="329" y="597" on="0"/>
        <pt x="229" y="496" on="0"/>
        <pt x="211" y="404" on="1"/>
        <pt x="190" y="300" on="1"/>
        <pt x="186" y="283" on="0"/>
        <pt x="184" y="254" on="0"/>
        <pt x="184" y="242" on="1"/>
        <pt x="184" y="174" on="0"/>
        <pt x="251" y="101" on="0"/>
      </contour>
    </TTGlyph>
    <TTGlyph name="OE" xMin="56" yMin="-12" xMax="983" yMax="710">
      <contour>
        <pt x="407" y="0" on="1"/>
        <pt x="381" y="-5" on="0"/>
        <pt x="330" y="-12" on="0"/>
        <pt x="306" y="-12" on="1"/>
        <pt x="255" y="-12" on="0"/>
        <pt x="165" y="21" on="0"/>
        <pt x="96" y="90" on="0"/>
        <pt x="56" y="196" on="0"/>
        <pt x="56" y="268" on="1"/>
        <pt x="56" y="357" on="0"/>
        <pt x="108" y="518" on="0"/>
        <pt x="203" y="639" on="0"/>
        <pt x="335" y="710" on="0"/>
        <pt x="415" y="710" on="1"/>
        <pt x="448" y="710" on="0"/>
        <pt x="514" y="704" on="0"/>
        <pt x="549" y="698" on="1"/>
        <pt x="983" y="698" on="1"/>
        <pt x="960" y="586" on="1"/>
        <pt x="649" y="586" on="1"/>
        <pt x="613" y="407" on="1"/>
        <pt x="889" y="407" on="1"/>
        <pt x="867" y="295" on="1"/>
        <pt x="591" y="295" on="1"/>
        <pt x="554" y="112" on="1"/>
        <pt x="877" y="112" on="1"/>
        <pt x="855" y="0" on="1"/>
      </contour>
      <contour>
        <pt x="320" y="101" on="1"/>
        <pt x="347" y="101" on="0"/>
        <pt x="403" y="107" on="0"/>
        <pt x="428" y="114" on="1"/>
        <pt x="522" y="584" on="1"/>
        <pt x="500" y="590" on="0"/>
        <pt x="438" y="597" on="0"/>
        <pt x="415" y="597" on="1"/>
        <pt x="327" y="597" on="0"/>
        <pt x="230" y="496" on="0"/>
        <pt x="211" y="404" on="1"/>
        <pt x="190" y="300" on="1"/>
        <pt x="186" y="283" on="0"/>
        <pt x="184" y="254" on="0"/>
        <pt x="184" y="242" on="1"/>
        <pt x="184" y="174" on="0"/>
        <pt x="252" y="101" on="0"/>
      </contour>
    </TTGlyph>
    <TTGlyph name="Oacute" xMin="56" yMin="-12" xMax="664" yMax="968">
      <component glyphName="O" x="0" y="0" flags="0x204"/>
      <component glyphName="acute.case" x="137" y="0" flags="0x4"/>
    </TTGlyph>
    <TTGlyph name="Obreve" xMin="56" yMin="-12" xMax="664" yMax="942">
      <component glyphName="O" x="0" y="0" flags="0x204"/>
      <component glyphName="breve.case" x="137" y="0" flags="0x4"/>
    </TTGlyph>
    <TTGlyph name="Ocircumflex" xMin="56" yMin="-12" xMax="664" yMax="948">
      <component glyphName="O" x="0" y="0" flags="0x204"/>
      <component glyphName="circumflex.case" x="137" y="0" flags="0x4"/>
    </TTGlyph>
    <TTGlyph name="Odieresis" xMin="56" yMin="-12" xMax="664" yMax="905">
      <component glyphName="O" x="0" y="0" flags="0x204"/>
      <component glyphName="dieresis.case" x="137" y="0" flags="0x4"/>
    </TTGlyph>
    <TTGlyph name="Ograve" xMin="56" yMin="-12" xMax="664" yMax="967">
      <component glyphName="O" x="0" y="0" flags="0x204"/>
      <component glyphName="grave.case" x="137" y="0" flags="0x4"/>
    </TTGlyph>
    <TTGlyph name="Ohorn" xMin="56" yMin="-12" xMax="760" yMax="806">
      <contour>
        <pt x="760" y="806" on="1"/>
        <pt x="740" y="707" on="1"/>
        <pt x="731" y="661" on="0"/>
        <pt x="686" y="621" on="0"/>
        <pt x="634" y="621" on="1"/>
        <pt x="607" y="621" on="1"/>
        <pt x="634" y="586" on="0"/>
        <pt x="664" y="491" on="0"/>
        <pt x="664" y="430" on="1"/>
        <pt x="664" y="341" on="0"/>
        <pt x="612" y="180" on="0"/>
        <pt x="518" y="59" on="0"/>
        <pt x="386" y="-12" on="0"/>
        <pt x="306" y="-12" on="1"/>
        <pt x="255" y="-12" on="0"/>
        <pt x="165" y="21" on="0"/>
        <pt x="96" y="90" on="0"/>
        <pt x="56" y="196" on="0"/>
        <pt x="56" y="268" on="1"/>
        <pt x="56" y="357" on="0"/>
        <pt x="108" y="518" on="0"/>
        <pt x="203" y="639" on="0"/>
        <pt x="335" y="710" on="0"/>
        <pt x="415" y="710" on="1"/>
        <pt x="458" y="710" on="0"/>
        <pt x="497" y="698" on="1"/>
        <pt x="630" y="698" on="1"/>
        <pt x="652" y="806" on="1"/>
      </contour>
      <contour>
        <pt x="315" y="101" on="1"/>
        <pt x="391" y="101" on="0"/>
        <pt x="491" y="202" on="0"/>
        <pt x="509" y="294" on="1"/>
        <pt x="530" y="398" on="1"/>
        <pt x="534" y="417" on="0"/>
        <pt x="536" y="444" on="0"/>
        <pt x="536" y="456" on="1"/>
        <pt x="536" y="524" on="0"/>
        <pt x="469" y="597" on="0"/>
        <pt x="405" y="597" on="1"/>
        <pt x="329" y="597" on="0"/>
        <pt x="229" y="496" on="0"/>
        <pt x="211" y="404" on="1"/>
        <pt x="190" y="300" on="1"/>
        <pt x="186" y="281" on="0"/>
        <pt x="184" y="254" on="0"/>
        <pt x="184" y="242" on="1"/>
        <pt x="184" y="174" on="0"/>
        <pt x="251" y="101" on="0"/>
      </contour>
    </TTGlyph>
    <TTGlyph name="Ohungarumlaut" xMin="56" yMin="-12" xMax="676" yMax="965">
      <component glyphName="O" x="0" y="0" flags="0x204"/>
      <component glyphName="hungarumlaut.case" x="137" y="0" flags="0x4"/>
    </TTGlyph>
    <TTGlyph name="Omacron" xMin="56" yMin="-12" xMax="664" yMax="884">
      <component glyphName="O" x="0" y="0" flags="0x204"/>
      <component glyphName="macron.case" x="137" y="0" flags="0x4"/>
    </TTGlyph>
    <TTGlyph name="Omega" xMin="-10" yMin="0" xMax="668" yMax="710">
      <contour>
        <pt x="12" y="112" on="1"/>
        <pt x="169" y="112" on="1"/>
        <pt x="171" y="123" on="1"/>
        <pt x="122" y="154" on="0"/>
        <pt x="72" y="266" on="0"/>
        <pt x="72" y="344" on="1"/>
        <pt x="72" y="419" on="0"/>
        <pt x="122" y="552" on="0"/>
        <pt x="213" y="652" on="0"/>
        <pt x="340" y="710" on="0"/>
        <pt x="417" y="710" on="1"/>
        <pt x="475" y="710" on="0"/>
        <pt x="568" y="672" on="0"/>
        <pt x="633" y="604" on="0"/>
        <pt x="668" y="509" on="0"/>
        <pt x="668" y="452" on="1"/>
        <pt x="668" y="399" on="0"/>
        <pt x="644" y="298" on="0"/>
        <pt x="593" y="211" on="0"/>
        <pt x="515" y="143" on="0"/>
        <pt x="461" y="123" on="1"/>
        <pt x="459" y="112" on="1"/>
        <pt x="615" y="112" on="1"/>
        <pt x="592" y="0" on="1"/>
        <pt x="342" y="0" on="1"/>
        <pt x="377" y="168" on="1"/>
        <pt x="434" y="185" on="0"/>
        <pt x="506" y="274" on="0"/>
        <pt x="517" y="331" on="1"/>
        <pt x="535" y="424" on="1"/>
        <pt x="540" y="446" on="0"/>
        <pt x="540" y="468" on="1"/>
        <pt x="540" y="494" on="0"/>
        <pt x="523" y="540" on="0"/>
        <pt x="489" y="575" on="0"/>
        <pt x="438" y="595" on="0"/>
        <pt x="404" y="595" on="1"/>
        <pt x="364" y="595" on="0"/>
        <pt x="300" y="568" on="0"/>
        <pt x="253" y="522" on="0"/>
        <pt x="222" y="461" on="0"/>
        <pt x="216" y="426" on="1"/>
        <pt x="201" y="351" on="1"/>
        <pt x="199" y="337" on="0"/>
        <pt x="196" y="310" on="0"/>
        <pt x="196" y="297" on="1"/>
        <pt x="196" y="254" on="0"/>
        <pt x="239" y="182" on="0"/>
        <pt x="274" y="168" on="1"/>
        <pt x="239" y="0" on="1"/>
        <pt x="-10" y="0" on="1"/>
      </contour>
    </TTGlyph>
    <TTGlyph name="Omegatonos" xMin="40" yMin="0" xMax="718" yMax="805">
      <component glyphName="Omega" x="50" y="0" flags="0x4"/>
      <component glyphName="tonos.case" x="-261" y="0" flags="0x4"/>
    </TTGlyph>
    <TTGlyph name="Omicron" xMin="56" yMin="-12" xMax="664" yMax="710">
      <component glyphName="O" x="0" y="0" flags="0x204"/>
    </TTGlyph>
    <TTGlyph name="Omicrontonos" xMin="53" yMin="-12" xMax="706" yMax="805">
      <component glyphName="O" x="42" y="0" flags="0x4"/>
      <component glyphName="tonos.case" x="-261" y="0" flags="0x4"/>
    </TTGlyph>
    <TTGlyph name="Oslash" xMin="3" yMin="-56" xMax="717" yMax="754">
      <contour>
        <pt x="306" y="-12" on="1"/>
        <pt x="262" y="-12" on="0"/>
        <pt x="183" y="12" on="0"/>
        <pt x="151" y="37" on="1"/>
        <pt x="72" y="-56" on="1"/>
        <pt x="3" y="4" on="1"/>
        <pt x="92" y="108" on="1"/>
        <pt x="75" y="140" on="0"/>
        <pt x="56" y="219" on="0"/>
        <pt x="56" y="268" on="1"/>
        <pt x="56" y="357" on="0"/>
        <pt x="108" y="518" on="0"/>
        <pt x="203" y="639" on="0"/>
        <pt x="335" y="710" on="0"/>
        <pt x="415" y="710" on="1"/>
        <pt x="459" y="710" on="0"/>
        <pt x="537" y="686" on="0"/>
        <pt x="569" y="661" on="1"/>
        <pt x="648" y="754" on="1"/>
        <pt x="717" y="694" on="1"/>
        <pt x="628" y="590" on="1"/>
        <pt x="645" y="558" on="0"/>
        <pt x="664" y="479" on="0"/>
        <pt x="664" y="430" on="1"/>
        <pt x="664" y="341" on="0"/>
        <pt x="612" y="180" on="0"/>
        <pt x="518" y="59" on="0"/>
        <pt x="386" y="-12" on="0"/>
      </contour>
      <contour>
        <pt x="187" y="299" on="1"/>
        <pt x="183" y="282" on="0"/>
        <pt x="180" y="252" on="0"/>
        <pt x="180" y="239" on="1"/>
        <pt x="180" y="219" on="0"/>
        <pt x="184" y="204" on="1"/>
        <pt x="498" y="568" on="1"/>
        <pt x="462" y="601" on="0"/>
        <pt x="406" y="601" on="1"/>
        <pt x="328" y="601" on="0"/>
        <pt x="227" y="499" on="0"/>
        <pt x="208" y="405" on="1"/>
      </contour>
      <contour>
        <pt x="314" y="97" on="1"/>
        <pt x="392" y="97" on="0"/>
        <pt x="493" y="199" on="0"/>
        <pt x="512" y="293" on="1"/>
        <pt x="533" y="399" on="1"/>
        <pt x="537" y="416" on="0"/>
        <pt x="540" y="446" on="0"/>
        <pt x="540" y="459" on="1"/>
        <pt x="540" y="479" on="0"/>
        <pt x="536" y="494" on="1"/>
        <pt x="222" y="130" on="1"/>
        <pt x="258" y="97" on="0"/>
      </contour>
    </TTGlyph>
    <TTGlyph name="Oslashacute" xMin="3" yMin="-56" xMax="717" yMax="968">
      <component glyphName="Oslash" x="0" y="0" flags="0x204"/>
      <component glyphName="acute.case" x="127" y="0" flags="0x4"/>
    </TTGlyph>
    <TTGlyph name="Otilde" xMin="56" yMin="-12" xMax="664" yMax="906">
      <component glyphName="O" x="0" y="0" flags="0x204"/>
      <component glyphName="tilde.case" x="137" y="0" flags="0x4"/>
    </TTGlyph>
    <TTGlyph name="P" xMin="27" yMin="0" xMax="632" yMax="698">
      <contour>
        <pt x="27" y="0" on="1"/>
        <pt x="167" y="698" on="1"/>
        <pt x="426" y="698" on="1"/>
        <pt x="527" y="698" on="0"/>
        <pt x="632" y="601" on="0"/>
        <pt x="632" y="517" on="1"/>
        <pt x="632" y="462" on="0"/>
        <pt x="594" y="370" on="0"/>
        <pt x="525" y="304" on="0"/>
        <pt x="430" y="267" on="0"/>
        <pt x="372" y="267" on="1"/>
        <pt x="207" y="267" on="1"/>
        <pt x="153" y="0" on="1"/>
      </contour>
      <contour>
        <pt x="229" y="379" on="1"/>
        <pt x="389" y="379" on="1"/>
        <pt x="427" y="379" on="0"/>
        <pt x="482" y="419" on="0"/>
        <pt x="490" y="460" on="1"/>
        <pt x="495" y="486" on="0"/>
        <pt x="502" y="516" on="0"/>
        <pt x="502" y="525" on="1"/>
        <pt x="502" y="551" on="0"/>
        <pt x="467" y="586" on="0"/>
        <pt x="428" y="586" on="1"/>
        <pt x="271" y="586" on="1"/>
      </contour>
    </TTGlyph>
    <TTGlyph name="Phi" xMin="48" yMin="-40" xMax="797" yMax="736">
      <contour>
        <pt x="295" y="32" on="1"/>
        <pt x="291" y="32" on="1"/>
        <pt x="236" y="32" on="0"/>
        <pt x="147" y="66" on="0"/>
        <pt x="83" y="129" on="0"/>
        <pt x="48" y="220" on="0"/>
        <pt x="48" y="277" on="1"/>
        <pt x="48" y="365" on="0"/>
        <pt x="98" y="512" on="0"/>
        <pt x="193" y="617" on="0"/>
        <pt x="332" y="676" on="0"/>
        <pt x="421" y="676" on="1"/>
        <pt x="424" y="676" on="1"/>
        <pt x="436" y="736" on="1"/>
        <pt x="562" y="736" on="1"/>
        <pt x="550" y="676" on="1"/>
        <pt x="554" y="676" on="1"/>
        <pt x="609" y="676" on="0"/>
        <pt x="699" y="642" on="0"/>
        <pt x="763" y="579" on="0"/>
        <pt x="797" y="488" on="0"/>
        <pt x="797" y="431" on="1"/>
        <pt x="797" y="343" on="0"/>
        <pt x="748" y="196" on="0"/>
        <pt x="653" y="91" on="0"/>
        <pt x="514" y="32" on="0"/>
        <pt x="424" y="32" on="1"/>
        <pt x="421" y="32" on="1"/>
        <pt x="407" y="-40" on="1"/>
        <pt x="281" y="-40" on="1"/>
      </contour>
      <contour>
        <pt x="405" y="572" on="1"/>
        <pt x="402" y="572" on="1"/>
        <pt x="320" y="572" on="0"/>
        <pt x="210" y="480" on="0"/>
        <pt x="190" y="381" on="1"/>
        <pt x="180" y="334" on="1"/>
        <pt x="178" y="320" on="0"/>
        <pt x="175" y="291" on="0"/>
        <pt x="175" y="274" on="1"/>
        <pt x="175" y="202" on="0"/>
        <pt x="244" y="136" on="0"/>
        <pt x="315" y="136" on="1"/>
        <pt x="318" y="136" on="1"/>
      </contour>
      <contour>
        <pt x="443" y="136" on="1"/>
        <pt x="525" y="136" on="0"/>
        <pt x="635" y="228" on="0"/>
        <pt x="655" y="327" on="1"/>
        <pt x="665" y="374" on="1"/>
        <pt x="667" y="388" on="0"/>
        <pt x="670" y="417" on="0"/>
        <pt x="670" y="434" on="1"/>
        <pt x="670" y="506" on="0"/>
        <pt x="601" y="572" on="0"/>
        <pt x="530" y="572" on="1"/>
        <pt x="527" y="572" on="1"/>
        <pt x="440" y="136" on="1"/>
      </contour>
    </TTGlyph>
    <TTGlyph name="Pi" xMin="27" yMin="0" xMax="688" yMax="698">
      <component glyphName="uni041F" x="0" y="0" flags="0x204"/>
    </TTGlyph>
    <TTGlyph name="Psi" xMin="101" yMin="0" xMax="817" yMax="698">
      <contour>
        <pt x="319" y="184" on="1"/>
        <pt x="268" y="184" on="0"/>
        <pt x="187" y="215" on="0"/>
        <pt x="131" y="271" on="0"/>
        <pt x="101" y="347" on="0"/>
        <pt x="101" y="391" on="1"/>
        <pt x="101" y="440" on="0"/>
        <pt x="114" y="502" on="1"/>
        <pt x="153" y="698" on="1"/>
        <pt x="279" y="698" on="1"/>
        <pt x="237" y="489" on="1"/>
        <pt x="229" y="452" on="0"/>
        <pt x="226" y="409" on="0"/>
        <pt x="226" y="393" on="1"/>
        <pt x="226" y="288" on="0"/>
        <pt x="340" y="288" on="1"/>
        <pt x="422" y="698" on="1"/>
        <pt x="548" y="698" on="1"/>
        <pt x="466" y="288" on="1"/>
        <pt x="502" y="288" on="0"/>
        <pt x="559" y="306" on="0"/>
        <pt x="603" y="350" on="0"/>
        <pt x="635" y="423" on="0"/>
        <pt x="647" y="478" on="1"/>
        <pt x="691" y="698" on="1"/>
        <pt x="817" y="698" on="1"/>
        <pt x="772" y="472" on="1"/>
        <pt x="742" y="324" on="0"/>
        <pt x="587" y="184" on="0"/>
        <pt x="445" y="184" on="1"/>
        <pt x="408" y="0" on="1"/>
        <pt x="282" y="0" on="1"/>
      </contour>
    </TTGlyph>
    <TTGlyph name="Q" xMin="56" yMin="-178" xMax="664" yMax="710">
      <contour>
        <pt x="426" y="-178" on="1"/>
        <pt x="322" y="-178" on="1"/>
        <pt x="268" y="-178" on="0"/>
        <pt x="224" y="-134" on="0"/>
        <pt x="224" y="-96" on="1"/>
        <pt x="224" y="-85" on="0"/>
        <pt x="228" y="-63" on="0"/>
        <pt x="230" y="-51" on="1"/>
        <pt x="240" y="-4" on="1"/>
        <pt x="201" y="5" on="0"/>
        <pt x="134" y="47" on="0"/>
        <pt x="84" y="115" on="0"/>
        <pt x="56" y="208" on="0"/>
        <pt x="56" y="268" on="1"/>
        <pt x="56" y="357" on="0"/>
        <pt x="108" y="518" on="0"/>
        <pt x="203" y="639" on="0"/>
        <pt x="335" y="710" on="0"/>
        <pt x="415" y="710" on="1"/>
        <pt x="466" y="710" on="0"/>
        <pt x="556" y="676" on="0"/>
        <pt x="624" y="607" on="0"/>
        <pt x="664" y="502" on="0"/>
        <pt x="664" y="430" on="1"/>
        <pt x="664" y="347" on="0"/>
        <pt x="619" y="197" on="0"/>
        <pt x="536" y="79" on="0"/>
        <pt x="420" y="1" on="0"/>
        <pt x="350" y="-9" on="1"/>
        <pt x="338" y="-73" on="1"/>
        <pt x="446" y="-73" on="1"/>
      </contour>
      <contour>
        <pt x="315" y="101" on="1"/>
        <pt x="391" y="101" on="0"/>
        <pt x="491" y="202" on="0"/>
        <pt x="509" y="294" on="1"/>
        <pt x="530" y="398" on="1"/>
        <pt x="534" y="415" on="0"/>
        <pt x="536" y="444" on="0"/>
        <pt x="536" y="456" on="1"/>
        <pt x="536" y="524" on="0"/>
        <pt x="469" y="597" on="0"/>
        <pt x="405" y="597" on="1"/>
        <pt x="329" y="597" on="0"/>
        <pt x="229" y="496" on="0"/>
        <pt x="211" y="404" on="1"/>
        <pt x="190" y="300" on="1"/>
        <pt x="186" y="283" on="0"/>
        <pt x="184" y="254" on="0"/>
        <pt x="184" y="242" on="1"/>
        <pt x="184" y="174" on="0"/>
        <pt x="251" y="101" on="0"/>
      </contour>
    </TTGlyph>
    <TTGlyph name="R" xMin="27" yMin="0" xMax="632" yMax="698">
      <contour>
        <pt x="153" y="0" on="1"/>
        <pt x="27" y="0" on="1"/>
        <pt x="167" y="698" on="1"/>
        <pt x="432" y="698" on="1"/>
        <pt x="530" y="698" on="0"/>
        <pt x="632" y="603" on="0"/>
        <pt x="632" y="522" on="1"/>
        <pt x="632" y="482" on="0"/>
        <pt x="609" y="408" on="0"/>
        <pt x="564" y="345" on="0"/>
        <pt x="500" y="298" on="0"/>
        <pt x="458" y="286" on="1"/>
        <pt x="547" y="0" on="1"/>
        <pt x="412" y="0" on="1"/>
        <pt x="335" y="271" on="1"/>
        <pt x="207" y="271" on="1"/>
      </contour>
      <contour>
        <pt x="389" y="379" on="1"/>
        <pt x="427" y="379" on="0"/>
        <pt x="481" y="419" on="0"/>
        <pt x="490" y="461" on="1"/>
        <pt x="495" y="486" on="0"/>
        <pt x="502" y="516" on="0"/>
        <pt x="502" y="525" on="1"/>
        <pt x="502" y="551" on="0"/>
        <pt x="467" y="586" on="0"/>
        <pt x="428" y="586" on="1"/>
        <pt x="270" y="586" on="1"/>
        <pt x="229" y="379" on="1"/>
      </contour>
    </TTGlyph>
    <TTGlyph name="Racute" xMin="27" yMin="0" xMax="632" yMax="968">
      <component glyphName="R" x="0" y="0" flags="0x204"/>
      <component glyphName="acute.case" x="96" y="0" flags="0x4"/>
    </TTGlyph>
    <TTGlyph name="Rcaron" xMin="27" yMin="0" xMax="632" yMax="957">
      <component glyphName="R" x="0" y="0" flags="0x204"/>
      <component glyphName="caron.case" x="96" y="0" flags="0x4"/>
    </TTGlyph>
    <TTGlyph name="Rcommaaccent" xMin="27" yMin="-266" xMax="632" yMax="698">
      <component glyphName="R" x="0" y="0" flags="0x204"/>
      <component glyphName="uni0326" x="280" y="0" flags="0x4"/>
    </TTGlyph>
    <TTGlyph name="Rho" xMin="27" yMin="0" xMax="632" yMax="698">
      <component glyphName="P" x="0" y="0" flags="0x204"/>
    </TTGlyph>
    <TTGlyph name="S" xMin="0" yMin="-12" xMax="593" yMax="710">
      <contour>
        <pt x="253" y="-12" on="1"/>
        <pt x="168" y="-12" on="0"/>
        <pt x="37" y="45" on="0"/>
        <pt x="0" y="113" on="1"/>
        <pt x="96" y="187" on="1"/>
        <pt x="123" y="142" on="0"/>
        <pt x="199" y="101" on="0"/>
        <pt x="253" y="101" on="1"/>
        <pt x="325" y="101" on="0"/>
        <pt x="400" y="166" on="0"/>
        <pt x="400" y="215" on="1"/>
        <pt x="400" y="250" on="0"/>
        <pt x="353" y="290" on="0"/>
        <pt x="313" y="298" on="1"/>
        <pt x="260" y="309" on="1"/>
        <pt x="185" y="325" on="0"/>
        <pt x="98" y="411" on="0"/>
        <pt x="98" y="491" on="1"/>
        <pt x="98" y="537" on="0"/>
        <pt x="135" y="617" on="0"/>
        <pt x="202" y="676" on="0"/>
        <pt x="298" y="710" on="0"/>
        <pt x="358" y="710" on="1"/>
        <pt x="437" y="710" on="0"/>
        <pt x="558" y="658" on="0"/>
        <pt x="593" y="610" on="1"/>
        <pt x="502" y="529" on="1"/>
        <pt x="476" y="564" on="0"/>
        <pt x="408" y="597" on="0"/>
        <pt x="353" y="597" on="1"/>
        <pt x="293" y="597" on="0"/>
        <pt x="225" y="546" on="0"/>
        <pt x="225" y="502" on="1"/>
        <pt x="225" y="467" on="0"/>
        <pt x="267" y="430" on="0"/>
        <pt x="309" y="421" on="1"/>
        <pt x="359" y="411" on="1"/>
        <pt x="438" y="394" on="0"/>
        <pt x="530" y="306" on="0"/>
        <pt x="530" y="227" on="1"/>
        <pt x="530" y="182" on="0"/>
        <pt x="493" y="96" on="0"/>
        <pt x="422" y="29" on="0"/>
        <pt x="319" y="-12" on="0"/>
      </contour>
    </TTGlyph>
    <TTGlyph name="Sacute" xMin="0" yMin="-12" xMax="593" yMax="968">
      <component glyphName="S" x="0" y="0" flags="0x204"/>
      <component glyphName="acute.case" x="61" y="0" flags="0x4"/>
    </TTGlyph>
    <TTGlyph name="Scaron" xMin="0" yMin="-12" xMax="593" yMax="957">
      <component glyphName="S" x="0" y="0" flags="0x204"/>
      <component glyphName="caron.case" x="61" y="0" flags="0x4"/>
    </TTGlyph>
    <TTGlyph name="Scedilla" xMin="0" yMin="-210" xMax="593" yMax="710">
      <contour>
        <pt x="353" y="597" on="1"/>
        <pt x="293" y="597" on="0"/>
        <pt x="225" y="546" on="0"/>
        <pt x="225" y="502" on="1"/>
        <pt x="225" y="467" on="0"/>
        <pt x="267" y="430" on="0"/>
        <pt x="309" y="421" on="1"/>
        <pt x="359" y="411" on="1"/>
        <pt x="438" y="394" on="0"/>
        <pt x="530" y="306" on="0"/>
        <pt x="530" y="227" on="1"/>
        <pt x="530" y="183" on="0"/>
        <pt x="495" y="100" on="0"/>
        <pt x="429" y="34" on="0"/>
        <pt x="334" y="-9" on="0"/>
        <pt x="273" y="-12" on="1"/>
        <pt x="255" y="-57" on="1"/>
        <pt x="257" y="-61" on="1"/>
        <pt x="278" y="-55" on="0"/>
        <pt x="297" y="-55" on="1"/>
        <pt x="323" y="-55" on="0"/>
        <pt x="358" y="-83" on="0"/>
        <pt x="358" y="-111" on="1"/>
        <pt x="358" y="-135" on="0"/>
        <pt x="338" y="-172" on="0"/>
        <pt x="302" y="-197" on="0"/>
        <pt x="253" y="-210" on="0"/>
        <pt x="225" y="-210" on="1"/>
        <pt x="184" y="-210" on="0"/>
        <pt x="129" y="-184" on="0"/>
        <pt x="117" y="-167" on="1"/>
        <pt x="165" y="-119" on="1"/>
        <pt x="172" y="-128" on="0"/>
        <pt x="202" y="-146" on="0"/>
        <pt x="224" y="-146" on="1"/>
        <pt x="245" y="-146" on="0"/>
        <pt x="273" y="-129" on="0"/>
        <pt x="273" y="-113" on="1"/>
        <pt x="273" y="-100" on="0"/>
        <pt x="245" y="-80" on="0"/>
        <pt x="210" y="-76" on="1"/>
        <pt x="187" y="-74" on="1"/>
        <pt x="212" y="-10" on="1"/>
        <pt x="142" y="-4" on="0"/>
        <pt x="32" y="53" on="0"/>
        <pt x="0" y="113" on="1"/>
        <pt x="96" y="187" on="1"/>
        <pt x="123" y="142" on="0"/>
        <pt x="199" y="101" on="0"/>
        <pt x="253" y="101" on="1"/>
        <pt x="325" y="101" on="0"/>
        <pt x="400" y="166" on="0"/>
        <pt x="400" y="215" on="1"/>
        <pt x="400" y="250" on="0"/>
        <pt x="353" y="290" on="0"/>
        <pt x="313" y="298" on="1"/>
        <pt x="260" y="309" on="1"/>
        <pt x="185" y="325" on="0"/>
        <pt x="98" y="411" on="0"/>
        <pt x="98" y="491" on="1"/>
        <pt x="98" y="537" on="0"/>
        <pt x="135" y="617" on="0"/>
        <pt x="202" y="676" on="0"/>
        <pt x="298" y="710" on="0"/>
        <pt x="358" y="710" on="1"/>
        <pt x="437" y="710" on="0"/>
        <pt x="558" y="658" on="0"/>
        <pt x="593" y="610" on="1"/>
        <pt x="502" y="529" on="1"/>
        <pt x="476" y="564" on="0"/>
        <pt x="408" y="597" on="0"/>
      </contour>
    </TTGlyph>
    <TTGlyph name="Scircumflex" xMin="0" yMin="-12" xMax="593" yMax="948">
      <component glyphName="S" x="0" y="0" flags="0x204"/>
      <component glyphName="circumflex.case" x="61" y="0" flags="0x4"/>
    </TTGlyph>
    <TTGlyph name="Scommaaccent" xMin="0" yMin="-266" xMax="593" yMax="710">
      <component glyphName="S" x="0" y="0" flags="0x204"/>
      <component glyphName="uni0326" x="245" y="0" flags="0x4"/>
    </TTGlyph>
    <TTGlyph name="Sigma" xMin="-9" yMin="0" xMax="617" yMax="698">
      <contour>
        <pt x="-9" y="0" on="1"/>
        <pt x="14" y="113" on="1"/>
        <pt x="286" y="355" on="1"/>
        <pt x="117" y="585" on="1"/>
        <pt x="140" y="698" on="1"/>
        <pt x="617" y="698" on="1"/>
        <pt x="594" y="587" on="1"/>
        <pt x="257" y="587" on="1"/>
        <pt x="435" y="345" on="1"/>
        <pt x="171" y="111" on="1"/>
        <pt x="504" y="111" on="1"/>
        <pt x="482" y="0" on="1"/>
      </contour>
    </TTGlyph>
    <TTGlyph name="T" xMin="92" yMin="0" xMax="624" yMax="698">
      <contour>
        <pt x="411" y="586" on="1"/>
        <pt x="293" y="0" on="1"/>
        <pt x="167" y="0" on="1"/>
        <pt x="285" y="586" on="1"/>
        <pt x="92" y="586" on="1"/>
        <pt x="114" y="698" on="1"/>
        <pt x="624" y="698" on="1"/>
        <pt x="602" y="586" on="1"/>
      </contour>
    </TTGlyph>
    <TTGlyph name="Tau" xMin="92" yMin="0" xMax="624" yMax="698">
      <component glyphName="T" x="0" y="0" flags="0x204"/>
    </TTGlyph>
    <TTGlyph name="Tbar" xMin="81" yMin="0" xMax="624" yMax="698">
      <contour>
        <pt x="353" y="296" on="1"/>
        <pt x="293" y="0" on="1"/>
        <pt x="167" y="0" on="1"/>
        <pt x="227" y="296" on="1"/>
        <pt x="81" y="296" on="1"/>
        <pt x="100" y="390" on="1"/>
        <pt x="245" y="390" on="1"/>
        <pt x="285" y="586" on="1"/>
        <pt x="92" y="586" on="1"/>
        <pt x="114" y="698" on="1"/>
        <pt x="624" y="698" on="1"/>
        <pt x="602" y="586" on="1"/>
        <pt x="411" y="586" on="1"/>
        <pt x="371" y="390" on="1"/>
        <pt x="518" y="390" on="1"/>
        <pt x="499" y="296" on="1"/>
      </contour>
    </TTGlyph>
    <TTGlyph name="Tcaron" xMin="92" yMin="0" xMax="624" yMax="957">
      <component glyphName="T" x="0" y="0" flags="0x204"/>
      <component glyphName="caron.case" x="77" y="0" flags="0x4"/>
    </TTGlyph>
    <TTGlyph name="Theta" xMin="56" yMin="-12" xMax="670" yMax="710">
      <contour>
        <pt x="309" y="-12" on="1"/>
        <pt x="257" y="-12" on="0"/>
        <pt x="165" y="21" on="0"/>
        <pt x="96" y="90" on="0"/>
        <pt x="56" y="196" on="0"/>
        <pt x="56" y="268" on="1"/>
        <pt x="56" y="357" on="0"/>
        <pt x="108" y="518" on="0"/>
        <pt x="204" y="639" on="0"/>
        <pt x="337" y="710" on="0"/>
        <pt x="418" y="710" on="1"/>
        <pt x="470" y="710" on="0"/>
        <pt x="562" y="676" on="0"/>
        <pt x="630" y="607" on="0"/>
        <pt x="670" y="502" on="0"/>
        <pt x="670" y="430" on="1"/>
        <pt x="670" y="341" on="0"/>
        <pt x="618" y="180" on="0"/>
        <pt x="523" y="59" on="0"/>
        <pt x="390" y="-12" on="0"/>
      </contour>
      <contour>
        <pt x="317" y="101" on="1"/>
        <pt x="397" y="101" on="0"/>
        <pt x="496" y="202" on="0"/>
        <pt x="515" y="294" on="1"/>
        <pt x="536" y="398" on="1"/>
        <pt x="540" y="415" on="0"/>
        <pt x="542" y="444" on="0"/>
        <pt x="542" y="456" on="1"/>
        <pt x="542" y="524" on="0"/>
        <pt x="474" y="597" on="0"/>
        <pt x="408" y="597" on="1"/>
        <pt x="328" y="597" on="0"/>
        <pt x="230" y="496" on="0"/>
        <pt x="211" y="404" on="1"/>
        <pt x="190" y="300" on="1"/>
        <pt x="186" y="283" on="0"/>
        <pt x="184" y="254" on="0"/>
        <pt x="184" y="242" on="1"/>
        <pt x="184" y="174" on="0"/>
        <pt x="251" y="101" on="0"/>
      </contour>
      <contour>
        <pt x="243" y="295" on="1"/>
        <pt x="267" y="407" on="1"/>
        <pt x="484" y="407" on="1"/>
        <pt x="460" y="295" on="1"/>
      </contour>
    </TTGlyph>
    <TTGlyph name="Thorn" xMin="27" yMin="0" xMax="606" yMax="698">
      <contour>
        <pt x="27" y="0" on="1"/>
        <pt x="167" y="698" on="1"/>
        <pt x="293" y="698" on="1"/>
        <pt x="267" y="570" on="1"/>
        <pt x="400" y="570" on="1"/>
        <pt x="501" y="570" on="0"/>
        <pt x="606" y="473" on="0"/>
        <pt x="606" y="389" on="1"/>
        <pt x="606" y="334" on="0"/>
        <pt x="568" y="242" on="0"/>
        <pt x="499" y="176" on="0"/>
        <pt x="404" y="139" on="0"/>
        <pt x="346" y="139" on="1"/>
        <pt x="181" y="139" on="1"/>
        <pt x="153" y="0" on="1"/>
      </contour>
      <contour>
        <pt x="203" y="251" on="1"/>
        <pt x="363" y="251" on="1"/>
        <pt x="401" y="251" on="0"/>
        <pt x="456" y="291" on="0"/>
        <pt x="464" y="332" on="1"/>
        <pt x="469" y="358" on="0"/>
        <pt x="476" y="388" on="0"/>
        <pt x="476" y="397" on="1"/>
        <pt x="476" y="423" on="0"/>
        <pt x="441" y="458" on="0"/>
        <pt x="402" y="458" on="1"/>
        <pt x="245" y="458" on="1"/>
      </contour>
    </TTGlyph>
    <TTGlyph name="U" xMin="75" yMin="-12" xMax="680" yMax="698">
      <contour>
        <pt x="290" y="698" on="1"/>
        <pt x="205" y="275" on="1"/>
        <pt x="201" y="257" on="0"/>
        <pt x="197" y="225" on="0"/>
        <pt x="197" y="210" on="1"/>
        <pt x="197" y="156" on="0"/>
        <pt x="254" y="101" on="0"/>
        <pt x="307" y="101" on="1"/>
        <pt x="376" y="101" on="0"/>
        <pt x="451" y="183" on="0"/>
        <pt x="469" y="273" on="1"/>
        <pt x="554" y="698" on="1"/>
        <pt x="680" y="698" on="1"/>
        <pt x="595" y="275" on="1"/>
        <pt x="580" y="199" on="0"/>
        <pt x="532" y="91" on="0"/>
        <pt x="461" y="21" on="0"/>
        <pt x="364" y="-12" on="0"/>
        <pt x="300" y="-12" on="1"/>
        <pt x="191" y="-12" on="0"/>
        <pt x="75" y="99" on="0"/>
        <pt x="75" y="207" on="1"/>
        <pt x="75" y="227" on="0"/>
        <pt x="79" y="273" on="0"/>
        <pt x="85" y="300" on="1"/>
        <pt x="164" y="698" on="1"/>
      </contour>
    </TTGlyph>
    <TTGlyph name="Uacute" xMin="75" yMin="-12" xMax="680" yMax="968">
      <component glyphName="U" x="0" y="0" flags="0x204"/>
      <component glyphName="acute.case" x="125" y="0" flags="0x4"/>
    </TTGlyph>
    <TTGlyph name="Ubreve" xMin="75" yMin="-12" xMax="680" yMax="942">
      <component glyphName="U" x="0" y="0" flags="0x204"/>
      <component glyphName="breve.case" x="125" y="0" flags="0x4"/>
    </TTGlyph>
    <TTGlyph name="Ucircumflex" xMin="75" yMin="-12" xMax="680" yMax="948">
      <component glyphName="U" x="0" y="0" flags="0x204"/>
      <component glyphName="circumflex.case" x="125" y="0" flags="0x4"/>
    </TTGlyph>
    <TTGlyph name="Udieresis" xMin="75" yMin="-12" xMax="680" yMax="905">
      <component glyphName="U" x="0" y="0" flags="0x204"/>
      <component glyphName="dieresis.case" x="125" y="0" flags="0x4"/>
    </TTGlyph>
    <TTGlyph name="Ugrave" xMin="75" yMin="-12" xMax="680" yMax="967">
      <component glyphName="U" x="0" y="0" flags="0x204"/>
      <component glyphName="grave.case" x="125" y="0" flags="0x4"/>
    </TTGlyph>
    <TTGlyph name="Uhorn" xMin="75" yMin="-12" xMax="782" yMax="806">
      <contour>
        <pt x="290" y="698" on="1"/>
        <pt x="205" y="275" on="1"/>
        <pt x="201" y="257" on="0"/>
        <pt x="197" y="225" on="0"/>
        <pt x="197" y="210" on="1"/>
        <pt x="197" y="156" on="0"/>
        <pt x="254" y="101" on="0"/>
        <pt x="307" y="101" on="1"/>
        <pt x="376" y="101" on="0"/>
        <pt x="451" y="183" on="0"/>
        <pt x="469" y="273" on="1"/>
        <pt x="554" y="698" on="1"/>
        <pt x="652" y="698" on="1"/>
        <pt x="674" y="806" on="1"/>
        <pt x="782" y="806" on="1"/>
        <pt x="762" y="706" on="1"/>
        <pt x="754" y="664" on="0"/>
        <pt x="714" y="621" on="0"/>
        <pt x="665" y="621" on="1"/>
        <pt x="595" y="275" on="1"/>
        <pt x="580" y="199" on="0"/>
        <pt x="532" y="91" on="0"/>
        <pt x="461" y="21" on="0"/>
        <pt x="364" y="-12" on="0"/>
        <pt x="300" y="-12" on="1"/>
        <pt x="191" y="-12" on="0"/>
        <pt x="75" y="99" on="0"/>
        <pt x="75" y="207" on="1"/>
        <pt x="75" y="227" on="0"/>
        <pt x="79" y="273" on="0"/>
        <pt x="85" y="300" on="1"/>
        <pt x="164" y="698" on="1"/>
      </contour>
    </TTGlyph>
    <TTGlyph name="Uhungarumlaut" xMin="75" yMin="-12" xMax="680" yMax="965">
      <component glyphName="U" x="0" y="0" flags="0x204"/>
      <component glyphName="hungarumlaut.case" x="125" y="0" flags="0x4"/>
    </TTGlyph>
    <TTGlyph name="Umacron" xMin="75" yMin="-12" xMax="680" yMax="884">
      <component glyphName="U" x="0" y="0" flags="0x204"/>
      <component glyphName="macron.case" x="125" y="0" flags="0x4"/>
    </TTGlyph>
    <TTGlyph name="Uogonek" xMin="75" yMin="-210" xMax="680" yMax="698">
      <contour>
        <pt x="290" y="698" on="1"/>
        <pt x="205" y="275" on="1"/>
        <pt x="201" y="257" on="0"/>
        <pt x="197" y="225" on="0"/>
        <pt x="197" y="210" on="1"/>
        <pt x="197" y="156" on="0"/>
        <pt x="254" y="101" on="0"/>
        <pt x="307" y="101" on="1"/>
        <pt x="376" y="101" on="0"/>
        <pt x="451" y="183" on="0"/>
        <pt x="469" y="273" on="1"/>
        <pt x="554" y="698" on="1"/>
        <pt x="680" y="698" on="1"/>
        <pt x="595" y="275" on="1"/>
        <pt x="580" y="198" on="0"/>
        <pt x="539" y="104" on="0"/>
        <pt x="487" y="45" on="0"/>
        <pt x="423" y="9" on="0"/>
        <pt x="384" y="-11" on="1"/>
        <pt x="350" y="-28" on="0"/>
        <pt x="307" y="-59" on="0"/>
        <pt x="283" y="-85" on="0"/>
        <pt x="274" y="-107" on="0"/>
        <pt x="274" y="-114" on="1"/>
        <pt x="274" y="-128" on="0"/>
        <pt x="290" y="-144" on="0"/>
        <pt x="308" y="-144" on="1"/>
        <pt x="323" y="-144" on="0"/>
        <pt x="351" y="-132" on="0"/>
        <pt x="362" y="-117" on="1"/>
        <pt x="410" y="-165" on="1"/>
        <pt x="393" y="-185" on="0"/>
        <pt x="337" y="-210" on="0"/>
        <pt x="293" y="-210" on="1"/>
        <pt x="247" y="-210" on="0"/>
        <pt x="181" y="-171" on="0"/>
        <pt x="181" y="-130" on="1"/>
        <pt x="181" y="-95" on="0"/>
        <pt x="236" y="-34" on="0"/>
        <pt x="293" y="-16" on="1"/>
        <pt x="292" y="-12" on="1"/>
        <pt x="186" y="-10" on="0"/>
        <pt x="75" y="101" on="0"/>
        <pt x="75" y="207" on="1"/>
        <pt x="75" y="227" on="0"/>
        <pt x="79" y="273" on="0"/>
        <pt x="85" y="300" on="1"/>
        <pt x="164" y="698" on="1"/>
      </contour>
    </TTGlyph>
    <TTGlyph name="Upsilon" xMin="95" yMin="0" xMax="686" yMax="698">
      <component glyphName="Y" x="0" y="0" flags="0x204"/>
    </TTGlyph>
    <TTGlyph name="Upsilondieresis" xMin="95" yMin="0" xMax="686" yMax="905">
      <component glyphName="Y" x="0" y="0" flags="0x204"/>
      <component glyphName="dieresis.case" x="83" y="0" flags="0x4"/>
    </TTGlyph>
    <TTGlyph name="Upsilontonos" xMin="53" yMin="0" xMax="812" yMax="805">
      <component glyphName="Y" x="126" y="0" flags="0x4"/>
      <component glyphName="tonos.case" x="-261" y="0" flags="0x4"/>
    </TTGlyph>
    <TTGlyph name="Uring" xMin="75" yMin="-12" xMax="680" yMax="997">
      <component glyphName="U" x="0" y="0" flags="0x204"/>
      <component glyphName="ring.case" x="125" y="0" flags="0x4"/>
    </TTGlyph>
    <TTGlyph name="Utilde" xMin="75" yMin="-12" xMax="680" yMax="906">
      <component glyphName="U" x="0" y="0" flags="0x204"/>
      <component glyphName="tilde.case" x="125" y="0" flags="0x4"/>
    </TTGlyph>
    <TTGlyph name="V" xMin="103" yMin="0" xMax="692" yMax="698">
      <contour>
        <pt x="185" y="0" on="1"/>
        <pt x="103" y="698" on="1"/>
        <pt x="230" y="698" on="1"/>
        <pt x="258" y="405" on="1"/>
        <pt x="279" y="133" on="1"/>
        <pt x="285" y="133" on="1"/>
        <pt x="403" y="388" on="1"/>
        <pt x="558" y="698" on="1"/>
        <pt x="692" y="698" on="1"/>
        <pt x="330" y="0" on="1"/>
      </contour>
    </TTGlyph>
    <TTGlyph name="W" xMin="112" yMin="0" xMax="979" yMax="698">
      <contour>
        <pt x="131" y="0" on="1"/>
        <pt x="112" y="698" on="1"/>
        <pt x="237" y="698" on="1"/>
        <pt x="237" y="397" on="1"/>
        <pt x="231" y="131" on="1"/>
        <pt x="239" y="131" on="1"/>
        <pt x="348" y="406" on="1"/>
        <pt x="474" y="698" on="1"/>
        <pt x="614" y="698" on="1"/>
        <pt x="624" y="412" on="1"/>
        <pt x="623" y="125" on="1"/>
        <pt x="631" y="125" on="1"/>
        <pt x="724" y="374" on="1"/>
        <pt x="851" y="698" on="1"/>
        <pt x="979" y="698" on="1"/>
        <pt x="681" y="0" on="1"/>
        <pt x="535" y="0" on="1"/>
        <pt x="524" y="314" on="1"/>
        <pt x="521" y="557" on="1"/>
        <pt x="514" y="557" on="1"/>
        <pt x="419" y="327" on="1"/>
        <pt x="279" y="0" on="1"/>
      </contour>
    </TTGlyph>
    <TTGlyph name="Wacute" xMin="112" yMin="0" xMax="979" yMax="968">
      <component glyphName="W" x="0" y="0" flags="0x204"/>
      <component glyphName="acute.case" x="251" y="0" flags="0x4"/>
    </TTGlyph>
    <TTGlyph name="Wcircumflex" xMin="112" yMin="0" xMax="979" yMax="948">
      <component glyphName="W" x="0" y="0" flags="0x204"/>
      <component glyphName="circumflex.case" x="251" y="0" flags="0x4"/>
    </TTGlyph>
    <TTGlyph name="Wdieresis" xMin="112" yMin="0" xMax="979" yMax="905">
      <component glyphName="W" x="0" y="0" flags="0x204"/>
      <component glyphName="dieresis.case" x="251" y="0" flags="0x4"/>
    </TTGlyph>
    <TTGlyph name="Wgrave" xMin="112" yMin="0" xMax="979" yMax="967">
      <component glyphName="W" x="0" y="0" flags="0x204"/>
      <component glyphName="grave.case" x="251" y="0" flags="0x4"/>
    </TTGlyph>
    <TTGlyph name="X" xMin="-35" yMin="0" xMax="691" yMax="698">
      <contour>
        <pt x="552" y="0" on="1"/>
        <pt x="417" y="0" on="1"/>
        <pt x="312" y="256" on="1"/>
        <pt x="305" y="256" on="1"/>
        <pt x="111" y="0" on="1"/>
        <pt x="-35" y="0" on="1"/>
        <pt x="254" y="366" on="1"/>
        <pt x="109" y="698" on="1"/>
        <pt x="244" y="698" on="1"/>
        <pt x="346" y="451" on="1"/>
        <pt x="353" y="451" on="1"/>
        <pt x="545" y="698" on="1"/>
        <pt x="691" y="698" on="1"/>
        <pt x="402" y="346" on="1"/>
      </contour>
    </TTGlyph>
    <TTGlyph name="Xi" xMin="4" yMin="0" xMax="617" yMax="698">
      <contour>
        <pt x="144" y="698" on="1"/>
        <pt x="617" y="698" on="1"/>
        <pt x="594" y="586" on="1"/>
        <pt x="121" y="586" on="1"/>
      </contour>
      <contour>
        <pt x="144" y="407" on="1"/>
        <pt x="501" y="407" on="1"/>
        <pt x="478" y="295" on="1"/>
        <pt x="121" y="295" on="1"/>
      </contour>
      <contour>
        <pt x="27" y="112" on="1"/>
        <pt x="500" y="112" on="1"/>
        <pt x="477" y="0" on="1"/>
        <pt x="4" y="0" on="1"/>
      </contour>
    </TTGlyph>
    <TTGlyph name="Y" xMin="95" yMin="0" xMax="686" yMax="698">
      <contour>
        <pt x="188" y="0" on="1"/>
        <pt x="243" y="272" on="1"/>
        <pt x="95" y="698" on="1"/>
        <pt x="224" y="698" on="1"/>
        <pt x="324" y="390" on="1"/>
        <pt x="330" y="390" on="1"/>
        <pt x="546" y="698" on="1"/>
        <pt x="686" y="698" on="1"/>
        <pt x="367" y="263" on="1"/>
        <pt x="314" y="0" on="1"/>
      </contour>
    </TTGlyph>
    <TTGlyph name="Yacute" xMin="95" yMin="0" xMax="686" yMax="968">
      <component glyphName="Y" x="0" y="0" flags="0x204"/>
      <component glyphName="acute.case" x="84" y="0" flags="0x4"/>
    </TTGlyph>
    <TTGlyph name="Ycircumflex" xMin="95" yMin="0" xMax="686" yMax="948">
      <component glyphName="Y" x="0" y="0" flags="0x204"/>
      <component glyphName="circumflex.case" x="84" y="0" flags="0x4"/>
    </TTGlyph>
    <TTGlyph name="Ydieresis" xMin="95" yMin="0" xMax="686" yMax="905">
      <component glyphName="Y" x="0" y="0" flags="0x204"/>
      <component glyphName="dieresis.case" x="84" y="0" flags="0x4"/>
    </TTGlyph>
    <TTGlyph name="Ygrave" xMin="95" yMin="0" xMax="686" yMax="967">
      <component glyphName="Y" x="0" y="0" flags="0x204"/>
      <component glyphName="grave.case" x="84" y="0" flags="0x4"/>
    </TTGlyph>
    <TTGlyph name="Z" xMin="-12" yMin="0" xMax="617" yMax="698">
      <contour>
        <pt x="482" y="0" on="1"/>
        <pt x="-12" y="0" on="1"/>
        <pt x="11" y="113" on="1"/>
        <pt x="444" y="586" on="1"/>
        <pt x="119" y="586" on="1"/>
        <pt x="141" y="698" on="1"/>
        <pt x="617" y="698" on="1"/>
        <pt x="594" y="585" on="1"/>
        <pt x="160" y="112" on="1"/>
        <pt x="504" y="112" on="1"/>
      </contour>
    </TTGlyph>
    <TTGlyph name="Zacute" xMin="-12" yMin="0" xMax="617" yMax="968">
      <component glyphName="Z" x="0" y="0" flags="0x204"/>
      <component glyphName="acute.case" x="80" y="0" flags="0x4"/>
    </TTGlyph>
    <TTGlyph name="Zcaron" xMin="-12" yMin="0" xMax="617" yMax="957">
      <component glyphName="Z" x="0" y="0" flags="0x204"/>
      <component glyphName="caron.case" x="80" y="0" flags="0x4"/>
    </TTGlyph>
    <TTGlyph name="Zdotaccent" xMin="-12" yMin="0" xMax="617" yMax="912">
      <component glyphName="Z" x="0" y="0" flags="0x204"/>
      <component glyphName="dotaccent.case" x="80" y="0" flags="0x4"/>
    </TTGlyph>
    <TTGlyph name="Zeta" xMin="-12" yMin="0" xMax="617" yMax="698">
      <component glyphName="Z" x="0" y="0" flags="0x204"/>
    </TTGlyph>
    <TTGlyph name="a" xMin="37" yMin="-12" xMax="559" yMax="534">
      <contour>
        <pt x="432" y="0" on="1"/>
        <pt x="396" y="0" on="0"/>
        <pt x="350" y="38" on="0"/>
        <pt x="350" y="72" on="1"/>
        <pt x="350" y="80" on="0"/>
        <pt x="353" y="98" on="0"/>
        <pt x="354" y="103" on="1"/>
        <pt x="357" y="119" on="1"/>
        <pt x="352" y="119" on="1"/>
        <pt x="320" y="55" on="0"/>
        <pt x="242" y="-12" on="0"/>
        <pt x="182" y="-12" on="1"/>
        <pt x="146" y="-12" on="0"/>
        <pt x="91" y="15" on="0"/>
        <pt x="55" y="65" on="0"/>
        <pt x="37" y="133" on="0"/>
        <pt x="37" y="175" on="1"/>
        <pt x="37" y="251" on="0"/>
        <pt x="73" y="382" on="0"/>
        <pt x="138" y="479" on="0"/>
        <pt x="229" y="534" on="0"/>
        <pt x="283" y="534" on="1"/>
        <pt x="336" y="534" on="0"/>
        <pt x="408" y="478" on="0"/>
        <pt x="415" y="433" on="1"/>
        <pt x="420" y="433" on="1"/>
        <pt x="438" y="522" on="1"/>
        <pt x="559" y="522" on="1"/>
        <pt x="474" y="99" on="1"/>
        <pt x="537" y="99" on="1"/>
        <pt x="518" y="0" on="1"/>
      </contour>
      <contour>
        <pt x="237" y="89" on="1"/>
        <pt x="266" y="89" on="0"/>
        <pt x="313" y="118" on="0"/>
        <pt x="330" y="138" on="1"/>
        <pt x="350" y="160" on="0"/>
        <pt x="376" y="217" on="0"/>
        <pt x="383" y="249" on="1"/>
        <pt x="401" y="338" on="1"/>
        <pt x="409" y="378" on="0"/>
        <pt x="358" y="433" on="0"/>
        <pt x="310" y="433" on="1"/>
        <pt x="207" y="433" on="0"/>
        <pt x="181" y="304" on="1"/>
        <pt x="167" y="232" on="1"/>
        <pt x="165" y="221" on="0"/>
        <pt x="161" y="189" on="0"/>
        <pt x="161" y="177" on="1"/>
        <pt x="161" y="137" on="0"/>
        <pt x="200" y="89" on="0"/>
      </contour>
    </TTGlyph>
    <TTGlyph name="a.alt01" xMin="24" yMin="-12" xMax="499" yMax="534">
      <contour>
        <pt x="167" y="-12" on="1"/>
        <pt x="98" y="-12" on="0"/>
        <pt x="24" y="60" on="0"/>
        <pt x="24" y="121" on="1"/>
        <pt x="24" y="206" on="0"/>
        <pt x="148" y="300" on="0"/>
        <pt x="265" y="300" on="1"/>
        <pt x="360" y="300" on="1"/>
        <pt x="366" y="330" on="1"/>
        <pt x="369" y="345" on="0"/>
        <pt x="369" y="360" on="1"/>
        <pt x="369" y="435" on="0"/>
        <pt x="282" y="435" on="1"/>
        <pt x="234" y="435" on="0"/>
        <pt x="178" y="395" on="0"/>
        <pt x="155" y="365" on="1"/>
        <pt x="84" y="434" on="1"/>
        <pt x="117" y="479" on="0"/>
        <pt x="223" y="534" on="0"/>
        <pt x="298" y="534" on="1"/>
        <pt x="393" y="534" on="0"/>
        <pt x="492" y="447" on="0"/>
        <pt x="492" y="374" on="1"/>
        <pt x="492" y="352" on="0"/>
        <pt x="486" y="324" on="1"/>
        <pt x="441" y="99" on="1"/>
        <pt x="499" y="99" on="1"/>
        <pt x="480" y="0" on="1"/>
        <pt x="410" y="0" on="1"/>
        <pt x="373" y="0" on="0"/>
        <pt x="328" y="38" on="0"/>
        <pt x="328" y="72" on="1"/>
        <pt x="328" y="89" on="1"/>
        <pt x="323" y="89" on="1"/>
        <pt x="299" y="36" on="0"/>
        <pt x="220" y="-12" on="0"/>
      </contour>
      <contour>
        <pt x="216" y="79" on="1"/>
        <pt x="236" y="79" on="0"/>
        <pt x="274" y="89" on="0"/>
        <pt x="306" y="109" on="0"/>
        <pt x="328" y="138" on="0"/>
        <pt x="332" y="157" on="1"/>
        <pt x="345" y="227" on="1"/>
        <pt x="259" y="227" on="1"/>
        <pt x="168" y="227" on="0"/>
        <pt x="154" y="163" on="1"/>
        <pt x="151" y="149" on="0"/>
        <pt x="150" y="133" on="0"/>
        <pt x="150" y="129" on="1"/>
        <pt x="150" y="105" on="0"/>
        <pt x="187" y="79" on="0"/>
      </contour>
    </TTGlyph>
    <TTGlyph name="aacute" xMin="37" yMin="-12" xMax="559" yMax="805">
      <component glyphName="a" x="0" y="0" flags="0x204"/>
      <component glyphName="acute" x="40" y="0" flags="0x4"/>
    </TTGlyph>
    <TTGlyph name="aacute.alt01" xMin="24" yMin="-12" xMax="499" yMax="805">
      <component glyphName="a.alt01" x="0" y="0" flags="0x204"/>
      <component glyphName="acute" x="11" y="0" flags="0x4"/>
    </TTGlyph>
    <TTGlyph name="abreve" xMin="37" yMin="-12" xMax="559" yMax="779">
      <component glyphName="a" x="0" y="0" flags="0x204"/>
      <component glyphName="breve" x="40" y="0" flags="0x4"/>
    </TTGlyph>
    <TTGlyph name="abreve.alt01" xMin="24" yMin="-12" xMax="519" yMax="779">
      <component glyphName="a.alt01" x="0" y="0" flags="0x204"/>
      <component glyphName="breve" x="11" y="0" flags="0x4"/>
    </TTGlyph>
    <TTGlyph name="acircumflex" xMin="37" yMin="-12" xMax="559" yMax="786">
      <component glyphName="a" x="0" y="0" flags="0x204"/>
      <component glyphName="circumflex" x="40" y="0" flags="0x4"/>
    </TTGlyph>
    <TTGlyph name="acircumflex.alt01" xMin="24" yMin="-12" xMax="499" yMax="786">
      <component glyphName="a.alt01" x="0" y="0" flags="0x204"/>
      <component glyphName="circumflex" x="11" y="0" flags="0x4"/>
    </TTGlyph>
    <TTGlyph name="acute" xMin="246" yMin="581" xMax="460" yMax="805">
      <contour>
        <pt x="319" y="581" on="1"/>
        <pt x="246" y="620" on="1"/>
        <pt x="361" y="805" on="1"/>
        <pt x="460" y="752" on="1"/>
      </contour>
    </TTGlyph>
    <TTGlyph name="acute.case" xMin="246" yMin="744" xMax="460" yMax="968">
      <contour>
        <pt x="319" y="744" on="1"/>
        <pt x="246" y="783" on="1"/>
        <pt x="361" y="968" on="1"/>
        <pt x="460" y="915" on="1"/>
      </contour>
    </TTGlyph>
    <TTGlyph name="adieresis" xMin="37" yMin="-12" xMax="559" yMax="742">
      <component glyphName="a" x="0" y="0" flags="0x204"/>
      <component glyphName="dieresis" x="40" y="0" flags="0x4"/>
    </TTGlyph>
    <TTGlyph name="adieresis.alt01" xMin="24" yMin="-12" xMax="499" yMax="742">
      <component glyphName="a.alt01" x="0" y="0" flags="0x204"/>
      <component glyphName="dieresis" x="11" y="0" flags="0x4"/>
    </TTGlyph>
    <TTGlyph name="ae" xMin="25" yMin="-12" xMax="806" yMax="534">
      <contour>
        <pt x="218" y="79" on="1"/>
        <pt x="238" y="79" on="0"/>
        <pt x="276" y="89" on="0"/>
        <pt x="307" y="109" on="0"/>
        <pt x="329" y="138" on="0"/>
        <pt x="333" y="157" on="1"/>
        <pt x="346" y="221" on="1"/>
        <pt x="259" y="217" on="1"/>
        <pt x="221" y="215" on="0"/>
        <pt x="163" y="195" on="0"/>
        <pt x="155" y="163" on="1"/>
        <pt x="152" y="149" on="0"/>
        <pt x="151" y="131" on="0"/>
        <pt x="151" y="129" on="1"/>
        <pt x="151" y="105" on="0"/>
        <pt x="187" y="79" on="0"/>
      </contour>
      <contour>
        <pt x="618" y="440" on="1"/>
        <pt x="567" y="440" on="0"/>
        <pt x="497" y="373" on="0"/>
        <pt x="486" y="315" on="1"/>
        <pt x="482" y="296" on="1"/>
        <pt x="546" y="299" on="0"/>
        <pt x="626" y="313" on="0"/>
        <pt x="671" y="334" on="0"/>
        <pt x="687" y="362" on="0"/>
        <pt x="687" y="379" on="1"/>
        <pt x="687" y="398" on="0"/>
        <pt x="674" y="422" on="0"/>
        <pt x="654" y="435" on="0"/>
        <pt x="630" y="440" on="0"/>
      </contour>
      <contour>
        <pt x="179" y="-12" on="1"/>
        <pt x="104" y="-12" on="0"/>
        <pt x="25" y="60" on="0"/>
        <pt x="25" y="124" on="1"/>
        <pt x="25" y="204" on="0"/>
        <pt x="148" y="285" on="0"/>
        <pt x="265" y="290" on="1"/>
        <pt x="360" y="294" on="1"/>
        <pt x="367" y="330" on="1"/>
        <pt x="370" y="346" on="0"/>
        <pt x="370" y="360" on="1"/>
        <pt x="370" y="435" on="0"/>
        <pt x="282" y="435" on="1"/>
        <pt x="235" y="435" on="0"/>
        <pt x="179" y="395" on="0"/>
        <pt x="156" y="365" on="1"/>
        <pt x="85" y="434" on="1"/>
        <pt x="118" y="480" on="0"/>
        <pt x="225" y="534" on="0"/>
        <pt x="293" y="534" on="1"/>
        <pt x="352" y="534" on="0"/>
        <pt x="428" y="491" on="0"/>
        <pt x="447" y="453" on="1"/>
        <pt x="454" y="453" on="1"/>
        <pt x="486" y="491" on="0"/>
        <pt x="571" y="534" on="0"/>
        <pt x="626" y="534" on="1"/>
        <pt x="656" y="534" on="0"/>
        <pt x="719" y="519" on="0"/>
        <pt x="772" y="486" on="0"/>
        <pt x="806" y="431" on="0"/>
        <pt x="806" y="391" on="1"/>
        <pt x="806" y="309" on="0"/>
        <pt x="643" y="224" on="0"/>
        <pt x="468" y="220" on="1"/>
        <pt x="465" y="196" on="0"/>
        <pt x="465" y="182" on="1"/>
        <pt x="465" y="140" on="0"/>
        <pt x="513" y="88" on="0"/>
        <pt x="567" y="88" on="1"/>
        <pt x="606" y="88" on="0"/>
        <pt x="670" y="122" on="0"/>
        <pt x="704" y="164" on="1"/>
        <pt x="779" y="102" on="1"/>
        <pt x="730" y="39" on="0"/>
        <pt x="623" y="-12" on="0"/>
        <pt x="558" y="-12" on="1"/>
        <pt x="486" y="-12" on="0"/>
        <pt x="390" y="43" on="0"/>
        <pt x="367" y="93" on="1"/>
        <pt x="360" y="93" on="1"/>
        <pt x="333" y="38" on="0"/>
        <pt x="238" y="-12" on="0"/>
      </contour>
    </TTGlyph>
    <TTGlyph name="aeacute" xMin="25" yMin="-12" xMax="806" yMax="805">
      <component glyphName="ae" x="0" y="0" flags="0x204"/>
      <component glyphName="acute" x="181" y="0" flags="0x4"/>
    </TTGlyph>
    <TTGlyph name="agrave" xMin="37" yMin="-12" xMax="559" yMax="804">
      <component glyphName="a" x="0" y="0" flags="0x204"/>
      <component glyphName="grave" x="40" y="0" flags="0x4"/>
    </TTGlyph>
    <TTGlyph name="agrave.alt01" xMin="24" yMin="-12" xMax="499" yMax="804">
      <component glyphName="a.alt01" x="0" y="0" flags="0x204"/>
      <component glyphName="grave" x="11" y="0" flags="0x4"/>
    </TTGlyph>
    <TTGlyph name="alpha" xMin="37" yMin="-12" xMax="661" yMax="534">
      <contour>
        <pt x="567" y="0" on="1"/>
        <pt x="499" y="0" on="1"/>
        <pt x="458" y="0" on="0"/>
        <pt x="411" y="47" on="0"/>
        <pt x="412" y="92" on="1"/>
        <pt x="412" y="159" on="1"/>
        <pt x="409" y="159" on="1"/>
        <pt x="383" y="109" on="0"/>
        <pt x="334" y="43" on="0"/>
        <pt x="283" y="4" on="0"/>
        <pt x="228" y="-12" on="0"/>
        <pt x="198" y="-12" on="1"/>
        <pt x="121" y="-12" on="0"/>
        <pt x="37" y="81" on="0"/>
        <pt x="37" y="174" on="1"/>
        <pt x="37" y="252" on="0"/>
        <pt x="73" y="384" on="0"/>
        <pt x="139" y="480" on="0"/>
        <pt x="230" y="534" on="0"/>
        <pt x="285" y="534" on="1"/>
        <pt x="361" y="534" on="0"/>
        <pt x="437" y="454" on="0"/>
        <pt x="444" y="364" on="1"/>
        <pt x="448" y="364" on="1"/>
        <pt x="487" y="447" on="1"/>
        <pt x="526" y="522" on="1"/>
        <pt x="661" y="522" on="1"/>
        <pt x="497" y="263" on="1"/>
        <pt x="527" y="99" on="1"/>
        <pt x="586" y="99" on="1"/>
      </contour>
      <contour>
        <pt x="223" y="90" on="1"/>
        <pt x="234" y="90" on="0"/>
        <pt x="257" y="99" on="0"/>
        <pt x="283" y="121" on="0"/>
        <pt x="312" y="160" on="0"/>
        <pt x="329" y="190" on="1"/>
        <pt x="370" y="262" on="1"/>
        <pt x="360" y="332" on="1"/>
        <pt x="351" y="391" on="0"/>
        <pt x="317" y="433" on="0"/>
        <pt x="290" y="433" on="1"/>
        <pt x="255" y="433" on="0"/>
        <pt x="195" y="370" on="0"/>
        <pt x="181" y="304" on="1"/>
        <pt x="167" y="232" on="1"/>
        <pt x="161" y="202" on="0"/>
        <pt x="161" y="171" on="1"/>
        <pt x="161" y="127" on="0"/>
        <pt x="194" y="90" on="0"/>
      </contour>
    </TTGlyph>
    <TTGlyph name="alpha.alt01" xMin="37" yMin="-12" xMax="559" yMax="534">
      <component glyphName="a" x="0" y="0" flags="0x204"/>
    </TTGlyph>
    <TTGlyph name="alphatonos" xMin="37" yMin="-12" xMax="661" yMax="805">
      <component glyphName="tonos" x="-17" y="0" flags="0x4"/>
      <component glyphName="alpha" x="0" y="0" flags="0x4"/>
    </TTGlyph>
    <TTGlyph name="alphatonos.alt01" xMin="37" yMin="-12" xMax="559" yMax="805">
      <component glyphName="a" x="0" y="0" flags="0x204"/>
      <component glyphName="tonos" x="-19" y="0" flags="0x4"/>
    </TTGlyph>
    <TTGlyph name="amacron" xMin="37" yMin="-12" xMax="559" yMax="720">
      <component glyphName="a" x="0" y="0" flags="0x204"/>
      <component glyphName="macron" x="40" y="0" flags="0x4"/>
    </TTGlyph>
    <TTGlyph name="amacron.alt01" xMin="24" yMin="-12" xMax="499" yMax="720">
      <component glyphName="a.alt01" x="0" y="0" flags="0x204"/>
      <component glyphName="macron" x="11" y="0" flags="0x4"/>
    </TTGlyph>
    <TTGlyph name="ampersand" xMin="33" yMin="-12" xMax="674" yMax="710">
      <contour>
        <pt x="434" y="65" on="1"/>
        <pt x="396" y="32" on="0"/>
        <pt x="295" y="-12" on="0"/>
        <pt x="229" y="-12" on="1"/>
        <pt x="180" y="-12" on="0"/>
        <pt x="107" y="13" on="0"/>
        <pt x="58" y="58" on="0"/>
        <pt x="33" y="119" on="0"/>
        <pt x="33" y="156" on="1"/>
        <pt x="33" y="199" on="0"/>
        <pt x="61" y="266" on="0"/>
        <pt x="109" y="318" on="0"/>
        <pt x="174" y="360" on="0"/>
        <pt x="211" y="379" on="1"/>
        <pt x="192" y="407" on="0"/>
        <pt x="160" y="475" on="0"/>
        <pt x="160" y="515" on="1"/>
        <pt x="160" y="557" on="0"/>
        <pt x="192" y="628" on="0"/>
        <pt x="249" y="681" on="0"/>
        <pt x="330" y="710" on="0"/>
        <pt x="378" y="710" on="1"/>
        <pt x="414" y="710" on="0"/>
        <pt x="477" y="692" on="0"/>
        <pt x="523" y="656" on="0"/>
        <pt x="549" y="602" on="0"/>
        <pt x="549" y="566" on="1"/>
        <pt x="549" y="529" on="0"/>
        <pt x="519" y="469" on="0"/>
        <pt x="468" y="419" on="0"/>
        <pt x="402" y="379" on="0"/>
        <pt x="367" y="361" on="1"/>
        <pt x="460" y="231" on="1"/>
        <pt x="478" y="264" on="0"/>
        <pt x="504" y="340" on="0"/>
        <pt x="512" y="380" on="1"/>
        <pt x="674" y="380" on="1"/>
        <pt x="653" y="275" on="1"/>
        <pt x="577" y="275" on="1"/>
        <pt x="555" y="206" on="0"/>
        <pt x="519" y="148" on="1"/>
        <pt x="625" y="0" on="1"/>
        <pt x="481" y="0" on="1"/>
      </contour>
      <contour>
        <pt x="362" y="614" on="1"/>
        <pt x="332" y="614" on="0"/>
        <pt x="290" y="578" on="0"/>
        <pt x="283" y="549" on="1"/>
        <pt x="280" y="537" on="0"/>
        <pt x="280" y="520" on="1"/>
        <pt x="280" y="500" on="0"/>
        <pt x="297" y="461" on="0"/>
        <pt x="317" y="432" on="1"/>
        <pt x="368" y="458" on="0"/>
        <pt x="427" y="511" on="0"/>
        <pt x="427" y="553" on="1"/>
        <pt x="427" y="582" on="0"/>
        <pt x="391" y="614" on="0"/>
      </contour>
      <contour>
        <pt x="259" y="92" on="1"/>
        <pt x="296" y="92" on="0"/>
        <pt x="357" y="116" on="0"/>
        <pt x="383" y="137" on="1"/>
        <pt x="260" y="310" on="1"/>
        <pt x="222" y="290" on="0"/>
        <pt x="169" y="243" on="0"/>
        <pt x="161" y="204" on="1"/>
        <pt x="158" y="192" on="0"/>
        <pt x="158" y="176" on="1"/>
        <pt x="158" y="135" on="0"/>
        <pt x="209" y="92" on="0"/>
      </contour>
    </TTGlyph>
    <TTGlyph name="anoteleia" xMin="114" yMin="367" xMax="276" yMax="533">
      <component glyphName="period" x="85" y="379" flags="0x4"/>
    </TTGlyph>
    <TTGlyph name="aogonek" xMin="37" yMin="-210" xMax="559" yMax="534">
      <contour>
        <pt x="518" y="0" on="1"/>
        <pt x="477" y="-25" on="0"/>
        <pt x="430" y="-61" on="0"/>
        <pt x="406" y="-88" on="0"/>
        <pt x="399" y="-107" on="0"/>
        <pt x="399" y="-114" on="1"/>
        <pt x="399" y="-128" on="0"/>
        <pt x="416" y="-144" on="0"/>
        <pt x="434" y="-144" on="1"/>
        <pt x="448" y="-144" on="0"/>
        <pt x="477" y="-132" on="0"/>
        <pt x="488" y="-117" on="1"/>
        <pt x="535" y="-165" on="1"/>
        <pt x="518" y="-185" on="0"/>
        <pt x="463" y="-210" on="0"/>
        <pt x="419" y="-210" on="1"/>
        <pt x="373" y="-210" on="0"/>
        <pt x="307" y="-171" on="0"/>
        <pt x="307" y="-130" on="1"/>
        <pt x="307" y="-91" on="0"/>
        <pt x="372" y="-26" on="0"/>
        <pt x="441" y="-5" on="1"/>
        <pt x="440" y="0" on="1"/>
        <pt x="432" y="0" on="1"/>
        <pt x="396" y="0" on="0"/>
        <pt x="350" y="38" on="0"/>
        <pt x="350" y="72" on="1"/>
        <pt x="350" y="80" on="0"/>
        <pt x="353" y="98" on="0"/>
        <pt x="354" y="103" on="1"/>
        <pt x="357" y="119" on="1"/>
        <pt x="352" y="119" on="1"/>
        <pt x="320" y="55" on="0"/>
        <pt x="242" y="-12" on="0"/>
        <pt x="182" y="-12" on="1"/>
        <pt x="146" y="-12" on="0"/>
        <pt x="91" y="15" on="0"/>
        <pt x="55" y="65" on="0"/>
        <pt x="37" y="133" on="0"/>
        <pt x="37" y="175" on="1"/>
        <pt x="37" y="251" on="0"/>
        <pt x="73" y="382" on="0"/>
        <pt x="138" y="479" on="0"/>
        <pt x="229" y="534" on="0"/>
        <pt x="283" y="534" on="1"/>
        <pt x="336" y="534" on="0"/>
        <pt x="408" y="478" on="0"/>
        <pt x="415" y="433" on="1"/>
        <pt x="420" y="433" on="1"/>
        <pt x="438" y="522" on="1"/>
        <pt x="559" y="522" on="1"/>
        <pt x="474" y="99" on="1"/>
        <pt x="537" y="99" on="1"/>
      </contour>
      <contour>
        <pt x="237" y="89" on="1"/>
        <pt x="266" y="89" on="0"/>
        <pt x="313" y="118" on="0"/>
        <pt x="330" y="138" on="1"/>
        <pt x="350" y="160" on="0"/>
        <pt x="376" y="217" on="0"/>
        <pt x="383" y="249" on="1"/>
        <pt x="401" y="338" on="1"/>
        <pt x="409" y="378" on="0"/>
        <pt x="358" y="433" on="0"/>
        <pt x="310" y="433" on="1"/>
        <pt x="207" y="433" on="0"/>
        <pt x="181" y="304" on="1"/>
        <pt x="167" y="232" on="1"/>
        <pt x="165" y="221" on="0"/>
        <pt x="161" y="189" on="0"/>
        <pt x="161" y="177" on="1"/>
        <pt x="161" y="137" on="0"/>
        <pt x="200" y="89" on="0"/>
      </contour>
    </TTGlyph>
    <TTGlyph name="aogonek.alt01" xMin="24" yMin="-210" xMax="499" yMax="534">
      <contour>
        <pt x="167" y="-12" on="1"/>
        <pt x="98" y="-12" on="0"/>
        <pt x="24" y="60" on="0"/>
        <pt x="24" y="121" on="1"/>
        <pt x="24" y="206" on="0"/>
        <pt x="148" y="300" on="0"/>
        <pt x="265" y="300" on="1"/>
        <pt x="360" y="300" on="1"/>
        <pt x="366" y="330" on="1"/>
        <pt x="369" y="345" on="0"/>
        <pt x="369" y="360" on="1"/>
        <pt x="369" y="435" on="0"/>
        <pt x="282" y="435" on="1"/>
        <pt x="234" y="435" on="0"/>
        <pt x="178" y="395" on="0"/>
        <pt x="155" y="365" on="1"/>
        <pt x="84" y="434" on="1"/>
        <pt x="117" y="479" on="0"/>
        <pt x="223" y="534" on="0"/>
        <pt x="298" y="534" on="1"/>
        <pt x="393" y="534" on="0"/>
        <pt x="492" y="447" on="0"/>
        <pt x="492" y="374" on="1"/>
        <pt x="492" y="352" on="0"/>
        <pt x="486" y="324" on="1"/>
        <pt x="441" y="99" on="1"/>
        <pt x="499" y="99" on="1"/>
        <pt x="480" y="0" on="1"/>
        <pt x="439" y="-25" on="0"/>
        <pt x="391" y="-61" on="0"/>
        <pt x="366" y="-88" on="0"/>
        <pt x="359" y="-107" on="0"/>
        <pt x="359" y="-114" on="1"/>
        <pt x="359" y="-128" on="0"/>
        <pt x="376" y="-144" on="0"/>
        <pt x="394" y="-144" on="1"/>
        <pt x="408" y="-144" on="0"/>
        <pt x="437" y="-132" on="0"/>
        <pt x="448" y="-117" on="1"/>
        <pt x="495" y="-165" on="1"/>
        <pt x="478" y="-185" on="0"/>
        <pt x="423" y="-210" on="0"/>
        <pt x="379" y="-210" on="1"/>
        <pt x="332" y="-210" on="0"/>
        <pt x="267" y="-171" on="0"/>
        <pt x="267" y="-130" on="1"/>
        <pt x="267" y="-91" on="0"/>
        <pt x="334" y="-26" on="0"/>
        <pt x="402" y="-5" on="1"/>
        <pt x="401" y="0" on="1"/>
        <pt x="368" y="2" on="0"/>
        <pt x="328" y="40" on="0"/>
        <pt x="328" y="72" on="1"/>
        <pt x="328" y="89" on="1"/>
        <pt x="323" y="89" on="1"/>
        <pt x="299" y="36" on="0"/>
        <pt x="220" y="-12" on="0"/>
      </contour>
      <contour>
        <pt x="216" y="79" on="1"/>
        <pt x="236" y="79" on="0"/>
        <pt x="274" y="89" on="0"/>
        <pt x="306" y="109" on="0"/>
        <pt x="328" y="138" on="0"/>
        <pt x="332" y="157" on="1"/>
        <pt x="345" y="227" on="1"/>
        <pt x="259" y="227" on="1"/>
        <pt x="168" y="227" on="0"/>
        <pt x="154" y="163" on="1"/>
        <pt x="151" y="149" on="0"/>
        <pt x="150" y="133" on="0"/>
        <pt x="150" y="129" on="1"/>
        <pt x="150" y="105" on="0"/>
        <pt x="187" y="79" on="0"/>
      </contour>
    </TTGlyph>
    <TTGlyph name="approxequal" xMin="49" yMin="109" xMax="558" yMax="502">
      <component glyphName="asciitilde" x="18" y="110" flags="0x204"/>
      <component glyphName="asciitilde" x="-17" y="-109" flags="0x4"/>
    </TTGlyph>
    <TTGlyph name="aring" xMin="37" yMin="-12" xMax="559" yMax="833">
      <component glyphName="a" x="0" y="0" flags="0x204"/>
      <component glyphName="ring" x="40" y="0" flags="0x4"/>
    </TTGlyph>
    <TTGlyph name="aring.alt01" xMin="24" yMin="-12" xMax="499" yMax="833">
      <component glyphName="a.alt01" x="0" y="0" flags="0x204"/>
      <component glyphName="ring" x="11" y="0" flags="0x4"/>
    </TTGlyph>
    <TTGlyph name="aringacute" xMin="37" yMin="-12" xMax="559" yMax="979">
      <component glyphName="a" x="0" y="0" flags="0x204"/>
      <component glyphName="ringacute" x="40" y="0" flags="0x4"/>
    </TTGlyph>
    <TTGlyph name="aringacute.alt01" xMin="24" yMin="-12" xMax="502" yMax="979">
      <component glyphName="a.alt01" x="0" y="0" flags="0x204"/>
      <component glyphName="ringacute" x="11" y="0" flags="0x4"/>
    </TTGlyph>
    <TTGlyph name="asciicircum" xMin="56" yMin="285" xMax="575" yMax="698">
      <contour>
        <pt x="474" y="285" on="1"/>
        <pt x="368" y="572" on="1"/>
        <pt x="359" y="572" on="1"/>
        <pt x="147" y="285" on="1"/>
        <pt x="56" y="339" on="1"/>
        <pt x="322" y="698" on="1"/>
        <pt x="439" y="698" on="1"/>
        <pt x="575" y="325" on="1"/>
      </contour>
    </TTGlyph>
    <TTGlyph name="asciitilde" xMin="66" yMin="218" xMax="540" yMax="392">
      <contour>
        <pt x="403" y="218" on="1"/>
        <pt x="364" y="218" on="0"/>
        <pt x="314" y="241" on="0"/>
        <pt x="285" y="257" on="1"/>
        <pt x="259" y="271" on="0"/>
        <pt x="214" y="291" on="0"/>
        <pt x="184" y="291" on="1"/>
        <pt x="161" y="291" on="0"/>
        <pt x="124" y="276" on="0"/>
        <pt x="99" y="261" on="1"/>
        <pt x="66" y="335" on="1"/>
        <pt x="88" y="358" on="0"/>
        <pt x="154" y="392" on="0"/>
        <pt x="203" y="392" on="1"/>
        <pt x="242" y="392" on="0"/>
        <pt x="292" y="369" on="0"/>
        <pt x="321" y="353" on="1"/>
        <pt x="347" y="339" on="0"/>
        <pt x="392" y="319" on="0"/>
        <pt x="422" y="319" on="1"/>
        <pt x="445" y="319" on="0"/>
        <pt x="482" y="334" on="0"/>
        <pt x="507" y="349" on="1"/>
        <pt x="540" y="275" on="1"/>
        <pt x="518" y="252" on="0"/>
        <pt x="452" y="218" on="0"/>
      </contour>
    </TTGlyph>
    <TTGlyph name="asterisk" xMin="90" yMin="281" xMax="568" yMax="747">
      <contour>
        <pt x="182" y="281" on="1"/>
        <pt x="102" y="351" on="1"/>
        <pt x="240" y="487" on="1"/>
        <pt x="90" y="535" on="1"/>
        <pt x="135" y="636" on="1"/>
        <pt x="284" y="570" on="1"/>
        <pt x="312" y="747" on="1"/>
        <pt x="424" y="747" on="1"/>
        <pt x="383" y="572" on="1"/>
        <pt x="542" y="634" on="1"/>
        <pt x="568" y="535" on="1"/>
        <pt x="394" y="481" on="1"/>
        <pt x="476" y="340" on="1"/>
        <pt x="383" y="282" on="1"/>
        <pt x="312" y="432" on="1"/>
      </contour>
    </TTGlyph>
    <TTGlyph name="at" xMin="61" yMin="-121" xMax="841" yMax="708">
      <contour>
        <pt x="377" y="-121" on="1"/>
        <pt x="303" y="-121" on="0"/>
        <pt x="185" y="-74" on="0"/>
        <pt x="104" y="11" on="0"/>
        <pt x="61" y="132" on="0"/>
        <pt x="61" y="206" on="1"/>
        <pt x="61" y="230" on="0"/>
        <pt x="66" y="284" on="0"/>
        <pt x="72" y="315" on="1"/>
        <pt x="89" y="402" on="0"/>
        <pt x="169" y="546" on="0"/>
        <pt x="285" y="650" on="0"/>
        <pt x="433" y="708" on="0"/>
        <pt x="520" y="708" on="1"/>
        <pt x="589" y="708" on="0"/>
        <pt x="706" y="665" on="0"/>
        <pt x="792" y="585" on="0"/>
        <pt x="841" y="470" on="0"/>
        <pt x="841" y="398" on="1"/>
        <pt x="841" y="379" on="0"/>
        <pt x="838" y="339" on="0"/>
        <pt x="833" y="316" on="1"/>
        <pt x="823" y="266" on="0"/>
        <pt x="783" y="179" on="0"/>
        <pt x="726" y="115" on="0"/>
        <pt x="654" y="78" on="0"/>
        <pt x="613" y="78" on="1"/>
        <pt x="562" y="78" on="0"/>
        <pt x="508" y="123" on="0"/>
        <pt x="508" y="162" on="1"/>
        <pt x="508" y="174" on="1"/>
        <pt x="504" y="174" on="1"/>
        <pt x="490" y="136" on="0"/>
        <pt x="425" y="79" on="0"/>
        <pt x="380" y="79" on="1"/>
        <pt x="321" y="79" on="0"/>
        <pt x="249" y="156" on="0"/>
        <pt x="249" y="231" on="1"/>
        <pt x="249" y="246" on="0"/>
        <pt x="252" y="279" on="0"/>
        <pt x="257" y="300" on="1"/>
        <pt x="278" y="399" on="0"/>
        <pt x="379" y="501" on="0"/>
        <pt x="444" y="501" on="1"/>
        <pt x="489" y="501" on="0"/>
        <pt x="537" y="461" on="0"/>
        <pt x="545" y="428" on="1"/>
        <pt x="549" y="428" on="1"/>
        <pt x="562" y="492" on="1"/>
        <pt x="660" y="492" on="1"/>
        <pt x="605" y="219" on="1"/>
        <pt x="602" y="202" on="0"/>
        <pt x="602" y="189" on="1"/>
        <pt x="602" y="156" on="0"/>
        <pt x="634" y="156" on="1"/>
        <pt x="670" y="156" on="0"/>
        <pt x="728" y="233" on="0"/>
        <pt x="745" y="313" on="1"/>
        <pt x="752" y="350" on="1"/>
        <pt x="755" y="363" on="0"/>
        <pt x="757" y="390" on="0"/>
        <pt x="757" y="410" on="1"/>
        <pt x="757" y="461" on="0"/>
        <pt x="721" y="543" on="0"/>
        <pt x="656" y="600" on="0"/>
        <pt x="565" y="631" on="0"/>
        <pt x="510" y="631" on="1"/>
        <pt x="445" y="631" on="0"/>
        <pt x="330" y="588" on="0"/>
        <pt x="240" y="508" on="0"/>
        <pt x="177" y="397" on="0"/>
        <pt x="164" y="329" on="1"/>
        <pt x="155" y="283" on="1"/>
        <pt x="151" y="262" on="0"/>
        <pt x="146" y="222" on="0"/>
        <pt x="146" y="205" on="1"/>
        <pt x="146" y="148" on="0"/>
        <pt x="179" y="56" on="0"/>
        <pt x="242" y="-9" on="0"/>
        <pt x="333" y="-43" on="0"/>
        <pt x="390" y="-43" on="1"/>
        <pt x="591" y="-43" on="1"/>
        <pt x="575" y="-121" on="1"/>
      </contour>
      <contour>
        <pt x="416" y="161" on="1"/>
        <pt x="434" y="161" on="0"/>
        <pt x="467" y="176" on="0"/>
        <pt x="492" y="200" on="0"/>
        <pt x="509" y="229" on="0"/>
        <pt x="512" y="244" on="1"/>
        <pt x="533" y="350" on="1"/>
        <pt x="538" y="377" on="0"/>
        <pt x="498" y="418" on="0"/>
        <pt x="461" y="418" on="1"/>
        <pt x="423" y="418" on="0"/>
        <pt x="376" y="369" on="0"/>
        <pt x="368" y="329" on="1"/>
        <pt x="352" y="251" on="1"/>
        <pt x="350" y="243" on="0"/>
        <pt x="350" y="233" on="0"/>
        <pt x="350" y="228" on="1"/>
        <pt x="350" y="196" on="0"/>
        <pt x="383" y="161" on="0"/>
      </contour>
    </TTGlyph>
    <TTGlyph name="atilde" xMin="37" yMin="-12" xMax="559" yMax="743">
      <component glyphName="a" x="0" y="0" flags="0x204"/>
      <component glyphName="tilde" x="40" y="0" flags="0x4"/>
    </TTGlyph>
    <TTGlyph name="atilde.alt01" xMin="24" yMin="-12" xMax="506" yMax="743">
      <component glyphName="a.alt01" x="0" y="0" flags="0x204"/>
      <component glyphName="tilde" x="11" y="0" flags="0x4"/>
    </TTGlyph>
    <TTGlyph name="b" xMin="21" yMin="-12" xMax="543" yMax="740">
      <contour>
        <pt x="169" y="740" on="1"/>
        <pt x="290" y="740" on="1"/>
        <pt x="223" y="403" on="1"/>
        <pt x="228" y="403" on="1"/>
        <pt x="260" y="467" on="0"/>
        <pt x="338" y="534" on="0"/>
        <pt x="398" y="534" on="1"/>
        <pt x="434" y="534" on="0"/>
        <pt x="489" y="506" on="0"/>
        <pt x="525" y="457" on="0"/>
        <pt x="543" y="388" on="0"/>
        <pt x="543" y="347" on="1"/>
        <pt x="543" y="271" on="0"/>
        <pt x="507" y="140" on="0"/>
        <pt x="442" y="43" on="0"/>
        <pt x="351" y="-12" on="0"/>
        <pt x="297" y="-12" on="1"/>
        <pt x="244" y="-12" on="0"/>
        <pt x="172" y="44" on="0"/>
        <pt x="165" y="89" on="1"/>
        <pt x="160" y="89" on="1"/>
        <pt x="142" y="0" on="1"/>
        <pt x="21" y="0" on="1"/>
      </contour>
      <contour>
        <pt x="270" y="89" on="1"/>
        <pt x="373" y="89" on="0"/>
        <pt x="399" y="218" on="1"/>
        <pt x="413" y="290" on="1"/>
        <pt x="415" y="301" on="0"/>
        <pt x="419" y="333" on="0"/>
        <pt x="419" y="345" on="1"/>
        <pt x="419" y="385" on="0"/>
        <pt x="380" y="433" on="0"/>
        <pt x="343" y="433" on="1"/>
        <pt x="314" y="433" on="0"/>
        <pt x="267" y="404" on="0"/>
        <pt x="250" y="384" on="1"/>
        <pt x="230" y="362" on="0"/>
        <pt x="204" y="305" on="0"/>
        <pt x="197" y="273" on="1"/>
        <pt x="179" y="184" on="1"/>
        <pt x="171" y="144" on="0"/>
        <pt x="222" y="89" on="0"/>
      </contour>
    </TTGlyph>
    <TTGlyph name="backslash" xMin="146" yMin="-151" xMax="350" yMax="740">
      <contour>
        <pt x="249" y="-151" on="1"/>
        <pt x="146" y="740" on="1"/>
        <pt x="247" y="740" on="1"/>
        <pt x="350" y="-151" on="1"/>
      </contour>
    </TTGlyph>
    <TTGlyph name="bar" xMin="50" yMin="-138" xMax="339" yMax="760">
      <contour>
        <pt x="50" y="-138" on="1"/>
        <pt x="230" y="760" on="1"/>
        <pt x="339" y="760" on="1"/>
        <pt x="159" y="-138" on="1"/>
      </contour>
    </TTGlyph>
    <TTGlyph name="beta" xMin="-20" yMin="-200" xMax="561" yMax="752">
      <contour>
        <pt x="122" y="509" on="1"/>
        <pt x="147" y="632" on="0"/>
        <pt x="282" y="752" on="0"/>
        <pt x="379" y="752" on="1"/>
        <pt x="467" y="752" on="0"/>
        <pt x="561" y="663" on="0"/>
        <pt x="561" y="582" on="1"/>
        <pt x="561" y="542" on="0"/>
        <pt x="538" y="478" on="0"/>
        <pt x="498" y="431" on="0"/>
        <pt x="443" y="399" on="0"/>
        <pt x="410" y="390" on="1"/>
        <pt x="409" y="385" on="1"/>
        <pt x="466" y="373" on="0"/>
        <pt x="527" y="298" on="0"/>
        <pt x="527" y="230" on="1"/>
        <pt x="527" y="184" on="0"/>
        <pt x="495" y="97" on="0"/>
        <pt x="436" y="29" on="0"/>
        <pt x="353" y="-12" on="0"/>
        <pt x="302" y="-12" on="1"/>
        <pt x="244" y="-12" on="0"/>
        <pt x="171" y="44" on="0"/>
        <pt x="164" y="89" on="1"/>
        <pt x="159" y="89" on="1"/>
        <pt x="101" y="-200" on="1"/>
        <pt x="-20" y="-200" on="1"/>
      </contour>
      <contour>
        <pt x="291" y="435" on="1"/>
        <pt x="329" y="435" on="1"/>
        <pt x="371" y="435" on="0"/>
        <pt x="421" y="481" on="0"/>
        <pt x="431" y="525" on="1"/>
        <pt x="436" y="546" on="0"/>
        <pt x="439" y="573" on="0"/>
        <pt x="439" y="584" on="1"/>
        <pt x="439" y="615" on="0"/>
        <pt x="403" y="652" on="0"/>
        <pt x="368" y="652" on="1"/>
        <pt x="327" y="652" on="0"/>
        <pt x="261" y="591" on="0"/>
        <pt x="245" y="515" on="1"/>
        <pt x="181" y="196" on="1"/>
        <pt x="170" y="146" on="0"/>
        <pt x="216" y="88" on="0"/>
        <pt x="273" y="88" on="1"/>
        <pt x="324" y="88" on="0"/>
        <pt x="388" y="137" on="0"/>
        <pt x="398" y="192" on="1"/>
        <pt x="402" y="212" on="0"/>
        <pt x="405" y="239" on="0"/>
        <pt x="405" y="252" on="1"/>
        <pt x="405" y="337" on="0"/>
        <pt x="313" y="337" on="1"/>
        <pt x="271" y="337" on="1"/>
      </contour>
    </TTGlyph>
    <TTGlyph name="braceleft" xMin="24" yMin="-138" xMax="410" yMax="760">
      <contour>
        <pt x="131" y="-138" on="1"/>
        <pt x="96" y="-138" on="0"/>
        <pt x="54" y="-101" on="0"/>
        <pt x="54" y="-67" on="1"/>
        <pt x="54" y="-61" on="0"/>
        <pt x="55" y="-48" on="0"/>
        <pt x="57" y="-37" on="1"/>
        <pt x="97" y="160" on="1"/>
        <pt x="100" y="175" on="0"/>
        <pt x="100" y="189" on="1"/>
        <pt x="100" y="260" on="0"/>
        <pt x="24" y="260" on="1"/>
        <pt x="45" y="363" on="1"/>
        <pt x="137" y="363" on="0"/>
        <pt x="155" y="451" on="1"/>
        <pt x="198" y="666" on="1"/>
        <pt x="207" y="713" on="0"/>
        <pt x="262" y="760" on="0"/>
        <pt x="301" y="760" on="1"/>
        <pt x="410" y="760" on="1"/>
        <pt x="392" y="668" on="1"/>
        <pt x="311" y="668" on="1"/>
        <pt x="265" y="439" on="1"/>
        <pt x="260" y="416" on="0"/>
        <pt x="243" y="374" on="0"/>
        <pt x="213" y="339" on="0"/>
        <pt x="170" y="317" on="0"/>
        <pt x="140" y="315" on="1"/>
        <pt x="139" y="307" on="1"/>
        <pt x="174" y="300" on="0"/>
        <pt x="218" y="251" on="0"/>
        <pt x="218" y="213" on="1"/>
        <pt x="218" y="205" on="0"/>
        <pt x="215" y="188" on="0"/>
        <pt x="213" y="180" on="1"/>
        <pt x="167" y="-46" on="1"/>
        <pt x="249" y="-46" on="1"/>
        <pt x="230" y="-138" on="1"/>
      </contour>
    </TTGlyph>
    <TTGlyph name="braceright" xMin="-39" yMin="-138" xMax="347" yMax="760">
      <contour>
        <pt x="-21" y="-46" on="1"/>
        <pt x="60" y="-46" on="1"/>
        <pt x="106" y="183" on="1"/>
        <pt x="110" y="205" on="0"/>
        <pt x="128" y="248" on="0"/>
        <pt x="158" y="283" on="0"/>
        <pt x="201" y="305" on="0"/>
        <pt x="231" y="307" on="1"/>
        <pt x="232" y="315" on="1"/>
        <pt x="197" y="322" on="0"/>
        <pt x="153" y="371" on="0"/>
        <pt x="153" y="409" on="1"/>
        <pt x="153" y="417" on="0"/>
        <pt x="156" y="434" on="0"/>
        <pt x="158" y="442" on="1"/>
        <pt x="204" y="668" on="1"/>
        <pt x="122" y="668" on="1"/>
        <pt x="141" y="760" on="1"/>
        <pt x="240" y="760" on="1"/>
        <pt x="275" y="760" on="0"/>
        <pt x="317" y="723" on="0"/>
        <pt x="317" y="689" on="1"/>
        <pt x="317" y="683" on="0"/>
        <pt x="316" y="670" on="0"/>
        <pt x="314" y="659" on="1"/>
        <pt x="274" y="462" on="1"/>
        <pt x="271" y="447" on="0"/>
        <pt x="271" y="433" on="1"/>
        <pt x="271" y="362" on="0"/>
        <pt x="347" y="362" on="1"/>
        <pt x="326" y="259" on="1"/>
        <pt x="234" y="259" on="0"/>
        <pt x="216" y="171" on="1"/>
        <pt x="173" y="-44" on="1"/>
        <pt x="164" y="-91" on="0"/>
        <pt x="109" y="-138" on="0"/>
        <pt x="70" y="-138" on="1"/>
        <pt x="-39" y="-138" on="1"/>
      </contour>
    </TTGlyph>
    <TTGlyph name="bracketleft" xMin="0" yMin="-138" xMax="380" yMax="760">
      <contour>
        <pt x="0" y="-138" on="1"/>
        <pt x="180" y="760" on="1"/>
        <pt x="380" y="760" on="1"/>
        <pt x="363" y="673" on="1"/>
        <pt x="273" y="673" on="1"/>
        <pt x="127" y="-51" on="1"/>
        <pt x="217" y="-51" on="1"/>
        <pt x="200" y="-138" on="1"/>
      </contour>
    </TTGlyph>
    <TTGlyph name="bracketright" xMin="-39" yMin="-138" xMax="341" yMax="760">
      <contour>
        <pt x="341" y="760" on="1"/>
        <pt x="161" y="-138" on="1"/>
        <pt x="-39" y="-138" on="1"/>
        <pt x="-22" y="-51" on="1"/>
        <pt x="68" y="-51" on="1"/>
        <pt x="214" y="673" on="1"/>
        <pt x="124" y="673" on="1"/>
        <pt x="141" y="760" on="1"/>
      </contour>
    </TTGlyph>
    <TTGlyph name="breve" xMin="147" yMin="584" xMax="508" yMax="779">
      <contour>
        <pt x="305" y="584" on="1"/>
        <pt x="264" y="584" on="0"/>
        <pt x="209" y="613" on="0"/>
        <pt x="173" y="659" on="0"/>
        <pt x="152" y="716" on="0"/>
        <pt x="147" y="744" on="1"/>
        <pt x="217" y="779" on="1"/>
        <pt x="232" y="745" on="1"/>
        <pt x="248" y="711" on="0"/>
        <pt x="280" y="674" on="0"/>
        <pt x="311" y="674" on="1"/>
        <pt x="338" y="674" on="0"/>
        <pt x="381" y="709" on="0"/>
        <pt x="410" y="747" on="1"/>
        <pt x="435" y="779" on="1"/>
        <pt x="508" y="741" on="1"/>
        <pt x="492" y="712" on="0"/>
        <pt x="454" y="656" on="0"/>
        <pt x="406" y="612" on="0"/>
        <pt x="344" y="584" on="0"/>
      </contour>
    </TTGlyph>
    <TTGlyph name="breve.case" xMin="148" yMin="747" xMax="509" yMax="942">
      <contour>
        <pt x="306" y="747" on="1"/>
        <pt x="265" y="747" on="0"/>
        <pt x="210" y="776" on="0"/>
        <pt x="174" y="822" on="0"/>
        <pt x="153" y="879" on="0"/>
        <pt x="148" y="907" on="1"/>
        <pt x="218" y="942" on="1"/>
        <pt x="233" y="908" on="1"/>
        <pt x="249" y="874" on="0"/>
        <pt x="281" y="837" on="0"/>
        <pt x="312" y="837" on="1"/>
        <pt x="339" y="837" on="0"/>
        <pt x="382" y="872" on="0"/>
        <pt x="411" y="910" on="1"/>
        <pt x="436" y="942" on="1"/>
        <pt x="509" y="904" on="1"/>
        <pt x="493" y="875" on="0"/>
        <pt x="455" y="819" on="0"/>
        <pt x="407" y="775" on="0"/>
        <pt x="345" y="747" on="0"/>
      </contour>
    </TTGlyph>
    <TTGlyph name="breve.cyrl" xMin="157" yMin="584" xMax="510" yMax="773">
      <contour>
        <pt x="311" y="584" on="1"/>
        <pt x="260" y="584" on="0"/>
        <pt x="192" y="631" on="0"/>
        <pt x="173" y="686" on="1"/>
        <pt x="157" y="734" on="1"/>
        <pt x="258" y="773" on="1"/>
        <pt x="276" y="677" on="1"/>
        <pt x="284" y="674" on="0"/>
        <pt x="310" y="671" on="0"/>
        <pt x="322" y="671" on="1"/>
        <pt x="336" y="671" on="0"/>
        <pt x="359" y="674" on="0"/>
        <pt x="366" y="677" on="1"/>
        <pt x="413" y="773" on="1"/>
        <pt x="510" y="732" on="1"/>
        <pt x="481" y="686" on="1"/>
        <pt x="449" y="634" on="0"/>
        <pt x="366" y="584" on="0"/>
      </contour>
    </TTGlyph>
    <TTGlyph name="breve.cyrl_case" xMin="159" yMin="748" xMax="512" yMax="937">
      <contour>
        <pt x="313" y="748" on="1"/>
        <pt x="262" y="748" on="0"/>
        <pt x="194" y="795" on="0"/>
        <pt x="175" y="850" on="1"/>
        <pt x="159" y="898" on="1"/>
        <pt x="260" y="937" on="1"/>
        <pt x="278" y="841" on="1"/>
        <pt x="286" y="838" on="0"/>
        <pt x="312" y="835" on="0"/>
        <pt x="324" y="835" on="1"/>
        <pt x="338" y="835" on="0"/>
        <pt x="361" y="838" on="0"/>
        <pt x="368" y="841" on="1"/>
        <pt x="415" y="937" on="1"/>
        <pt x="512" y="896" on="1"/>
        <pt x="483" y="850" on="1"/>
        <pt x="451" y="798" on="0"/>
        <pt x="368" y="748" on="0"/>
      </contour>
    </TTGlyph>
    <TTGlyph name="breveacute" xMin="-153" yMin="576" xMax="219" yMax="945">
      <contour>
        <pt x="14" y="576" on="1"/>
        <pt x="-28" y="576" on="0"/>
        <pt x="-88" y="602" on="0"/>
        <pt x="-127" y="643" on="0"/>
        <pt x="-148" y="695" on="0"/>
        <pt x="-153" y="721" on="1"/>
        <pt x="-87" y="759" on="1"/>
        <pt x="-72" y="732" on="1"/>
        <pt x="-62" y="714" on="0"/>
        <pt x="-44" y="688" on="0"/>
        <pt x="-24" y="671" on="0"/>
        <pt x="1" y="664" on="0"/>
        <pt x="18" y="664" on="1"/>
        <pt x="47" y="664" on="0"/>
        <pt x="94" y="694" on="0"/>
        <pt x="129" y="732" on="1"/>
        <pt x="153" y="759" on="1"/>
        <pt x="219" y="718" on="1"/>
        <pt x="202" y="690" on="0"/>
        <pt x="164" y="638" on="0"/>
        <pt x="115" y="599" on="0"/>
        <pt x="54" y="576" on="0"/>
      </contour>
      <contour>
        <pt x="46" y="723" on="1"/>
        <pt x="-21" y="759" on="1"/>
        <pt x="85" y="945" on="1"/>
        <pt x="180" y="894" on="1"/>
      </contour>
    </TTGlyph>
    <TTGlyph name="breveacute.case" xMin="-153" yMin="739" xMax="219" yMax="1108">
      <contour>
        <pt x="14" y="739" on="1"/>
        <pt x="-28" y="739" on="0"/>
        <pt x="-88" y="765" on="0"/>
        <pt x="-127" y="806" on="0"/>
        <pt x="-148" y="858" on="0"/>
        <pt x="-153" y="884" on="1"/>
        <pt x="-87" y="922" on="1"/>
        <pt x="-72" y="895" on="1"/>
        <pt x="-62" y="877" on="0"/>
        <pt x="-44" y="851" on="0"/>
        <pt x="-24" y="834" on="0"/>
        <pt x="1" y="827" on="0"/>
        <pt x="18" y="827" on="1"/>
        <pt x="47" y="827" on="0"/>
        <pt x="94" y="857" on="0"/>
        <pt x="129" y="895" on="1"/>
        <pt x="153" y="922" on="1"/>
        <pt x="219" y="881" on="1"/>
        <pt x="202" y="853" on="0"/>
        <pt x="164" y="801" on="0"/>
        <pt x="115" y="762" on="0"/>
        <pt x="54" y="739" on="0"/>
      </contour>
      <contour>
        <pt x="46" y="886" on="1"/>
        <pt x="-21" y="922" on="1"/>
        <pt x="85" y="1108" on="1"/>
        <pt x="180" y="1057" on="1"/>
      </contour>
    </TTGlyph>
    <TTGlyph name="brevegrave" xMin="-153" yMin="576" xMax="219" yMax="944">
      <contour>
        <pt x="14" y="576" on="1"/>
        <pt x="-28" y="576" on="0"/>
        <pt x="-88" y="602" on="0"/>
        <pt x="-127" y="643" on="0"/>
        <pt x="-148" y="695" on="0"/>
        <pt x="-153" y="721" on="1"/>
        <pt x="-87" y="759" on="1"/>
        <pt x="-72" y="732" on="1"/>
        <pt x="-62" y="714" on="0"/>
        <pt x="-44" y="688" on="0"/>
        <pt x="-24" y="671" on="0"/>
        <pt x="1" y="664" on="0"/>
        <pt x="18" y="664" on="1"/>
        <pt x="47" y="664" on="0"/>
        <pt x="94" y="694" on="0"/>
        <pt x="129" y="732" on="1"/>
        <pt x="153" y="759" on="1"/>
        <pt x="219" y="718" on="1"/>
        <pt x="202" y="690" on="0"/>
        <pt x="164" y="638" on="0"/>
        <pt x="115" y="599" on="0"/>
        <pt x="54" y="576" on="0"/>
      </contour>
      <contour>
        <pt x="-81" y="896" on="1"/>
        <pt x="24" y="944" on="1"/>
        <pt x="84" y="757" on="1"/>
        <pt x="11" y="724" on="1"/>
      </contour>
    </TTGlyph>
    <TTGlyph name="brevegrave.case" xMin="-153" yMin="739" xMax="219" yMax="1107">
      <contour>
        <pt x="14" y="739" on="1"/>
        <pt x="-28" y="739" on="0"/>
        <pt x="-88" y="765" on="0"/>
        <pt x="-127" y="806" on="0"/>
        <pt x="-148" y="858" on="0"/>
        <pt x="-153" y="884" on="1"/>
        <pt x="-87" y="922" on="1"/>
        <pt x="-72" y="895" on="1"/>
        <pt x="-62" y="877" on="0"/>
        <pt x="-44" y="851" on="0"/>
        <pt x="-24" y="834" on="0"/>
        <pt x="1" y="827" on="0"/>
        <pt x="18" y="827" on="1"/>
        <pt x="47" y="827" on="0"/>
        <pt x="94" y="857" on="0"/>
        <pt x="129" y="895" on="1"/>
        <pt x="153" y="922" on="1"/>
        <pt x="219" y="881" on="1"/>
        <pt x="202" y="853" on="0"/>
        <pt x="164" y="801" on="0"/>
        <pt x="115" y="762" on="0"/>
        <pt x="54" y="739" on="0"/>
      </contour>
      <contour>
        <pt x="-81" y="1059" on="1"/>
        <pt x="24" y="1107" on="1"/>
        <pt x="84" y="920" on="1"/>
        <pt x="11" y="887" on="1"/>
      </contour>
    </TTGlyph>
    <TTGlyph name="brevehook" xMin="-153" yMin="576" xMax="219" yMax="931">
      <contour>
        <pt x="14" y="576" on="1"/>
        <pt x="-28" y="576" on="0"/>
        <pt x="-88" y="602" on="0"/>
        <pt x="-127" y="643" on="0"/>
        <pt x="-148" y="695" on="0"/>
        <pt x="-153" y="721" on="1"/>
        <pt x="-87" y="759" on="1"/>
        <pt x="-72" y="732" on="1"/>
        <pt x="-62" y="714" on="0"/>
        <pt x="-44" y="688" on="0"/>
        <pt x="-24" y="671" on="0"/>
        <pt x="1" y="664" on="0"/>
        <pt x="18" y="664" on="1"/>
        <pt x="47" y="664" on="0"/>
        <pt x="94" y="694" on="0"/>
        <pt x="129" y="732" on="1"/>
        <pt x="153" y="759" on="1"/>
        <pt x="219" y="718" on="1"/>
        <pt x="202" y="690" on="0"/>
        <pt x="164" y="638" on="0"/>
        <pt x="115" y="599" on="0"/>
        <pt x="54" y="576" on="0"/>
      </contour>
      <contour>
        <pt x="-51" y="931" on="1"/>
        <pt x="75" y="931" on="1"/>
        <pt x="113" y="931" on="0"/>
        <pt x="147" y="899" on="0"/>
        <pt x="147" y="876" on="1"/>
        <pt x="147" y="847" on="0"/>
        <pt x="117" y="796" on="0"/>
        <pt x="94" y="768" on="1"/>
        <pt x="46" y="712" on="1"/>
        <pt x="-14" y="743" on="1"/>
        <pt x="42" y="843" on="1"/>
        <pt x="-68" y="843" on="1"/>
      </contour>
    </TTGlyph>
    <TTGlyph name="brevehook.case" xMin="-153" yMin="739" xMax="219" yMax="1094">
      <contour>
        <pt x="-51" y="1094" on="1"/>
        <pt x="75" y="1094" on="1"/>
        <pt x="113" y="1094" on="0"/>
        <pt x="147" y="1062" on="0"/>
        <pt x="147" y="1039" on="1"/>
        <pt x="147" y="1010" on="0"/>
        <pt x="117" y="959" on="0"/>
        <pt x="94" y="931" on="1"/>
        <pt x="46" y="875" on="1"/>
        <pt x="-14" y="906" on="1"/>
        <pt x="42" y="1006" on="1"/>
        <pt x="-68" y="1006" on="1"/>
      </contour>
      <contour>
        <pt x="14" y="739" on="1"/>
        <pt x="-28" y="739" on="0"/>
        <pt x="-88" y="765" on="0"/>
        <pt x="-127" y="806" on="0"/>
        <pt x="-148" y="858" on="0"/>
        <pt x="-153" y="884" on="1"/>
        <pt x="-87" y="922" on="1"/>
        <pt x="-72" y="895" on="1"/>
        <pt x="-62" y="877" on="0"/>
        <pt x="-44" y="851" on="0"/>
        <pt x="-24" y="834" on="0"/>
        <pt x="1" y="827" on="0"/>
        <pt x="18" y="827" on="1"/>
        <pt x="47" y="827" on="0"/>
        <pt x="94" y="857" on="0"/>
        <pt x="129" y="895" on="1"/>
        <pt x="153" y="922" on="1"/>
        <pt x="219" y="881" on="1"/>
        <pt x="202" y="853" on="0"/>
        <pt x="164" y="801" on="0"/>
        <pt x="115" y="762" on="0"/>
        <pt x="54" y="739" on="0"/>
      </contour>
    </TTGlyph>
    <TTGlyph name="brevetilde" xMin="-153" yMin="576" xMax="219" yMax="917">
      <contour>
        <pt x="14" y="576" on="1"/>
        <pt x="-28" y="576" on="0"/>
        <pt x="-88" y="602" on="0"/>
        <pt x="-127" y="643" on="0"/>
        <pt x="-148" y="695" on="0"/>
        <pt x="-153" y="721" on="1"/>
        <pt x="-87" y="759" on="1"/>
        <pt x="-72" y="732" on="1"/>
        <pt x="-62" y="714" on="0"/>
        <pt x="-44" y="688" on="0"/>
        <pt x="-24" y="671" on="0"/>
        <pt x="1" y="664" on="0"/>
        <pt x="18" y="664" on="1"/>
        <pt x="47" y="664" on="0"/>
        <pt x="94" y="694" on="0"/>
        <pt x="129" y="732" on="1"/>
        <pt x="153" y="759" on="1"/>
        <pt x="219" y="718" on="1"/>
        <pt x="202" y="690" on="0"/>
        <pt x="164" y="638" on="0"/>
        <pt x="115" y="599" on="0"/>
        <pt x="54" y="576" on="0"/>
      </contour>
      <contour>
        <pt x="104" y="782" on="1"/>
        <pt x="82" y="782" on="0"/>
        <pt x="50" y="796" on="0"/>
        <pt x="34" y="804" on="1"/>
        <pt x="14" y="815" on="0"/>
        <pt x="-17" y="827" on="0"/>
        <pt x="-34" y="827" on="1"/>
        <pt x="-50" y="827" on="0"/>
        <pt x="-78" y="814" on="0"/>
        <pt x="-95" y="801" on="1"/>
        <pt x="-127" y="858" on="1"/>
        <pt x="-107" y="883" on="0"/>
        <pt x="-50" y="917" on="0"/>
        <pt x="-13" y="917" on="1"/>
        <pt x="9" y="917" on="0"/>
        <pt x="41" y="903" on="0"/>
        <pt x="57" y="895" on="1"/>
        <pt x="77" y="884" on="0"/>
        <pt x="108" y="872" on="0"/>
        <pt x="125" y="872" on="1"/>
        <pt x="141" y="872" on="0"/>
        <pt x="169" y="885" on="0"/>
        <pt x="186" y="898" on="1"/>
        <pt x="218" y="841" on="1"/>
        <pt x="198" y="816" on="0"/>
        <pt x="141" y="782" on="0"/>
      </contour>
    </TTGlyph>
    <TTGlyph name="brevetilde.case" xMin="-153" yMin="739" xMax="219" yMax="1080">
      <contour>
        <pt x="104" y="945" on="1"/>
        <pt x="82" y="945" on="0"/>
        <pt x="50" y="959" on="0"/>
        <pt x="34" y="967" on="1"/>
        <pt x="14" y="978" on="0"/>
        <pt x="-17" y="990" on="0"/>
        <pt x="-34" y="990" on="1"/>
        <pt x="-50" y="990" on="0"/>
        <pt x="-78" y="977" on="0"/>
        <pt x="-95" y="964" on="1"/>
        <pt x="-127" y="1021" on="1"/>
        <pt x="-107" y="1046" on="0"/>
        <pt x="-50" y="1080" on="0"/>
        <pt x="-13" y="1080" on="1"/>
        <pt x="9" y="1080" on="0"/>
        <pt x="41" y="1066" on="0"/>
        <pt x="57" y="1058" on="1"/>
        <pt x="77" y="1047" on="0"/>
        <pt x="108" y="1035" on="0"/>
        <pt x="125" y="1035" on="1"/>
        <pt x="141" y="1035" on="0"/>
        <pt x="169" y="1048" on="0"/>
        <pt x="186" y="1061" on="1"/>
        <pt x="218" y="1004" on="1"/>
        <pt x="198" y="979" on="0"/>
        <pt x="141" y="945" on="0"/>
      </contour>
      <contour>
        <pt x="14" y="739" on="1"/>
        <pt x="-28" y="739" on="0"/>
        <pt x="-88" y="765" on="0"/>
        <pt x="-127" y="806" on="0"/>
        <pt x="-148" y="858" on="0"/>
        <pt x="-153" y="884" on="1"/>
        <pt x="-87" y="922" on="1"/>
        <pt x="-72" y="895" on="1"/>
        <pt x="-62" y="877" on="0"/>
        <pt x="-44" y="851" on="0"/>
        <pt x="-24" y="834" on="0"/>
        <pt x="1" y="827" on="0"/>
        <pt x="18" y="827" on="1"/>
        <pt x="47" y="827" on="0"/>
        <pt x="94" y="857" on="0"/>
        <pt x="129" y="895" on="1"/>
        <pt x="153" y="922" on="1"/>
        <pt x="219" y="881" on="1"/>
        <pt x="202" y="853" on="0"/>
        <pt x="164" y="801" on="0"/>
        <pt x="115" y="762" on="0"/>
        <pt x="54" y="739" on="0"/>
      </contour>
    </TTGlyph>
    <TTGlyph name="brokenbar" xMin="50" yMin="-138" xMax="339" yMax="760">
      <contour>
        <pt x="158" y="403" on="1"/>
        <pt x="230" y="760" on="1"/>
        <pt x="339" y="760" on="1"/>
        <pt x="267" y="403" on="1"/>
      </contour>
      <contour>
        <pt x="50" y="-138" on="1"/>
        <pt x="122" y="219" on="1"/>
        <pt x="231" y="219" on="1"/>
        <pt x="159" y="-138" on="1"/>
      </contour>
    </TTGlyph>
    <TTGlyph name="bullet" xMin="66" yMin="159" xMax="361" yMax="437">
      <contour>
        <pt x="193" y="159" on="1"/>
        <pt x="123" y="159" on="0"/>
        <pt x="66" y="210" on="0"/>
        <pt x="66" y="252" on="1"/>
        <pt x="66" y="257" on="0"/>
        <pt x="70" y="288" on="0"/>
        <pt x="75" y="315" on="1"/>
        <pt x="85" y="367" on="0"/>
        <pt x="160" y="437" on="0"/>
        <pt x="234" y="437" on="1"/>
        <pt x="304" y="437" on="0"/>
        <pt x="361" y="386" on="0"/>
        <pt x="361" y="344" on="1"/>
        <pt x="361" y="339" on="0"/>
        <pt x="357" y="308" on="0"/>
        <pt x="352" y="281" on="1"/>
        <pt x="342" y="229" on="0"/>
        <pt x="267" y="159" on="0"/>
      </contour>
    </TTGlyph>
    <TTGlyph name="c" xMin="37" yMin="-12" xMax="491" yMax="534">
      <contour>
        <pt x="237" y="-12" on="1"/>
        <pt x="194" y="-12" on="0"/>
        <pt x="121" y="15" on="0"/>
        <pt x="67" y="69" on="0"/>
        <pt x="37" y="153" on="0"/>
        <pt x="37" y="210" on="1"/>
        <pt x="37" y="279" on="0"/>
        <pt x="77" y="398" on="0"/>
        <pt x="149" y="485" on="0"/>
        <pt x="249" y="534" on="0"/>
        <pt x="308" y="534" on="1"/>
        <pt x="381" y="534" on="0"/>
        <pt x="480" y="462" on="0"/>
        <pt x="491" y="403" on="1"/>
        <pt x="389" y="363" on="1"/>
        <pt x="378" y="396" on="0"/>
        <pt x="342" y="434" on="0"/>
        <pt x="301" y="434" on="1"/>
        <pt x="203" y="434" on="0"/>
        <pt x="180" y="313" on="1"/>
        <pt x="162" y="226" on="1"/>
        <pt x="157" y="203" on="0"/>
        <pt x="157" y="183" on="1"/>
        <pt x="157" y="141" on="0"/>
        <pt x="201" y="88" on="0"/>
        <pt x="248" y="88" on="1"/>
        <pt x="287" y="88" on="0"/>
        <pt x="336" y="133" on="0"/>
        <pt x="360" y="176" on="1"/>
        <pt x="453" y="132" on="1"/>
        <pt x="419" y="61" on="0"/>
        <pt x="310" y="-12" on="0"/>
      </contour>
    </TTGlyph>
    <TTGlyph name="cacute" xMin="37" yMin="-12" xMax="491" yMax="805">
      <component glyphName="c" x="0" y="0" flags="0x204"/>
      <component glyphName="acute" x="19" y="0" flags="0x4"/>
    </TTGlyph>
    <TTGlyph name="caron" xMin="151" yMin="591" xMax="511" yMax="794">
      <contour>
        <pt x="246" y="591" on="1"/>
        <pt x="151" y="745" on="1"/>
        <pt x="216" y="794" on="1"/>
        <pt x="310" y="679" on="1"/>
        <pt x="448" y="794" on="1"/>
        <pt x="511" y="745" on="1"/>
        <pt x="361" y="591" on="1"/>
      </contour>
    </TTGlyph>
    <TTGlyph name="caron.case" xMin="152" yMin="754" xMax="512" yMax="957">
      <contour>
        <pt x="247" y="754" on="1"/>
        <pt x="152" y="908" on="1"/>
        <pt x="217" y="957" on="1"/>
        <pt x="311" y="842" on="1"/>
        <pt x="449" y="957" on="1"/>
        <pt x="512" y="908" on="1"/>
        <pt x="362" y="754" on="1"/>
      </contour>
    </TTGlyph>
    <TTGlyph name="ccaron" xMin="37" yMin="-12" xMax="530" yMax="794">
      <component glyphName="c" x="0" y="0" flags="0x204"/>
      <component glyphName="caron" x="19" y="0" flags="0x4"/>
    </TTGlyph>
    <TTGlyph name="ccedilla" xMin="37" yMin="-210" xMax="491" yMax="534">
      <contour>
        <pt x="308" y="534" on="1"/>
        <pt x="381" y="534" on="0"/>
        <pt x="480" y="462" on="0"/>
        <pt x="491" y="403" on="1"/>
        <pt x="389" y="363" on="1"/>
        <pt x="378" y="396" on="0"/>
        <pt x="342" y="434" on="0"/>
        <pt x="301" y="434" on="1"/>
        <pt x="203" y="434" on="0"/>
        <pt x="180" y="313" on="1"/>
        <pt x="162" y="226" on="1"/>
        <pt x="157" y="203" on="0"/>
        <pt x="157" y="183" on="1"/>
        <pt x="157" y="141" on="0"/>
        <pt x="201" y="88" on="0"/>
        <pt x="248" y="88" on="1"/>
        <pt x="287" y="88" on="0"/>
        <pt x="336" y="133" on="0"/>
        <pt x="360" y="176" on="1"/>
        <pt x="453" y="132" on="1"/>
        <pt x="390" y="1" on="0"/>
        <pt x="262" y="-11" on="1"/>
        <pt x="245" y="-57" on="1"/>
        <pt x="247" y="-61" on="1"/>
        <pt x="268" y="-55" on="0"/>
        <pt x="287" y="-55" on="1"/>
        <pt x="313" y="-55" on="0"/>
        <pt x="348" y="-83" on="0"/>
        <pt x="348" y="-111" on="1"/>
        <pt x="348" y="-135" on="0"/>
        <pt x="328" y="-172" on="0"/>
        <pt x="292" y="-197" on="0"/>
        <pt x="243" y="-210" on="0"/>
        <pt x="215" y="-210" on="1"/>
        <pt x="174" y="-210" on="0"/>
        <pt x="119" y="-184" on="0"/>
        <pt x="107" y="-167" on="1"/>
        <pt x="155" y="-119" on="1"/>
        <pt x="162" y="-128" on="0"/>
        <pt x="192" y="-146" on="0"/>
        <pt x="214" y="-146" on="1"/>
        <pt x="235" y="-146" on="0"/>
        <pt x="263" y="-129" on="0"/>
        <pt x="263" y="-113" on="1"/>
        <pt x="263" y="-100" on="0"/>
        <pt x="235" y="-80" on="0"/>
        <pt x="200" y="-76" on="1"/>
        <pt x="177" y="-74" on="1"/>
        <pt x="201" y="-10" on="1"/>
        <pt x="129" y="0" on="0"/>
        <pt x="37" y="108" on="0"/>
        <pt x="37" y="210" on="1"/>
        <pt x="37" y="279" on="0"/>
        <pt x="77" y="398" on="0"/>
        <pt x="149" y="485" on="0"/>
        <pt x="249" y="534" on="0"/>
      </contour>
    </TTGlyph>
    <TTGlyph name="ccircumflex" xMin="37" yMin="-12" xMax="504" yMax="786">
      <component glyphName="c" x="0" y="0" flags="0x204"/>
      <component glyphName="circumflex" x="19" y="0" flags="0x4"/>
    </TTGlyph>
    <TTGlyph name="cdotaccent" xMin="37" yMin="-12" xMax="491" yMax="748">
      <component glyphName="c" x="0" y="0" flags="0x204"/>
      <component glyphName="dotaccent" x="19" y="0" flags="0x4"/>
    </TTGlyph>
    <TTGlyph name="cedilla" xMin="164" yMin="-210" xMax="405" yMax="27">
      <contour>
        <pt x="272" y="-210" on="1"/>
        <pt x="231" y="-210" on="0"/>
        <pt x="176" y="-184" on="0"/>
        <pt x="164" y="-167" on="1"/>
        <pt x="212" y="-119" on="1"/>
        <pt x="219" y="-128" on="0"/>
        <pt x="249" y="-146" on="0"/>
        <pt x="271" y="-146" on="1"/>
        <pt x="292" y="-146" on="0"/>
        <pt x="320" y="-129" on="0"/>
        <pt x="320" y="-113" on="1"/>
        <pt x="320" y="-100" on="0"/>
        <pt x="292" y="-80" on="0"/>
        <pt x="257" y="-76" on="1"/>
        <pt x="234" y="-74" on="1"/>
        <pt x="273" y="27" on="1"/>
        <pt x="334" y="27" on="1"/>
        <pt x="302" y="-57" on="1"/>
        <pt x="304" y="-61" on="1"/>
        <pt x="325" y="-55" on="0"/>
        <pt x="344" y="-55" on="1"/>
        <pt x="370" y="-55" on="0"/>
        <pt x="405" y="-83" on="0"/>
        <pt x="405" y="-111" on="1"/>
        <pt x="405" y="-135" on="0"/>
        <pt x="385" y="-172" on="0"/>
        <pt x="349" y="-197" on="0"/>
        <pt x="300" y="-210" on="0"/>
      </contour>
    </TTGlyph>
    <TTGlyph name="cent" xMin="37" yMin="-114" xMax="511" yMax="630">
      <contour>
        <pt x="179" y="-4" on="1"/>
        <pt x="113" y="13" on="0"/>
        <pt x="37" y="127" on="0"/>
        <pt x="37" y="215" on="1"/>
        <pt x="37" y="273" on="0"/>
        <pt x="71" y="380" on="0"/>
        <pt x="135" y="464" on="0"/>
        <pt x="227" y="519" on="0"/>
        <pt x="285" y="526" on="1"/>
        <pt x="306" y="630" on="1"/>
        <pt x="404" y="630" on="1"/>
        <pt x="382" y="522" on="1"/>
        <pt x="432" y="509" on="0"/>
        <pt x="497" y="446" on="0"/>
        <pt x="511" y="402" on="1"/>
        <pt x="414" y="355" on="1"/>
        <pt x="408" y="380" on="0"/>
        <pt x="379" y="416" on="0"/>
        <pt x="355" y="425" on="1"/>
        <pt x="288" y="89" on="1"/>
        <pt x="318" y="97" on="0"/>
        <pt x="365" y="137" on="0"/>
        <pt x="385" y="168" on="1"/>
        <pt x="468" y="118" on="1"/>
        <pt x="435" y="64" on="0"/>
        <pt x="342" y="-1" on="0"/>
        <pt x="276" y="-9" on="1"/>
        <pt x="255" y="-114" on="1"/>
        <pt x="157" y="-114" on="1"/>
      </contour>
      <contour>
        <pt x="154" y="184" on="1"/>
        <pt x="154" y="152" on="0"/>
        <pt x="180" y="105" on="0"/>
        <pt x="206" y="94" on="1"/>
        <pt x="272" y="424" on="1"/>
        <pt x="234" y="412" on="0"/>
        <pt x="184" y="351" on="0"/>
        <pt x="175" y="306" on="1"/>
        <pt x="158" y="218" on="1"/>
        <pt x="154" y="202" on="0"/>
      </contour>
    </TTGlyph>
    <TTGlyph name="chi" xMin="-78" yMin="-200" xMax="556" yMax="522">
      <contour>
        <pt x="145" y="522" on="1"/>
        <pt x="185" y="522" on="0"/>
        <pt x="228" y="486" on="0"/>
        <pt x="233" y="445" on="1"/>
        <pt x="261" y="259" on="1"/>
        <pt x="265" y="259" on="1"/>
        <pt x="422" y="522" on="1"/>
        <pt x="556" y="522" on="1"/>
        <pt x="320" y="163" on="1"/>
        <pt x="371" y="-101" on="1"/>
        <pt x="440" y="-101" on="1"/>
        <pt x="421" y="-200" on="1"/>
        <pt x="344" y="-200" on="1"/>
        <pt x="306" y="-200" on="0"/>
        <pt x="261" y="-164" on="0"/>
        <pt x="256" y="-122" on="1"/>
        <pt x="227" y="81" on="1"/>
        <pt x="222" y="81" on="1"/>
        <pt x="56" y="-200" on="1"/>
        <pt x="-78" y="-200" on="1"/>
        <pt x="168" y="177" on="1"/>
        <pt x="119" y="423" on="1"/>
        <pt x="50" y="423" on="1"/>
        <pt x="69" y="522" on="1"/>
      </contour>
    </TTGlyph>
    <TTGlyph name="circumflex" xMin="125" yMin="583" xMax="485" yMax="786">
      <contour>
        <pt x="390" y="786" on="1"/>
        <pt x="485" y="632" on="1"/>
        <pt x="420" y="583" on="1"/>
        <pt x="326" y="698" on="1"/>
        <pt x="188" y="583" on="1"/>
        <pt x="125" y="632" on="1"/>
        <pt x="275" y="786" on="1"/>
      </contour>
    </TTGlyph>
    <TTGlyph name="circumflex.case" xMin="126" yMin="745" xMax="486" yMax="948">
      <contour>
        <pt x="391" y="948" on="1"/>
        <pt x="486" y="794" on="1"/>
        <pt x="421" y="745" on="1"/>
        <pt x="327" y="860" on="1"/>
        <pt x="189" y="745" on="1"/>
        <pt x="126" y="794" on="1"/>
        <pt x="276" y="948" on="1"/>
      </contour>
    </TTGlyph>
    <TTGlyph name="circumflexacute" xMin="-159" yMin="573" xMax="334" yMax="944">
      <contour>
        <pt x="202" y="724" on="1"/>
        <pt x="134" y="760" on="1"/>
        <pt x="238" y="944" on="1"/>
        <pt x="334" y="895" on="1"/>
      </contour>
      <contour>
        <pt x="91" y="770" on="1"/>
        <pt x="195" y="626" on="1"/>
        <pt x="133" y="573" on="1"/>
        <pt x="36" y="680" on="1"/>
        <pt x="-102" y="573" on="1"/>
        <pt x="-159" y="626" on="1"/>
        <pt x="0" y="770" on="1"/>
      </contour>
    </TTGlyph>
    <TTGlyph name="circumflexacute.case" xMin="-163" yMin="737" xMax="330" yMax="1108">
      <contour>
        <pt x="198" y="888" on="1"/>
        <pt x="130" y="924" on="1"/>
        <pt x="234" y="1108" on="1"/>
        <pt x="330" y="1059" on="1"/>
      </contour>
      <contour>
        <pt x="87" y="934" on="1"/>
        <pt x="191" y="790" on="1"/>
        <pt x="129" y="737" on="1"/>
        <pt x="32" y="844" on="1"/>
        <pt x="-106" y="737" on="1"/>
        <pt x="-163" y="790" on="1"/>
        <pt x="-4" y="934" on="1"/>
      </contour>
    </TTGlyph>
    <TTGlyph name="circumflexbreve" xMin="-152" yMin="577" xMax="228" yMax="938">
      <contour>
        <pt x="86" y="745" on="1"/>
        <pt x="195" y="632" on="1"/>
        <pt x="137" y="577" on="1"/>
        <pt x="30" y="660" on="1"/>
        <pt x="-105" y="577" on="1"/>
        <pt x="-152" y="632" on="1"/>
        <pt x="-5" y="745" on="1"/>
      </contour>
      <contour>
        <pt x="42" y="769" on="1"/>
        <pt x="4" y="769" on="0"/>
        <pt x="-48" y="794" on="0"/>
        <pt x="-84" y="834" on="0"/>
        <pt x="-105" y="882" on="0"/>
        <pt x="-111" y="906" on="1"/>
        <pt x="-50" y="938" on="1"/>
        <pt x="-36" y="914" on="1"/>
        <pt x="-18" y="882" on="0"/>
        <pt x="19" y="850" on="0"/>
        <pt x="48" y="850" on="1"/>
        <pt x="74" y="850" on="0"/>
        <pt x="120" y="879" on="0"/>
        <pt x="149" y="913" on="1"/>
        <pt x="171" y="938" on="1"/>
        <pt x="228" y="903" on="1"/>
        <pt x="215" y="879" on="0"/>
        <pt x="180" y="831" on="0"/>
        <pt x="134" y="793" on="0"/>
        <pt x="77" y="769" on="0"/>
      </contour>
    </TTGlyph>
    <TTGlyph name="circumflexbreve.case" xMin="-157" yMin="740" xMax="223" yMax="1101">
      <contour>
        <pt x="81" y="908" on="1"/>
        <pt x="190" y="795" on="1"/>
        <pt x="132" y="740" on="1"/>
        <pt x="25" y="823" on="1"/>
        <pt x="-110" y="740" on="1"/>
        <pt x="-157" y="795" on="1"/>
        <pt x="-10" y="908" on="1"/>
      </contour>
      <contour>
        <pt x="37" y="932" on="1"/>
        <pt x="-1" y="932" on="0"/>
        <pt x="-53" y="957" on="0"/>
        <pt x="-89" y="997" on="0"/>
        <pt x="-110" y="1045" on="0"/>
        <pt x="-116" y="1069" on="1"/>
        <pt x="-55" y="1101" on="1"/>
        <pt x="-41" y="1077" on="1"/>
        <pt x="-23" y="1045" on="0"/>
        <pt x="14" y="1013" on="0"/>
        <pt x="43" y="1013" on="1"/>
        <pt x="69" y="1013" on="0"/>
        <pt x="115" y="1042" on="0"/>
        <pt x="144" y="1076" on="1"/>
        <pt x="166" y="1101" on="1"/>
        <pt x="223" y="1066" on="1"/>
        <pt x="210" y="1042" on="0"/>
        <pt x="175" y="994" on="0"/>
        <pt x="129" y="956" on="0"/>
        <pt x="72" y="932" on="0"/>
      </contour>
    </TTGlyph>
    <TTGlyph name="circumflexgrave" xMin="-226" yMin="573" xMax="195" yMax="944">
      <contour>
        <pt x="-226" y="896" on="1"/>
        <pt x="-126" y="944" on="1"/>
        <pt x="-57" y="758" on="1"/>
        <pt x="-122" y="725" on="1"/>
      </contour>
      <contour>
        <pt x="91" y="770" on="1"/>
        <pt x="195" y="626" on="1"/>
        <pt x="133" y="573" on="1"/>
        <pt x="36" y="680" on="1"/>
        <pt x="-102" y="573" on="1"/>
        <pt x="-159" y="626" on="1"/>
        <pt x="0" y="770" on="1"/>
      </contour>
    </TTGlyph>
    <TTGlyph name="circumflexgrave.case" xMin="-230" yMin="737" xMax="191" yMax="1108">
      <contour>
        <pt x="-230" y="1060" on="1"/>
        <pt x="-130" y="1108" on="1"/>
        <pt x="-61" y="922" on="1"/>
        <pt x="-126" y="889" on="1"/>
      </contour>
      <contour>
        <pt x="87" y="934" on="1"/>
        <pt x="191" y="790" on="1"/>
        <pt x="129" y="737" on="1"/>
        <pt x="32" y="844" on="1"/>
        <pt x="-106" y="737" on="1"/>
        <pt x="-163" y="790" on="1"/>
        <pt x="-4" y="934" on="1"/>
      </contour>
    </TTGlyph>
    <TTGlyph name="circumflexhook" xMin="-159" yMin="573" xMax="304" yMax="931">
      <contour>
        <pt x="105" y="931" on="1"/>
        <pt x="232" y="931" on="1"/>
        <pt x="270" y="931" on="0"/>
        <pt x="304" y="899" on="0"/>
        <pt x="304" y="877" on="1"/>
        <pt x="304" y="847" on="0"/>
        <pt x="273" y="797" on="0"/>
        <pt x="250" y="769" on="1"/>
        <pt x="202" y="712" on="1"/>
        <pt x="142" y="743" on="1"/>
        <pt x="200" y="843" on="1"/>
        <pt x="88" y="843" on="1"/>
      </contour>
      <contour>
        <pt x="91" y="770" on="1"/>
        <pt x="195" y="626" on="1"/>
        <pt x="133" y="573" on="1"/>
        <pt x="36" y="680" on="1"/>
        <pt x="-102" y="573" on="1"/>
        <pt x="-159" y="626" on="1"/>
        <pt x="0" y="770" on="1"/>
      </contour>
    </TTGlyph>
    <TTGlyph name="circumflexhook.case" xMin="-164" yMin="736" xMax="299" yMax="1094">
      <contour>
        <pt x="100" y="1094" on="1"/>
        <pt x="227" y="1094" on="1"/>
        <pt x="265" y="1094" on="0"/>
        <pt x="299" y="1062" on="0"/>
        <pt x="299" y="1040" on="1"/>
        <pt x="299" y="1010" on="0"/>
        <pt x="268" y="960" on="0"/>
        <pt x="245" y="932" on="1"/>
        <pt x="197" y="875" on="1"/>
        <pt x="137" y="906" on="1"/>
        <pt x="195" y="1006" on="1"/>
        <pt x="83" y="1006" on="1"/>
      </contour>
      <contour>
        <pt x="86" y="933" on="1"/>
        <pt x="190" y="789" on="1"/>
        <pt x="128" y="736" on="1"/>
        <pt x="31" y="843" on="1"/>
        <pt x="-107" y="736" on="1"/>
        <pt x="-164" y="789" on="1"/>
        <pt x="-5" y="933" on="1"/>
      </contour>
    </TTGlyph>
    <TTGlyph name="circumflextilde" xMin="-163" yMin="574" xMax="224" yMax="924">
      <contour>
        <pt x="0" y="924" on="1"/>
        <pt x="21" y="924" on="0"/>
        <pt x="50" y="911" on="0"/>
        <pt x="67" y="902" on="1"/>
        <pt x="87" y="891" on="0"/>
        <pt x="117" y="880" on="0"/>
        <pt x="133" y="880" on="1"/>
        <pt x="148" y="880" on="0"/>
        <pt x="175" y="892" on="0"/>
        <pt x="192" y="905" on="1"/>
        <pt x="224" y="850" on="1"/>
        <pt x="203" y="825" on="0"/>
        <pt x="146" y="790" on="0"/>
        <pt x="111" y="790" on="1"/>
        <pt x="90" y="790" on="0"/>
        <pt x="61" y="803" on="0"/>
        <pt x="44" y="812" on="1"/>
        <pt x="24" y="823" on="0"/>
        <pt x="-6" y="834" on="0"/>
        <pt x="-22" y="834" on="1"/>
        <pt x="-37" y="834" on="0"/>
        <pt x="-64" y="822" on="0"/>
        <pt x="-81" y="809" on="1"/>
        <pt x="-113" y="864" on="1"/>
        <pt x="-92" y="889" on="0"/>
        <pt x="-35" y="924" on="0"/>
      </contour>
      <contour>
        <pt x="86" y="761" on="1"/>
        <pt x="192" y="628" on="1"/>
        <pt x="129" y="574" on="1"/>
        <pt x="28" y="680" on="1"/>
        <pt x="-105" y="574" on="1"/>
        <pt x="-163" y="628" on="1"/>
        <pt x="-6" y="761" on="1"/>
      </contour>
    </TTGlyph>
    <TTGlyph name="circumflextilde.case" xMin="-163" yMin="737" xMax="224" yMax="1087">
      <contour>
        <pt x="0" y="1087" on="1"/>
        <pt x="21" y="1087" on="0"/>
        <pt x="50" y="1074" on="0"/>
        <pt x="67" y="1065" on="1"/>
        <pt x="87" y="1054" on="0"/>
        <pt x="117" y="1043" on="0"/>
        <pt x="133" y="1043" on="1"/>
        <pt x="148" y="1043" on="0"/>
        <pt x="175" y="1055" on="0"/>
        <pt x="192" y="1068" on="1"/>
        <pt x="224" y="1013" on="1"/>
        <pt x="203" y="988" on="0"/>
        <pt x="146" y="953" on="0"/>
        <pt x="111" y="953" on="1"/>
        <pt x="90" y="953" on="0"/>
        <pt x="61" y="966" on="0"/>
        <pt x="44" y="975" on="1"/>
        <pt x="24" y="986" on="0"/>
        <pt x="-6" y="997" on="0"/>
        <pt x="-22" y="997" on="1"/>
        <pt x="-37" y="997" on="0"/>
        <pt x="-64" y="985" on="0"/>
        <pt x="-81" y="972" on="1"/>
        <pt x="-113" y="1027" on="1"/>
        <pt x="-92" y="1052" on="0"/>
        <pt x="-35" y="1087" on="0"/>
      </contour>
      <contour>
        <pt x="86" y="924" on="1"/>
        <pt x="192" y="791" on="1"/>
        <pt x="129" y="737" on="1"/>
        <pt x="28" y="843" on="1"/>
        <pt x="-105" y="737" on="1"/>
        <pt x="-163" y="791" on="1"/>
        <pt x="-6" y="924" on="1"/>
      </contour>
    </TTGlyph>
    <TTGlyph name="colon" xMin="39" yMin="-12" xMax="278" yMax="533">
      <component glyphName="period" x="10" y="0" flags="0x4"/>
      <component glyphName="period" x="87" y="379" flags="0x4"/>
    </TTGlyph>
    <TTGlyph name="comma" xMin="-40" yMin="-142" xMax="193" yMax="154">
      <contour>
        <pt x="125" y="154" on="1"/>
        <pt x="163" y="154" on="0"/>
        <pt x="193" y="119" on="0"/>
        <pt x="193" y="95" on="1"/>
        <pt x="193" y="78" on="0"/>
        <pt x="188" y="55" on="1"/>
        <pt x="183" y="31" on="0"/>
        <pt x="160" y="-23" on="0"/>
        <pt x="126" y="-75" on="0"/>
        <pt x="81" y="-123" on="0"/>
        <pt x="54" y="-142" on="1"/>
        <pt x="-40" y="-142" on="1"/>
        <pt x="1" y="-110" on="0"/>
        <pt x="58" y="-45" on="0"/>
        <pt x="77" y="-7" on="1"/>
        <pt x="53" y="-2" on="0"/>
        <pt x="32" y="26" on="0"/>
        <pt x="32" y="44" on="1"/>
        <pt x="32" y="52" on="0"/>
        <pt x="36" y="74" on="0"/>
        <pt x="38" y="85" on="1"/>
        <pt x="45" y="116" on="0"/>
        <pt x="86" y="154" on="0"/>
      </contour>
    </TTGlyph>
    <TTGlyph name="copyright" xMin="61" yMin="-12" xMax="746" yMax="709">
      <contour>
        <pt x="352" y="-12" on="1"/>
        <pt x="286" y="-12" on="0"/>
        <pt x="179" y="32" on="0"/>
        <pt x="103" y="113" on="0"/>
        <pt x="61" y="225" on="0"/>
        <pt x="61" y="293" on="1"/>
        <pt x="61" y="382" on="0"/>
        <pt x="121" y="535" on="0"/>
        <pt x="226" y="646" on="0"/>
        <pt x="371" y="709" on="0"/>
        <pt x="455" y="709" on="1"/>
        <pt x="521" y="709" on="0"/>
        <pt x="628" y="665" on="0"/>
        <pt x="704" y="584" on="0"/>
        <pt x="746" y="472" on="0"/>
        <pt x="746" y="404" on="1"/>
        <pt x="746" y="315" on="0"/>
        <pt x="686" y="162" on="0"/>
        <pt x="581" y="51" on="0"/>
        <pt x="436" y="-12" on="0"/>
      </contour>
      <contour>
        <pt x="356" y="49" on="1"/>
        <pt x="413" y="49" on="0"/>
        <pt x="514" y="88" on="0"/>
        <pt x="595" y="155" on="0"/>
        <pt x="650" y="245" on="0"/>
        <pt x="661" y="296" on="1"/>
        <pt x="668" y="329" on="0"/>
        <pt x="676" y="385" on="0"/>
        <pt x="676" y="404" on="1"/>
        <pt x="676" y="460" on="0"/>
        <pt x="643" y="550" on="0"/>
        <pt x="583" y="614" on="0"/>
        <pt x="500" y="648" on="0"/>
        <pt x="451" y="648" on="1"/>
        <pt x="394" y="648" on="0"/>
        <pt x="293" y="609" on="0"/>
        <pt x="212" y="542" on="0"/>
        <pt x="156" y="452" on="0"/>
        <pt x="146" y="401" on="1"/>
        <pt x="139" y="368" on="0"/>
        <pt x="131" y="312" on="0"/>
        <pt x="131" y="293" on="1"/>
        <pt x="131" y="237" on="0"/>
        <pt x="164" y="147" on="0"/>
        <pt x="224" y="83" on="0"/>
        <pt x="306" y="49" on="0"/>
      </contour>
      <contour>
        <pt x="381" y="140" on="1"/>
        <pt x="306" y="140" on="0"/>
        <pt x="218" y="231" on="0"/>
        <pt x="218" y="309" on="1"/>
        <pt x="218" y="358" on="0"/>
        <pt x="250" y="449" on="0"/>
        <pt x="307" y="517" on="0"/>
        <pt x="386" y="558" on="0"/>
        <pt x="432" y="558" on="1"/>
        <pt x="501" y="558" on="0"/>
        <pt x="573" y="495" on="0"/>
        <pt x="587" y="449" on="1"/>
        <pt x="500" y="411" on="1"/>
        <pt x="494" y="437" on="0"/>
        <pt x="461" y="469" on="0"/>
        <pt x="432" y="469" on="1"/>
        <pt x="395" y="469" on="0"/>
        <pt x="353" y="424" on="0"/>
        <pt x="346" y="389" on="1"/>
        <pt x="332" y="318" on="1"/>
        <pt x="329" y="303" on="0"/>
        <pt x="329" y="291" on="1"/>
        <pt x="329" y="263" on="0"/>
        <pt x="363" y="228" on="0"/>
        <pt x="395" y="228" on="1"/>
        <pt x="422" y="228" on="0"/>
        <pt x="464" y="261" on="0"/>
        <pt x="482" y="287" on="1"/>
        <pt x="560" y="243" on="1"/>
        <pt x="547" y="222" on="0"/>
        <pt x="513" y="185" on="0"/>
        <pt x="469" y="157" on="0"/>
        <pt x="414" y="140" on="0"/>
      </contour>
    </TTGlyph>
    <TTGlyph name="currency" xMin="-13" yMin="49" xMax="665" yMax="649">
      <contour>
        <pt x="290" y="111" on="1"/>
        <pt x="213" y="111" on="0"/>
        <pt x="162" y="145" on="1"/>
        <pt x="49" y="51" on="1"/>
        <pt x="-13" y="127" on="1"/>
        <pt x="100" y="222" on="1"/>
        <pt x="88" y="253" on="0"/>
        <pt x="88" y="293" on="1"/>
        <pt x="88" y="310" on="0"/>
        <pt x="92" y="344" on="0"/>
        <pt x="95" y="360" on="1"/>
        <pt x="102" y="395" on="0"/>
        <pt x="128" y="460" on="0"/>
        <pt x="148" y="486" on="1"/>
        <pt x="68" y="584" on="1"/>
        <pt x="148" y="649" on="1"/>
        <pt x="225" y="554" on="1"/>
        <pt x="285" y="587" on="0"/>
        <pt x="362" y="587" on="1"/>
        <pt x="439" y="587" on="0"/>
        <pt x="490" y="553" on="1"/>
        <pt x="603" y="647" on="1"/>
        <pt x="665" y="571" on="1"/>
        <pt x="552" y="476" on="1"/>
        <pt x="564" y="444" on="0"/>
        <pt x="564" y="405" on="1"/>
        <pt x="564" y="388" on="0"/>
        <pt x="560" y="354" on="0"/>
        <pt x="557" y="338" on="1"/>
        <pt x="550" y="303" on="0"/>
        <pt x="524" y="238" on="0"/>
        <pt x="504" y="212" on="1"/>
        <pt x="584" y="114" on="1"/>
        <pt x="504" y="49" on="1"/>
        <pt x="427" y="144" on="1"/>
        <pt x="367" y="111" on="0"/>
      </contour>
      <contour>
        <pt x="297" y="205" on="1"/>
        <pt x="348" y="205" on="0"/>
        <pt x="416" y="265" on="0"/>
        <pt x="427" y="320" on="1"/>
        <pt x="439" y="378" on="1"/>
        <pt x="441" y="387" on="0"/>
        <pt x="443" y="405" on="0"/>
        <pt x="443" y="414" on="1"/>
        <pt x="443" y="452" on="0"/>
        <pt x="397" y="493" on="0"/>
        <pt x="355" y="493" on="1"/>
        <pt x="304" y="493" on="0"/>
        <pt x="236" y="433" on="0"/>
        <pt x="225" y="378" on="1"/>
        <pt x="213" y="320" on="1"/>
        <pt x="211" y="311" on="0"/>
        <pt x="209" y="293" on="0"/>
        <pt x="209" y="284" on="1"/>
        <pt x="209" y="246" on="0"/>
        <pt x="255" y="205" on="0"/>
      </contour>
    </TTGlyph>
    <TTGlyph name="d" xMin="37" yMin="-12" xMax="603" yMax="740">
      <contour>
        <pt x="432" y="0" on="1"/>
        <pt x="396" y="0" on="0"/>
        <pt x="350" y="38" on="0"/>
        <pt x="350" y="72" on="1"/>
        <pt x="350" y="80" on="0"/>
        <pt x="353" y="98" on="0"/>
        <pt x="354" y="103" on="1"/>
        <pt x="357" y="119" on="1"/>
        <pt x="352" y="119" on="1"/>
        <pt x="320" y="55" on="0"/>
        <pt x="242" y="-12" on="0"/>
        <pt x="182" y="-12" on="1"/>
        <pt x="146" y="-12" on="0"/>
        <pt x="91" y="15" on="0"/>
        <pt x="55" y="65" on="0"/>
        <pt x="37" y="133" on="0"/>
        <pt x="37" y="175" on="1"/>
        <pt x="37" y="251" on="0"/>
        <pt x="73" y="382" on="0"/>
        <pt x="138" y="479" on="0"/>
        <pt x="229" y="534" on="0"/>
        <pt x="283" y="534" on="1"/>
        <pt x="336" y="534" on="0"/>
        <pt x="408" y="478" on="0"/>
        <pt x="415" y="433" on="1"/>
        <pt x="420" y="433" on="1"/>
        <pt x="482" y="740" on="1"/>
        <pt x="603" y="740" on="1"/>
        <pt x="474" y="99" on="1"/>
        <pt x="537" y="99" on="1"/>
        <pt x="518" y="0" on="1"/>
      </contour>
      <contour>
        <pt x="237" y="89" on="1"/>
        <pt x="266" y="89" on="0"/>
        <pt x="313" y="118" on="0"/>
        <pt x="330" y="138" on="1"/>
        <pt x="350" y="160" on="0"/>
        <pt x="376" y="217" on="0"/>
        <pt x="383" y="249" on="1"/>
        <pt x="401" y="338" on="1"/>
        <pt x="409" y="378" on="0"/>
        <pt x="358" y="433" on="0"/>
        <pt x="310" y="433" on="1"/>
        <pt x="207" y="433" on="0"/>
        <pt x="181" y="304" on="1"/>
        <pt x="167" y="232" on="1"/>
        <pt x="165" y="221" on="0"/>
        <pt x="161" y="189" on="0"/>
        <pt x="161" y="177" on="1"/>
        <pt x="161" y="137" on="0"/>
        <pt x="200" y="89" on="0"/>
      </contour>
    </TTGlyph>
    <TTGlyph name="dagger" xMin="60" yMin="-200" xMax="534" yMax="740">
      <contour>
        <pt x="112" y="-200" on="1"/>
        <pt x="236" y="422" on="1"/>
        <pt x="60" y="422" on="1"/>
        <pt x="79" y="516" on="1"/>
        <pt x="255" y="516" on="1"/>
        <pt x="300" y="740" on="1"/>
        <pt x="406" y="740" on="1"/>
        <pt x="361" y="516" on="1"/>
        <pt x="534" y="516" on="1"/>
        <pt x="516" y="422" on="1"/>
        <pt x="342" y="422" on="1"/>
        <pt x="218" y="-200" on="1"/>
      </contour>
    </TTGlyph>
    <TTGlyph name="daggerdbl" xMin="-8" yMin="-200" xMax="543" yMax="740">
      <contour>
        <pt x="120" y="-200" on="1"/>
        <pt x="165" y="24" on="1"/>
        <pt x="-8" y="24" on="1"/>
        <pt x="10" y="118" on="1"/>
        <pt x="184" y="118" on="1"/>
        <pt x="245" y="422" on="1"/>
        <pt x="69" y="422" on="1"/>
        <pt x="88" y="516" on="1"/>
        <pt x="264" y="516" on="1"/>
        <pt x="309" y="740" on="1"/>
        <pt x="415" y="740" on="1"/>
        <pt x="370" y="516" on="1"/>
        <pt x="543" y="516" on="1"/>
        <pt x="525" y="422" on="1"/>
        <pt x="351" y="422" on="1"/>
        <pt x="290" y="118" on="1"/>
        <pt x="466" y="118" on="1"/>
        <pt x="447" y="24" on="1"/>
        <pt x="271" y="24" on="1"/>
        <pt x="226" y="-200" on="1"/>
      </contour>
    </TTGlyph>
    <TTGlyph name="dcaron" xMin="37" yMin="-12" xMax="805" yMax="740">
      <component glyphName="d" x="0" y="0" flags="0x204"/>
      <component glyphName="uni02BC" x="368" y="0" flags="0x4"/>
    </TTGlyph>
    <TTGlyph name="dcroat" xMin="37" yMin="-12" xMax="650" yMax="740">
      <contour>
        <pt x="432" y="0" on="1"/>
        <pt x="396" y="0" on="0"/>
        <pt x="350" y="38" on="0"/>
        <pt x="350" y="72" on="1"/>
        <pt x="350" y="80" on="0"/>
        <pt x="353" y="98" on="0"/>
        <pt x="354" y="103" on="1"/>
        <pt x="357" y="119" on="1"/>
        <pt x="352" y="119" on="1"/>
        <pt x="320" y="55" on="0"/>
        <pt x="242" y="-12" on="0"/>
        <pt x="182" y="-12" on="1"/>
        <pt x="146" y="-12" on="0"/>
        <pt x="91" y="15" on="0"/>
        <pt x="55" y="65" on="0"/>
        <pt x="37" y="133" on="0"/>
        <pt x="37" y="175" on="1"/>
        <pt x="37" y="251" on="0"/>
        <pt x="73" y="382" on="0"/>
        <pt x="138" y="479" on="0"/>
        <pt x="229" y="534" on="0"/>
        <pt x="283" y="534" on="1"/>
        <pt x="336" y="534" on="0"/>
        <pt x="408" y="478" on="0"/>
        <pt x="415" y="433" on="1"/>
        <pt x="420" y="433" on="1"/>
        <pt x="453" y="596" on="1"/>
        <pt x="303" y="596" on="1"/>
        <pt x="320" y="681" on="1"/>
        <pt x="470" y="681" on="1"/>
        <pt x="482" y="740" on="1"/>
        <pt x="603" y="740" on="1"/>
        <pt x="591" y="681" on="1"/>
        <pt x="650" y="681" on="1"/>
        <pt x="632" y="596" on="1"/>
        <pt x="574" y="596" on="1"/>
        <pt x="474" y="99" on="1"/>
        <pt x="537" y="99" on="1"/>
        <pt x="518" y="0" on="1"/>
      </contour>
      <contour>
        <pt x="237" y="89" on="1"/>
        <pt x="266" y="89" on="0"/>
        <pt x="313" y="118" on="0"/>
        <pt x="330" y="138" on="1"/>
        <pt x="350" y="160" on="0"/>
        <pt x="376" y="217" on="0"/>
        <pt x="383" y="249" on="1"/>
        <pt x="401" y="338" on="1"/>
        <pt x="409" y="378" on="0"/>
        <pt x="358" y="433" on="0"/>
        <pt x="310" y="433" on="1"/>
        <pt x="207" y="433" on="0"/>
        <pt x="181" y="304" on="1"/>
        <pt x="167" y="232" on="1"/>
        <pt x="165" y="221" on="0"/>
        <pt x="161" y="189" on="0"/>
        <pt x="161" y="177" on="1"/>
        <pt x="161" y="137" on="0"/>
        <pt x="200" y="89" on="0"/>
      </contour>
    </TTGlyph>
    <TTGlyph name="degree" xMin="103" yMin="343" xMax="462" yMax="710">
      <contour>
        <pt x="263" y="343" on="1"/>
        <pt x="228" y="343" on="0"/>
        <pt x="169" y="368" on="0"/>
        <pt x="127" y="412" on="0"/>
        <pt x="103" y="472" on="0"/>
        <pt x="103" y="508" on="1"/>
        <pt x="103" y="551" on="0"/>
        <pt x="134" y="625" on="0"/>
        <pt x="188" y="679" on="0"/>
        <pt x="260" y="710" on="0"/>
        <pt x="302" y="710" on="1"/>
        <pt x="337" y="710" on="0"/>
        <pt x="396" y="685" on="0"/>
        <pt x="438" y="641" on="0"/>
        <pt x="462" y="581" on="0"/>
        <pt x="462" y="545" on="1"/>
        <pt x="462" y="501" on="0"/>
        <pt x="431" y="427" on="0"/>
        <pt x="377" y="373" on="0"/>
        <pt x="305" y="343" on="0"/>
      </contour>
      <contour>
        <pt x="273" y="427" on="1"/>
        <pt x="318" y="427" on="0"/>
        <pt x="371" y="495" on="0"/>
        <pt x="371" y="544" on="1"/>
        <pt x="371" y="579" on="0"/>
        <pt x="330" y="626" on="0"/>
        <pt x="293" y="626" on="1"/>
        <pt x="248" y="626" on="0"/>
        <pt x="194" y="558" on="0"/>
        <pt x="194" y="509" on="1"/>
        <pt x="194" y="474" on="0"/>
        <pt x="236" y="427" on="0"/>
      </contour>
    </TTGlyph>
    <TTGlyph name="delta" xMin="37" yMin="-12" xMax="560" yMax="740">
      <contour>
        <pt x="371" y="641" on="1"/>
        <pt x="279" y="649" on="1"/>
        <pt x="278" y="645" on="1"/>
        <pt x="368" y="573" on="1"/>
        <pt x="408" y="541" on="0"/>
        <pt x="462" y="482" on="0"/>
        <pt x="495" y="421" on="0"/>
        <pt x="508" y="356" on="0"/>
        <pt x="508" y="319" on="1"/>
        <pt x="508" y="249" on="0"/>
        <pt x="468" y="128" on="0"/>
        <pt x="397" y="39" on="0"/>
        <pt x="298" y="-12" on="0"/>
        <pt x="240" y="-12" on="1"/>
        <pt x="147" y="-12" on="0"/>
        <pt x="37" y="100" on="0"/>
        <pt x="37" y="205" on="1"/>
        <pt x="37" y="274" on="0"/>
        <pt x="81" y="384" on="0"/>
        <pt x="151" y="459" on="0"/>
        <pt x="237" y="499" on="0"/>
        <pt x="280" y="499" on="1"/>
        <pt x="281" y="505" on="1"/>
        <pt x="164" y="612" on="1"/>
        <pt x="189" y="740" on="1"/>
        <pt x="560" y="740" on="1"/>
        <pt x="541" y="641" on="1"/>
      </contour>
      <contour>
        <pt x="385" y="337" on="1"/>
        <pt x="385" y="369" on="0"/>
        <pt x="364" y="422" on="0"/>
        <pt x="333" y="455" on="1"/>
        <pt x="270" y="448" on="0"/>
        <pt x="192" y="363" on="0"/>
        <pt x="178" y="297" on="1"/>
        <pt x="167" y="252" on="0"/>
        <pt x="158" y="196" on="0"/>
        <pt x="158" y="182" on="1"/>
        <pt x="158" y="140" on="0"/>
        <pt x="202" y="88" on="0"/>
        <pt x="246" y="88" on="1"/>
        <pt x="291" y="88" on="0"/>
        <pt x="351" y="151" on="0"/>
        <pt x="365" y="211" on="1"/>
        <pt x="376" y="258" on="0"/>
        <pt x="385" y="317" on="0"/>
      </contour>
    </TTGlyph>
    <TTGlyph name="dieresis" xMin="152" yMin="605" xMax="486" yMax="742">
      <contour>
        <pt x="209" y="605" on="1"/>
        <pt x="179" y="605" on="0"/>
        <pt x="152" y="630" on="0"/>
        <pt x="152" y="649" on="1"/>
        <pt x="152" y="654" on="0"/>
        <pt x="154" y="670" on="0"/>
        <pt x="157" y="684" on="1"/>
        <pt x="162" y="709" on="0"/>
        <pt x="197" y="742" on="0"/>
        <pt x="234" y="742" on="1"/>
        <pt x="264" y="742" on="0"/>
        <pt x="291" y="717" on="0"/>
        <pt x="291" y="698" on="1"/>
        <pt x="291" y="693" on="0"/>
        <pt x="289" y="677" on="0"/>
        <pt x="286" y="663" on="1"/>
        <pt x="281" y="638" on="0"/>
        <pt x="246" y="605" on="0"/>
      </contour>
      <contour>
        <pt x="404" y="605" on="1"/>
        <pt x="374" y="605" on="0"/>
        <pt x="347" y="630" on="0"/>
        <pt x="347" y="649" on="1"/>
        <pt x="347" y="654" on="0"/>
        <pt x="349" y="670" on="0"/>
        <pt x="352" y="684" on="1"/>
        <pt x="357" y="709" on="0"/>
        <pt x="392" y="742" on="0"/>
        <pt x="429" y="742" on="1"/>
        <pt x="459" y="742" on="0"/>
        <pt x="486" y="717" on="0"/>
        <pt x="486" y="698" on="1"/>
        <pt x="486" y="693" on="0"/>
        <pt x="484" y="677" on="0"/>
        <pt x="481" y="663" on="1"/>
        <pt x="476" y="638" on="0"/>
        <pt x="441" y="605" on="0"/>
      </contour>
    </TTGlyph>
    <TTGlyph name="dieresis.case" xMin="152" yMin="768" xMax="486" yMax="905">
      <contour>
        <pt x="209" y="768" on="1"/>
        <pt x="179" y="768" on="0"/>
        <pt x="152" y="793" on="0"/>
        <pt x="152" y="812" on="1"/>
        <pt x="152" y="817" on="0"/>
        <pt x="154" y="833" on="0"/>
        <pt x="157" y="847" on="1"/>
        <pt x="162" y="872" on="0"/>
        <pt x="197" y="905" on="0"/>
        <pt x="234" y="905" on="1"/>
        <pt x="264" y="905" on="0"/>
        <pt x="291" y="880" on="0"/>
        <pt x="291" y="861" on="1"/>
        <pt x="291" y="856" on="0"/>
        <pt x="289" y="840" on="0"/>
        <pt x="286" y="826" on="1"/>
        <pt x="281" y="801" on="0"/>
        <pt x="246" y="768" on="0"/>
      </contour>
      <contour>
        <pt x="404" y="768" on="1"/>
        <pt x="374" y="768" on="0"/>
        <pt x="347" y="793" on="0"/>
        <pt x="347" y="812" on="1"/>
        <pt x="347" y="817" on="0"/>
        <pt x="349" y="833" on="0"/>
        <pt x="352" y="847" on="1"/>
        <pt x="357" y="872" on="0"/>
        <pt x="392" y="905" on="0"/>
        <pt x="429" y="905" on="1"/>
        <pt x="459" y="905" on="0"/>
        <pt x="486" y="880" on="0"/>
        <pt x="486" y="861" on="1"/>
        <pt x="486" y="856" on="0"/>
        <pt x="484" y="840" on="0"/>
        <pt x="481" y="826" on="1"/>
        <pt x="476" y="801" on="0"/>
        <pt x="441" y="768" on="0"/>
      </contour>
    </TTGlyph>
    <TTGlyph name="dieresisacute" xMin="-148" yMin="591" xMax="198" yMax="944">
      <contour>
        <pt x="47" y="722" on="1"/>
        <pt x="-19" y="758" on="1"/>
        <pt x="87" y="944" on="1"/>
        <pt x="180" y="894" on="1"/>
      </contour>
      <contour>
        <pt x="-89" y="591" on="1"/>
        <pt x="-123" y="591" on="0"/>
        <pt x="-148" y="616" on="0"/>
        <pt x="-148" y="635" on="1"/>
        <pt x="-148" y="640" on="0"/>
        <pt x="-145" y="656" on="0"/>
        <pt x="-142" y="671" on="1"/>
        <pt x="-137" y="695" on="0"/>
        <pt x="-103" y="726" on="0"/>
        <pt x="-65" y="726" on="1"/>
        <pt x="-31" y="726" on="0"/>
        <pt x="-6" y="701" on="0"/>
        <pt x="-6" y="682" on="1"/>
        <pt x="-6" y="677" on="0"/>
        <pt x="-9" y="661" on="0"/>
        <pt x="-12" y="646" on="1"/>
        <pt x="-17" y="622" on="0"/>
        <pt x="-51" y="591" on="0"/>
      </contour>
      <contour>
        <pt x="115" y="591" on="1"/>
        <pt x="81" y="591" on="0"/>
        <pt x="56" y="616" on="0"/>
        <pt x="56" y="635" on="1"/>
        <pt x="56" y="640" on="0"/>
        <pt x="59" y="656" on="0"/>
        <pt x="62" y="671" on="1"/>
        <pt x="67" y="695" on="0"/>
        <pt x="101" y="726" on="0"/>
        <pt x="139" y="726" on="1"/>
        <pt x="173" y="726" on="0"/>
        <pt x="198" y="701" on="0"/>
        <pt x="198" y="682" on="1"/>
        <pt x="198" y="677" on="0"/>
        <pt x="195" y="661" on="0"/>
        <pt x="192" y="646" on="1"/>
        <pt x="187" y="622" on="0"/>
        <pt x="153" y="591" on="0"/>
      </contour>
    </TTGlyph>
    <TTGlyph name="dieresisacute.case" xMin="-148" yMin="754" xMax="198" yMax="1107">
      <contour>
        <pt x="47" y="885" on="1"/>
        <pt x="-19" y="921" on="1"/>
        <pt x="87" y="1107" on="1"/>
        <pt x="180" y="1057" on="1"/>
      </contour>
      <contour>
        <pt x="-89" y="754" on="1"/>
        <pt x="-123" y="754" on="0"/>
        <pt x="-148" y="779" on="0"/>
        <pt x="-148" y="798" on="1"/>
        <pt x="-148" y="803" on="0"/>
        <pt x="-145" y="819" on="0"/>
        <pt x="-142" y="834" on="1"/>
        <pt x="-137" y="858" on="0"/>
        <pt x="-103" y="889" on="0"/>
        <pt x="-65" y="889" on="1"/>
        <pt x="-31" y="889" on="0"/>
        <pt x="-6" y="864" on="0"/>
        <pt x="-6" y="845" on="1"/>
        <pt x="-6" y="840" on="0"/>
        <pt x="-9" y="824" on="0"/>
        <pt x="-12" y="809" on="1"/>
        <pt x="-17" y="785" on="0"/>
        <pt x="-51" y="754" on="0"/>
      </contour>
      <contour>
        <pt x="115" y="754" on="1"/>
        <pt x="81" y="754" on="0"/>
        <pt x="56" y="779" on="0"/>
        <pt x="56" y="798" on="1"/>
        <pt x="56" y="803" on="0"/>
        <pt x="59" y="819" on="0"/>
        <pt x="62" y="834" on="1"/>
        <pt x="67" y="858" on="0"/>
        <pt x="101" y="889" on="0"/>
        <pt x="139" y="889" on="1"/>
        <pt x="173" y="889" on="0"/>
        <pt x="198" y="864" on="0"/>
        <pt x="198" y="845" on="1"/>
        <pt x="198" y="840" on="0"/>
        <pt x="195" y="824" on="0"/>
        <pt x="192" y="809" on="1"/>
        <pt x="187" y="785" on="0"/>
        <pt x="153" y="754" on="0"/>
      </contour>
    </TTGlyph>
    <TTGlyph name="dieresiscaron" xMin="-148" yMin="591" xMax="245" yMax="945">
      <contour>
        <pt x="-5" y="748" on="1"/>
        <pt x="-111" y="892" on="1"/>
        <pt x="-48" y="945" on="1"/>
        <pt x="50" y="840" on="1"/>
        <pt x="188" y="945" on="1"/>
        <pt x="245" y="892" on="1"/>
        <pt x="87" y="748" on="1"/>
      </contour>
      <contour>
        <pt x="-89" y="591" on="1"/>
        <pt x="-123" y="591" on="0"/>
        <pt x="-148" y="616" on="0"/>
        <pt x="-148" y="635" on="1"/>
        <pt x="-148" y="640" on="0"/>
        <pt x="-145" y="656" on="0"/>
        <pt x="-142" y="671" on="1"/>
        <pt x="-137" y="695" on="0"/>
        <pt x="-103" y="726" on="0"/>
        <pt x="-65" y="726" on="1"/>
        <pt x="-31" y="726" on="0"/>
        <pt x="-6" y="701" on="0"/>
        <pt x="-6" y="682" on="1"/>
        <pt x="-6" y="677" on="0"/>
        <pt x="-9" y="661" on="0"/>
        <pt x="-12" y="646" on="1"/>
        <pt x="-17" y="622" on="0"/>
        <pt x="-51" y="591" on="0"/>
      </contour>
      <contour>
        <pt x="115" y="591" on="1"/>
        <pt x="81" y="591" on="0"/>
        <pt x="56" y="616" on="0"/>
        <pt x="56" y="635" on="1"/>
        <pt x="56" y="640" on="0"/>
        <pt x="59" y="656" on="0"/>
        <pt x="62" y="671" on="1"/>
        <pt x="67" y="695" on="0"/>
        <pt x="101" y="726" on="0"/>
        <pt x="139" y="726" on="1"/>
        <pt x="173" y="726" on="0"/>
        <pt x="198" y="701" on="0"/>
        <pt x="198" y="682" on="1"/>
        <pt x="198" y="677" on="0"/>
        <pt x="195" y="661" on="0"/>
        <pt x="192" y="646" on="1"/>
        <pt x="187" y="622" on="0"/>
        <pt x="153" y="591" on="0"/>
      </contour>
    </TTGlyph>
    <TTGlyph name="dieresiscaron.case" xMin="-148" yMin="754" xMax="245" yMax="1108">
      <contour>
        <pt x="-5" y="911" on="1"/>
        <pt x="-111" y="1055" on="1"/>
        <pt x="-48" y="1108" on="1"/>
        <pt x="50" y="1003" on="1"/>
        <pt x="188" y="1108" on="1"/>
        <pt x="245" y="1055" on="1"/>
        <pt x="87" y="911" on="1"/>
      </contour>
      <contour>
        <pt x="-89" y="754" on="1"/>
        <pt x="-123" y="754" on="0"/>
        <pt x="-148" y="779" on="0"/>
        <pt x="-148" y="798" on="1"/>
        <pt x="-148" y="803" on="0"/>
        <pt x="-145" y="819" on="0"/>
        <pt x="-142" y="834" on="1"/>
        <pt x="-137" y="858" on="0"/>
        <pt x="-103" y="889" on="0"/>
        <pt x="-65" y="889" on="1"/>
        <pt x="-31" y="889" on="0"/>
        <pt x="-6" y="864" on="0"/>
        <pt x="-6" y="845" on="1"/>
        <pt x="-6" y="840" on="0"/>
        <pt x="-9" y="824" on="0"/>
        <pt x="-12" y="809" on="1"/>
        <pt x="-17" y="785" on="0"/>
        <pt x="-51" y="754" on="0"/>
      </contour>
      <contour>
        <pt x="115" y="754" on="1"/>
        <pt x="81" y="754" on="0"/>
        <pt x="56" y="779" on="0"/>
        <pt x="56" y="798" on="1"/>
        <pt x="56" y="803" on="0"/>
        <pt x="59" y="819" on="0"/>
        <pt x="62" y="834" on="1"/>
        <pt x="67" y="858" on="0"/>
        <pt x="101" y="889" on="0"/>
        <pt x="139" y="889" on="1"/>
        <pt x="173" y="889" on="0"/>
        <pt x="198" y="864" on="0"/>
        <pt x="198" y="845" on="1"/>
        <pt x="198" y="840" on="0"/>
        <pt x="195" y="824" on="0"/>
        <pt x="192" y="809" on="1"/>
        <pt x="187" y="785" on="0"/>
        <pt x="153" y="754" on="0"/>
      </contour>
    </TTGlyph>
    <TTGlyph name="dieresisgrave" xMin="-148" yMin="591" xMax="198" yMax="944">
      <contour>
        <pt x="-67" y="895" on="1"/>
        <pt x="37" y="944" on="1"/>
        <pt x="97" y="756" on="1"/>
        <pt x="26" y="723" on="1"/>
      </contour>
      <contour>
        <pt x="-89" y="591" on="1"/>
        <pt x="-123" y="591" on="0"/>
        <pt x="-148" y="616" on="0"/>
        <pt x="-148" y="635" on="1"/>
        <pt x="-148" y="640" on="0"/>
        <pt x="-145" y="656" on="0"/>
        <pt x="-142" y="671" on="1"/>
        <pt x="-137" y="695" on="0"/>
        <pt x="-103" y="726" on="0"/>
        <pt x="-65" y="726" on="1"/>
        <pt x="-31" y="726" on="0"/>
        <pt x="-6" y="701" on="0"/>
        <pt x="-6" y="682" on="1"/>
        <pt x="-6" y="677" on="0"/>
        <pt x="-9" y="661" on="0"/>
        <pt x="-12" y="646" on="1"/>
        <pt x="-17" y="622" on="0"/>
        <pt x="-51" y="591" on="0"/>
      </contour>
      <contour>
        <pt x="115" y="591" on="1"/>
        <pt x="81" y="591" on="0"/>
        <pt x="56" y="616" on="0"/>
        <pt x="56" y="635" on="1"/>
        <pt x="56" y="640" on="0"/>
        <pt x="59" y="656" on="0"/>
        <pt x="62" y="671" on="1"/>
        <pt x="67" y="695" on="0"/>
        <pt x="101" y="726" on="0"/>
        <pt x="139" y="726" on="1"/>
        <pt x="173" y="726" on="0"/>
        <pt x="198" y="701" on="0"/>
        <pt x="198" y="682" on="1"/>
        <pt x="198" y="677" on="0"/>
        <pt x="195" y="661" on="0"/>
        <pt x="192" y="646" on="1"/>
        <pt x="187" y="622" on="0"/>
        <pt x="153" y="591" on="0"/>
      </contour>
    </TTGlyph>
    <TTGlyph name="dieresisgrave.case" xMin="-148" yMin="754" xMax="198" yMax="1107">
      <contour>
        <pt x="-67" y="1058" on="1"/>
        <pt x="37" y="1107" on="1"/>
        <pt x="97" y="919" on="1"/>
        <pt x="26" y="886" on="1"/>
      </contour>
      <contour>
        <pt x="-89" y="754" on="1"/>
        <pt x="-123" y="754" on="0"/>
        <pt x="-148" y="779" on="0"/>
        <pt x="-148" y="798" on="1"/>
        <pt x="-148" y="803" on="0"/>
        <pt x="-145" y="819" on="0"/>
        <pt x="-142" y="834" on="1"/>
        <pt x="-137" y="858" on="0"/>
        <pt x="-103" y="889" on="0"/>
        <pt x="-65" y="889" on="1"/>
        <pt x="-31" y="889" on="0"/>
        <pt x="-6" y="864" on="0"/>
        <pt x="-6" y="845" on="1"/>
        <pt x="-6" y="840" on="0"/>
        <pt x="-9" y="824" on="0"/>
        <pt x="-12" y="809" on="1"/>
        <pt x="-17" y="785" on="0"/>
        <pt x="-51" y="754" on="0"/>
      </contour>
      <contour>
        <pt x="115" y="754" on="1"/>
        <pt x="81" y="754" on="0"/>
        <pt x="56" y="779" on="0"/>
        <pt x="56" y="798" on="1"/>
        <pt x="56" y="803" on="0"/>
        <pt x="59" y="819" on="0"/>
        <pt x="62" y="834" on="1"/>
        <pt x="67" y="858" on="0"/>
        <pt x="101" y="889" on="0"/>
        <pt x="139" y="889" on="1"/>
        <pt x="173" y="889" on="0"/>
        <pt x="198" y="864" on="0"/>
        <pt x="198" y="845" on="1"/>
        <pt x="198" y="840" on="0"/>
        <pt x="195" y="824" on="0"/>
        <pt x="192" y="809" on="1"/>
        <pt x="187" y="785" on="0"/>
        <pt x="153" y="754" on="0"/>
      </contour>
    </TTGlyph>
    <TTGlyph name="dieresismacron" xMin="-148" yMin="591" xMax="203" yMax="868">
      <contour>
        <pt x="-72" y="868" on="1"/>
        <pt x="203" y="868" on="1"/>
        <pt x="185" y="777" on="1"/>
        <pt x="-90" y="777" on="1"/>
      </contour>
      <contour>
        <pt x="-89" y="591" on="1"/>
        <pt x="-123" y="591" on="0"/>
        <pt x="-148" y="616" on="0"/>
        <pt x="-148" y="635" on="1"/>
        <pt x="-148" y="640" on="0"/>
        <pt x="-145" y="656" on="0"/>
        <pt x="-142" y="671" on="1"/>
        <pt x="-137" y="695" on="0"/>
        <pt x="-103" y="726" on="0"/>
        <pt x="-65" y="726" on="1"/>
        <pt x="-31" y="726" on="0"/>
        <pt x="-6" y="701" on="0"/>
        <pt x="-6" y="682" on="1"/>
        <pt x="-6" y="677" on="0"/>
        <pt x="-9" y="661" on="0"/>
        <pt x="-12" y="646" on="1"/>
        <pt x="-17" y="622" on="0"/>
        <pt x="-51" y="591" on="0"/>
      </contour>
      <contour>
        <pt x="115" y="591" on="1"/>
        <pt x="81" y="591" on="0"/>
        <pt x="56" y="616" on="0"/>
        <pt x="56" y="635" on="1"/>
        <pt x="56" y="640" on="0"/>
        <pt x="59" y="656" on="0"/>
        <pt x="62" y="671" on="1"/>
        <pt x="67" y="695" on="0"/>
        <pt x="101" y="726" on="0"/>
        <pt x="139" y="726" on="1"/>
        <pt x="173" y="726" on="0"/>
        <pt x="198" y="701" on="0"/>
        <pt x="198" y="682" on="1"/>
        <pt x="198" y="677" on="0"/>
        <pt x="195" y="661" on="0"/>
        <pt x="192" y="646" on="1"/>
        <pt x="187" y="622" on="0"/>
        <pt x="153" y="591" on="0"/>
      </contour>
    </TTGlyph>
    <TTGlyph name="dieresismacron.case" xMin="-148" yMin="754" xMax="203" yMax="1031">
      <contour>
        <pt x="-72" y="1031" on="1"/>
        <pt x="203" y="1031" on="1"/>
        <pt x="185" y="940" on="1"/>
        <pt x="-90" y="940" on="1"/>
      </contour>
      <contour>
        <pt x="-89" y="754" on="1"/>
        <pt x="-123" y="754" on="0"/>
        <pt x="-148" y="779" on="0"/>
        <pt x="-148" y="798" on="1"/>
        <pt x="-148" y="803" on="0"/>
        <pt x="-145" y="819" on="0"/>
        <pt x="-142" y="834" on="1"/>
        <pt x="-137" y="858" on="0"/>
        <pt x="-103" y="889" on="0"/>
        <pt x="-65" y="889" on="1"/>
        <pt x="-31" y="889" on="0"/>
        <pt x="-6" y="864" on="0"/>
        <pt x="-6" y="845" on="1"/>
        <pt x="-6" y="840" on="0"/>
        <pt x="-9" y="824" on="0"/>
        <pt x="-12" y="809" on="1"/>
        <pt x="-17" y="785" on="0"/>
        <pt x="-51" y="754" on="0"/>
      </contour>
      <contour>
        <pt x="115" y="754" on="1"/>
        <pt x="81" y="754" on="0"/>
        <pt x="56" y="779" on="0"/>
        <pt x="56" y="798" on="1"/>
        <pt x="56" y="803" on="0"/>
        <pt x="59" y="819" on="0"/>
        <pt x="62" y="834" on="1"/>
        <pt x="67" y="858" on="0"/>
        <pt x="101" y="889" on="0"/>
        <pt x="139" y="889" on="1"/>
        <pt x="173" y="889" on="0"/>
        <pt x="198" y="864" on="0"/>
        <pt x="198" y="845" on="1"/>
        <pt x="198" y="840" on="0"/>
        <pt x="195" y="824" on="0"/>
        <pt x="192" y="809" on="1"/>
        <pt x="187" y="785" on="0"/>
        <pt x="153" y="754" on="0"/>
      </contour>
    </TTGlyph>
    <TTGlyph name="dieresistonos" xMin="199" yMin="581" xMax="583" yMax="805">
      <contour>
        <pt x="381" y="581" on="1"/>
        <pt x="326" y="599" on="1"/>
        <pt x="393" y="805" on="1"/>
        <pt x="479" y="781" on="1"/>
      </contour>
      <contour>
        <pt x="248" y="609" on="1"/>
        <pt x="224" y="609" on="0"/>
        <pt x="199" y="632" on="0"/>
        <pt x="199" y="651" on="1"/>
        <pt x="199" y="656" on="0"/>
        <pt x="202" y="670" on="0"/>
        <pt x="204" y="682" on="1"/>
        <pt x="209" y="707" on="0"/>
        <pt x="240" y="739" on="0"/>
        <pt x="269" y="739" on="1"/>
        <pt x="294" y="739" on="0"/>
        <pt x="318" y="715" on="0"/>
        <pt x="318" y="697" on="1"/>
        <pt x="318" y="692" on="0"/>
        <pt x="316" y="678" on="0"/>
        <pt x="313" y="665" on="1"/>
        <pt x="309" y="641" on="0"/>
        <pt x="278" y="609" on="0"/>
      </contour>
      <contour>
        <pt x="513" y="609" on="1"/>
        <pt x="489" y="609" on="0"/>
        <pt x="464" y="632" on="0"/>
        <pt x="464" y="651" on="1"/>
        <pt x="464" y="656" on="0"/>
        <pt x="467" y="670" on="0"/>
        <pt x="469" y="682" on="1"/>
        <pt x="474" y="707" on="0"/>
        <pt x="505" y="739" on="0"/>
        <pt x="534" y="739" on="1"/>
        <pt x="559" y="739" on="0"/>
        <pt x="583" y="715" on="0"/>
        <pt x="583" y="697" on="1"/>
        <pt x="583" y="692" on="0"/>
        <pt x="581" y="678" on="0"/>
        <pt x="578" y="665" on="1"/>
        <pt x="574" y="641" on="0"/>
        <pt x="543" y="609" on="0"/>
      </contour>
    </TTGlyph>
    <TTGlyph name="divide" xMin="69" yMin="36" xMax="549" yMax="576">
      <contour>
        <pt x="69" y="255" on="1"/>
        <pt x="90" y="357" on="1"/>
        <pt x="549" y="357" on="1"/>
        <pt x="528" y="255" on="1"/>
      </contour>
      <contour>
        <pt x="259" y="36" on="1"/>
        <pt x="221" y="36" on="0"/>
        <pt x="191" y="64" on="0"/>
        <pt x="191" y="83" on="1"/>
        <pt x="191" y="90" on="0"/>
        <pt x="194" y="113" on="0"/>
        <pt x="196" y="122" on="1"/>
        <pt x="202" y="150" on="0"/>
        <pt x="241" y="184" on="0"/>
        <pt x="282" y="184" on="1"/>
        <pt x="320" y="184" on="0"/>
        <pt x="350" y="157" on="0"/>
        <pt x="350" y="137" on="1"/>
        <pt x="350" y="130" on="0"/>
        <pt x="347" y="107" on="0"/>
        <pt x="345" y="98" on="1"/>
        <pt x="339" y="70" on="0"/>
        <pt x="300" y="36" on="0"/>
      </contour>
      <contour>
        <pt x="336" y="428" on="1"/>
        <pt x="298" y="428" on="0"/>
        <pt x="268" y="455" on="0"/>
        <pt x="268" y="475" on="1"/>
        <pt x="268" y="482" on="0"/>
        <pt x="271" y="505" on="0"/>
        <pt x="273" y="514" on="1"/>
        <pt x="279" y="542" on="0"/>
        <pt x="318" y="576" on="0"/>
        <pt x="359" y="576" on="1"/>
        <pt x="397" y="576" on="0"/>
        <pt x="427" y="548" on="0"/>
        <pt x="427" y="529" on="1"/>
        <pt x="427" y="522" on="0"/>
        <pt x="424" y="499" on="0"/>
        <pt x="422" y="490" on="1"/>
        <pt x="416" y="462" on="0"/>
        <pt x="377" y="428" on="0"/>
      </contour>
    </TTGlyph>
    <TTGlyph name="dollar" xMin="0" yMin="-82" xMax="567" yMax="780">
      <contour>
        <pt x="181" y="9" on="1"/>
        <pt x="121" y="19" on="0"/>
        <pt x="25" y="72" on="0"/>
        <pt x="0" y="114" on="1"/>
        <pt x="83" y="188" on="1"/>
        <pt x="103" y="154" on="0"/>
        <pt x="169" y="114" on="0"/>
        <pt x="209" y="106" on="1"/>
        <pt x="250" y="312" on="1"/>
        <pt x="164" y="331" on="0"/>
        <pt x="83" y="416" on="0"/>
        <pt x="83" y="485" on="1"/>
        <pt x="83" y="528" on="0"/>
        <pt x="114" y="601" on="0"/>
        <pt x="174" y="656" on="0"/>
        <pt x="262" y="690" on="0"/>
        <pt x="318" y="693" on="1"/>
        <pt x="336" y="780" on="1"/>
        <pt x="431" y="780" on="1"/>
        <pt x="412" y="687" on="1"/>
        <pt x="465" y="678" on="0"/>
        <pt x="544" y="631" on="0"/>
        <pt x="567" y="593" on="1"/>
        <pt x="482" y="521" on="1"/>
        <pt x="468" y="545" on="0"/>
        <pt x="418" y="582" on="0"/>
        <pt x="384" y="590" on="1"/>
        <pt x="346" y="402" on="1"/>
        <pt x="429" y="383" on="0"/>
        <pt x="514" y="300" on="0"/>
        <pt x="514" y="231" on="1"/>
        <pt x="514" y="190" on="0"/>
        <pt x="484" y="113" on="0"/>
        <pt x="424" y="51" on="0"/>
        <pt x="335" y="11" on="0"/>
        <pt x="276" y="6" on="1"/>
        <pt x="258" y="-82" on="1"/>
        <pt x="163" y="-82" on="1"/>
      </contour>
      <contour>
        <pt x="395" y="212" on="1"/>
        <pt x="395" y="241" on="0"/>
        <pt x="365" y="284" on="0"/>
        <pt x="325" y="295" on="1"/>
        <pt x="287" y="105" on="1"/>
        <pt x="345" y="113" on="0"/>
        <pt x="395" y="175" on="0"/>
      </contour>
      <contour>
        <pt x="202" y="499" on="1"/>
        <pt x="202" y="440" on="0"/>
        <pt x="272" y="420" on="1"/>
        <pt x="307" y="594" on="1"/>
        <pt x="253" y="588" on="0"/>
        <pt x="202" y="535" on="0"/>
      </contour>
    </TTGlyph>
    <TTGlyph name="dotaccent" xMin="242" yMin="598" xMax="396" yMax="748">
      <contour>
        <pt x="308" y="598" on="1"/>
        <pt x="272" y="598" on="0"/>
        <pt x="242" y="627" on="0"/>
        <pt x="242" y="650" on="1"/>
        <pt x="242" y="655" on="0"/>
        <pt x="244" y="669" on="0"/>
        <pt x="248" y="686" on="1"/>
        <pt x="254" y="714" on="0"/>
        <pt x="289" y="748" on="0"/>
        <pt x="330" y="748" on="1"/>
        <pt x="366" y="748" on="0"/>
        <pt x="396" y="719" on="0"/>
        <pt x="396" y="696" on="1"/>
        <pt x="396" y="691" on="0"/>
        <pt x="394" y="677" on="0"/>
        <pt x="390" y="660" on="1"/>
        <pt x="384" y="632" on="0"/>
        <pt x="349" y="598" on="0"/>
      </contour>
    </TTGlyph>
    <TTGlyph name="dotaccent.case" xMin="243" yMin="762" xMax="397" yMax="912">
      <contour>
        <pt x="309" y="762" on="1"/>
        <pt x="273" y="762" on="0"/>
        <pt x="243" y="791" on="0"/>
        <pt x="243" y="814" on="1"/>
        <pt x="243" y="819" on="0"/>
        <pt x="245" y="833" on="0"/>
        <pt x="249" y="850" on="1"/>
        <pt x="255" y="878" on="0"/>
        <pt x="290" y="912" on="0"/>
        <pt x="331" y="912" on="1"/>
        <pt x="367" y="912" on="0"/>
        <pt x="397" y="883" on="0"/>
        <pt x="397" y="860" on="1"/>
        <pt x="397" y="855" on="0"/>
        <pt x="395" y="841" on="0"/>
        <pt x="391" y="824" on="1"/>
        <pt x="385" y="796" on="0"/>
        <pt x="350" y="762" on="0"/>
      </contour>
    </TTGlyph>
    <TTGlyph name="dotlessi" xMin="39" yMin="0" xMax="247" yMax="522">
      <contour>
        <pt x="122" y="0" on="1"/>
        <pt x="84" y="0" on="0"/>
        <pt x="39" y="41" on="0"/>
        <pt x="39" y="75" on="1"/>
        <pt x="39" y="85" on="0"/>
        <pt x="42" y="100" on="1"/>
        <pt x="126" y="522" on="1"/>
        <pt x="247" y="522" on="1"/>
        <pt x="163" y="99" on="1"/>
        <pt x="226" y="99" on="1"/>
        <pt x="206" y="0" on="1"/>
      </contour>
    </TTGlyph>
    <TTGlyph name="e" xMin="37" yMin="-12" xMax="498" yMax="534">
      <contour>
        <pt x="250" y="-12" on="1"/>
        <pt x="144" y="-12" on="0"/>
        <pt x="37" y="106" on="0"/>
        <pt x="37" y="211" on="1"/>
        <pt x="37" y="274" on="0"/>
        <pt x="77" y="391" on="0"/>
        <pt x="150" y="481" on="0"/>
        <pt x="253" y="534" on="0"/>
        <pt x="317" y="534" on="1"/>
        <pt x="348" y="534" on="0"/>
        <pt x="412" y="519" on="0"/>
        <pt x="464" y="486" on="0"/>
        <pt x="498" y="430" on="0"/>
        <pt x="498" y="390" on="1"/>
        <pt x="498" y="308" on="0"/>
        <pt x="337" y="216" on="0"/>
        <pt x="160" y="212" on="1"/>
        <pt x="157" y="192" on="0"/>
        <pt x="157" y="183" on="1"/>
        <pt x="157" y="140" on="0"/>
        <pt x="205" y="88" on="0"/>
        <pt x="259" y="88" on="1"/>
        <pt x="298" y="88" on="0"/>
        <pt x="362" y="122" on="0"/>
        <pt x="396" y="164" on="1"/>
        <pt x="471" y="102" on="1"/>
        <pt x="422" y="39" on="0"/>
        <pt x="315" y="-12" on="0"/>
      </contour>
      <contour>
        <pt x="309" y="440" on="1"/>
        <pt x="259" y="440" on="0"/>
        <pt x="189" y="374" on="0"/>
        <pt x="178" y="317" on="1"/>
        <pt x="173" y="292" on="1"/>
        <pt x="237" y="295" on="0"/>
        <pt x="318" y="310" on="0"/>
        <pt x="363" y="332" on="0"/>
        <pt x="379" y="362" on="0"/>
        <pt x="379" y="381" on="1"/>
        <pt x="379" y="399" on="0"/>
        <pt x="366" y="422" on="0"/>
        <pt x="346" y="435" on="0"/>
        <pt x="321" y="440" on="0"/>
      </contour>
    </TTGlyph>
    <TTGlyph name="eacute" xMin="37" yMin="-12" xMax="498" yMax="805">
      <component glyphName="e" x="0" y="0" flags="0x204"/>
      <component glyphName="acute" x="30" y="0" flags="0x4"/>
    </TTGlyph>
    <TTGlyph name="ebreve" xMin="37" yMin="-12" xMax="538" yMax="779">
      <component glyphName="e" x="0" y="0" flags="0x204"/>
      <component glyphName="breve" x="30" y="0" flags="0x4"/>
    </TTGlyph>
    <TTGlyph name="ecaron" xMin="37" yMin="-12" xMax="541" yMax="794">
      <component glyphName="e" x="0" y="0" flags="0x204"/>
      <component glyphName="caron" x="30" y="0" flags="0x4"/>
    </TTGlyph>
    <TTGlyph name="ecircumflex" xMin="37" yMin="-12" xMax="515" yMax="786">
      <component glyphName="e" x="0" y="0" flags="0x204"/>
      <component glyphName="circumflex" x="30" y="0" flags="0x4"/>
    </TTGlyph>
    <TTGlyph name="edieresis" xMin="37" yMin="-12" xMax="516" yMax="742">
      <component glyphName="e" x="0" y="0" flags="0x204"/>
      <component glyphName="dieresis" x="30" y="0" flags="0x4"/>
    </TTGlyph>
    <TTGlyph name="edotaccent" xMin="37" yMin="-12" xMax="498" yMax="748">
      <component glyphName="e" x="0" y="0" flags="0x204"/>
      <component glyphName="dotaccent" x="30" y="0" flags="0x4"/>
    </TTGlyph>
    <TTGlyph name="egrave" xMin="37" yMin="-12" xMax="498" yMax="804">
      <component glyphName="e" x="0" y="0" flags="0x204"/>
      <component glyphName="grave" x="30" y="0" flags="0x4"/>
    </TTGlyph>
</ttFont>
